<svg width="24" height="24" viewBox="0 0 24 24" fill="none" xmlns="http://www.w3.org/2000/svg">
<path d="M7.85039 11.0005L10.7004 8.15048C10.9004 7.95048 10.9962 7.71714 10.9879 7.45048C10.9796 7.18381 10.8837 6.95048 10.7004 6.75048C10.5004 6.55048 10.2629 6.44631 9.98789 6.43798C9.71289 6.42964 9.47539 6.52548 9.27539 6.72548L4.70039 11.3005C4.50039 11.5005 4.40039 11.7338 4.40039 12.0005C4.40039 12.2671 4.50039 12.5005 4.70039 12.7005L9.27539 17.2755C9.47539 17.4755 9.71289 17.5713 9.98789 17.563C10.2629 17.5546 10.5004 17.4505 10.7004 17.2505C10.8837 17.0505 10.9796 16.8171 10.9879 16.5505C10.9962 16.2838 10.9004 16.0505 10.7004 15.8505L7.85039 13.0005L19.0004 13.0005C19.2837 13.0005 19.5212 12.9046 19.7129 12.713C19.9046 12.5213 20.0004 12.2838 20.0004 12.0005C20.0004 11.7171 19.9046 11.4796 19.7129 11.288C19.5212 11.0963 19.2837 11.0005 19.0004 11.0005L7.85039 11.0005Z" fill="black"/>
</svg>
