<svg width="24" height="24" viewBox="0 0 24 24" fill="none" xmlns="http://www.w3.org/2000/svg">
<path d="M16.1496 12.9995L13.2996 15.8495C13.0996 16.0495 13.0038 16.2829 13.0121 16.5495C13.0204 16.8162 13.1163 17.0495 13.2996 17.2495C13.4996 17.4495 13.7371 17.5537 14.0121 17.562C14.2871 17.5704 14.5246 17.4745 14.7246 17.2745L19.2996 12.6995C19.4996 12.4995 19.5996 12.2662 19.5996 11.9995C19.5996 11.7329 19.4996 11.4995 19.2996 11.2995L14.7246 6.72452C14.5246 6.52452 14.2871 6.42869 14.0121 6.43702C13.7371 6.44536 13.4996 6.54952 13.2996 6.74952C13.1163 6.94952 13.0204 7.18286 13.0121 7.44952C13.0038 7.71619 13.0996 7.94952 13.2996 8.14952L16.1496 10.9995H4.99961C4.71628 10.9995 4.47878 11.0954 4.28711 11.287C4.09544 11.4787 3.99961 11.7162 3.99961 11.9995C3.99961 12.2829 4.09544 12.5204 4.28711 12.712C4.47878 12.9037 4.71628 12.9995 4.99961 12.9995H16.1496Z" fill="black"/>
</svg>
