<svg width="80" height="81" viewBox="0 0 80 81" fill="none" xmlns="http://www.w3.org/2000/svg">
<path d="M66.5 70.0996C59.5556 70.0996 52.6944 68.5857 45.9167 65.5579C39.1389 62.5302 32.9722 58.2385 27.4167 52.6829C21.8611 47.1274 17.5694 40.9607 14.5417 34.1829C11.5139 27.4052 10 20.5441 10 13.5996C10 12.5996 10.3333 11.7663 11 11.0996C11.6667 10.4329 12.5 10.0996 13.5 10.0996H27C27.7778 10.0996 28.4722 10.3635 29.0833 10.8913C29.6944 11.4191 30.0556 12.0441 30.1667 12.7663L32.3333 24.4329C32.4444 25.3218 32.4167 26.0718 32.25 26.6829C32.0833 27.2941 31.7778 27.8218 31.3333 28.2663L23.25 36.4329C24.3611 38.4885 25.6806 40.4746 27.2083 42.3913C28.7361 44.3079 30.4167 46.1552 32.25 47.9329C33.9722 49.6552 35.7778 51.2524 37.6667 52.7246C39.5556 54.1968 41.5556 55.5441 43.6667 56.7663L51.5 48.9329C52 48.4329 52.6528 48.0579 53.4583 47.8079C54.2639 47.5579 55.0556 47.4885 55.8333 47.5996L67.3333 49.9329C68.1111 50.1552 68.75 50.5579 69.25 51.1413C69.75 51.7246 70 52.3774 70 53.0996V66.5996C70 67.5996 69.6667 68.4329 69 69.0996C68.3333 69.7663 67.5 70.0996 66.5 70.0996Z" fill="#E9E7DE"/>
</svg>
