<svg width="784" height="204" viewBox="0 0 784 204" fill="none" xmlns="http://www.w3.org/2000/svg">
<g filter="url(#filter0_dd_468_11894)">
<rect x="12" width="160" height="180" rx="12" fill="#F5F6F9"/>
<rect x="12.5" y="0.5" width="159" height="179" rx="11.5" stroke="black" stroke-opacity="0.1"/>
<path d="M67.9705 36.436C67.9705 37.036 67.8205 37.6 67.5205 38.128C67.2325 38.656 66.8005 39.1 66.2245 39.46C65.6605 39.82 64.9885 40.036 64.2085 40.108V41.566H63.0385V40.108C61.9105 40 60.9985 39.646 60.3025 39.046C59.6065 38.446 59.2585 37.654 59.2585 36.67H61.4545C61.4905 37.138 61.6405 37.528 61.9045 37.84C62.1685 38.14 62.5465 38.332 63.0385 38.416V34.456C62.2345 34.252 61.5805 34.048 61.0765 33.844C60.5725 33.628 60.1405 33.292 59.7805 32.836C59.4325 32.38 59.2585 31.756 59.2585 30.964C59.2585 29.968 59.6065 29.146 60.3025 28.498C60.9985 27.838 61.9105 27.454 63.0385 27.346V25.888H64.2085V27.346C65.2645 27.442 66.1105 27.778 66.7465 28.354C67.3945 28.918 67.7605 29.698 67.8445 30.694H65.6485C65.6125 30.322 65.4685 29.992 65.2165 29.704C64.9645 29.404 64.6285 29.2 64.2085 29.092V32.98C65.0125 33.172 65.6665 33.376 66.1705 33.592C66.6745 33.796 67.1005 34.126 67.4485 34.582C67.7965 35.026 67.9705 35.644 67.9705 36.436ZM61.3465 30.856C61.3465 31.348 61.4905 31.732 61.7785 32.008C62.0785 32.284 62.4985 32.506 63.0385 32.674V29.038C62.5225 29.098 62.1085 29.284 61.7965 29.596C61.4965 29.908 61.3465 30.328 61.3465 30.856ZM64.2085 38.416C64.7365 38.332 65.1505 38.122 65.4505 37.786C65.7505 37.438 65.9005 37.024 65.9005 36.544C65.9005 36.064 65.7505 35.692 65.4505 35.428C65.1625 35.152 64.7485 34.93 64.2085 34.762V38.416ZM70.5515 35.032C70.5515 34.012 70.7555 33.118 71.1635 32.35C71.5835 31.57 72.1595 30.97 72.8915 30.55C73.6235 30.13 74.4635 29.92 75.4115 29.92C76.6115 29.92 77.6015 30.208 78.3815 30.784C79.1735 31.348 79.7075 32.158 79.9835 33.214H77.7695C77.5895 32.722 77.3015 32.338 76.9055 32.062C76.5095 31.786 76.0115 31.648 75.4115 31.648C74.5715 31.648 73.8995 31.948 73.3955 32.548C72.9035 33.136 72.6575 33.964 72.6575 35.032C72.6575 36.1 72.9035 36.934 73.3955 37.534C73.8995 38.134 74.5715 38.434 75.4115 38.434C76.5995 38.434 77.3855 37.912 77.7695 36.868H79.9835C79.6955 37.876 79.1555 38.68 78.3635 39.28C77.5715 39.868 76.5875 40.162 75.4115 40.162C74.4635 40.162 73.6235 39.952 72.8915 39.532C72.1595 39.1 71.5835 38.5 71.1635 37.732C70.7555 36.952 70.5515 36.052 70.5515 35.032ZM86.3305 40.162C85.3945 40.162 84.5485 39.952 83.7925 39.532C83.0365 39.1 82.4425 38.5 82.0105 37.732C81.5785 36.952 81.3625 36.052 81.3625 35.032C81.3625 34.024 81.5845 33.13 82.0285 32.35C82.4725 31.57 83.0785 30.97 83.8465 30.55C84.6145 30.13 85.4725 29.92 86.4205 29.92C87.3685 29.92 88.2265 30.13 88.9945 30.55C89.7625 30.97 90.3685 31.57 90.8125 32.35C91.2565 33.13 91.4785 34.024 91.4785 35.032C91.4785 36.04 91.2505 36.934 90.7945 37.714C90.3385 38.494 89.7145 39.1 88.9225 39.532C88.1425 39.952 87.2785 40.162 86.3305 40.162ZM86.3305 38.38C86.8585 38.38 87.3505 38.254 87.8065 38.002C88.2745 37.75 88.6525 37.372 88.9405 36.868C89.2285 36.364 89.3725 35.752 89.3725 35.032C89.3725 34.312 89.2345 33.706 88.9585 33.214C88.6825 32.71 88.3165 32.332 87.8605 32.08C87.4045 31.828 86.9125 31.702 86.3845 31.702C85.8565 31.702 85.3645 31.828 84.9085 32.08C84.4645 32.332 84.1105 32.71 83.8465 33.214C83.5825 33.706 83.4505 34.312 83.4505 35.032C83.4505 36.1 83.7205 36.928 84.2605 37.516C84.8125 38.092 85.5025 38.38 86.3305 38.38ZM95.559 26.68V40H93.507V26.68H95.559ZM102.555 40.162C101.619 40.162 100.773 39.952 100.017 39.532C99.2611 39.1 98.6671 38.5 98.2351 37.732C97.8031 36.952 97.5871 36.052 97.5871 35.032C97.5871 34.024 97.8091 33.13 98.2531 32.35C98.6971 31.57 99.3031 30.97 100.071 30.55C100.839 30.13 101.697 29.92 102.645 29.92C103.593 29.92 104.451 30.13 105.219 30.55C105.987 30.97 106.593 31.57 107.037 32.35C107.481 33.13 107.703 34.024 107.703 35.032C107.703 36.04 107.475 36.934 107.019 37.714C106.563 38.494 105.939 39.1 105.147 39.532C104.367 39.952 103.503 40.162 102.555 40.162ZM102.555 38.38C103.083 38.38 103.575 38.254 104.031 38.002C104.499 37.75 104.877 37.372 105.165 36.868C105.453 36.364 105.597 35.752 105.597 35.032C105.597 34.312 105.459 33.706 105.183 33.214C104.907 32.71 104.541 32.332 104.085 32.08C103.629 31.828 103.137 31.702 102.609 31.702C102.081 31.702 101.589 31.828 101.133 32.08C100.689 32.332 100.335 32.71 100.071 33.214C99.8071 33.706 99.6751 34.312 99.6751 35.032C99.6751 36.1 99.9451 36.928 100.485 37.516C101.037 38.092 101.727 38.38 102.555 38.38ZM111.784 31.522C112.084 31.018 112.48 30.628 112.972 30.352C113.476 30.064 114.07 29.92 114.754 29.92V32.044H114.232C113.428 32.044 112.816 32.248 112.396 32.656C111.988 33.064 111.784 33.772 111.784 34.78V40H109.732V30.082H111.784V31.522ZM124.254 32.62V34.348H116.856V32.62H124.254ZM49.0549 57.92C49.8349 57.92 50.5309 58.082 51.1429 58.406C51.7669 58.73 52.2529 59.21 52.6009 59.846C52.9489 60.482 53.1229 61.25 53.1229 62.15V68H51.0889V62.456C51.0889 61.568 50.8669 60.89 50.4229 60.422C49.9789 59.942 49.3729 59.702 48.6049 59.702C47.8369 59.702 47.2249 59.942 46.7689 60.422C46.3249 60.89 46.1029 61.568 46.1029 62.456V68H44.0509V58.082H46.1029V59.216C46.4389 58.808 46.8649 58.49 47.3809 58.262C47.9089 58.034 48.4669 57.92 49.0549 57.92ZM64.8304 62.798C64.8304 63.17 64.8064 63.506 64.7584 63.806H57.1804C57.2404 64.598 57.5344 65.234 58.0624 65.714C58.5904 66.194 59.2384 66.434 60.0064 66.434C61.1104 66.434 61.8904 65.972 62.3464 65.048H64.5604C64.2604 65.96 63.7144 66.71 62.9224 67.298C62.1424 67.874 61.1704 68.162 60.0064 68.162C59.0584 68.162 58.2064 67.952 57.4504 67.532C56.7064 67.1 56.1184 66.5 55.6864 65.732C55.2664 64.952 55.0564 64.052 55.0564 63.032C55.0564 62.012 55.2604 61.118 55.6684 60.35C56.0884 59.57 56.6704 58.97 57.4144 58.55C58.1704 58.13 59.0344 57.92 60.0064 57.92C60.9424 57.92 61.7764 58.124 62.5084 58.532C63.2404 58.94 63.8104 59.516 64.2184 60.26C64.6264 60.992 64.8304 61.838 64.8304 62.798ZM62.6884 62.15C62.6764 61.394 62.4064 60.788 61.8784 60.332C61.3504 59.876 60.6964 59.648 59.9164 59.648C59.2084 59.648 58.6024 59.876 58.0984 60.332C57.5944 60.776 57.2944 61.382 57.1984 62.15H62.6884ZM75.8318 58.082V68H73.7798V66.83C73.4558 67.238 73.0298 67.562 72.5018 67.802C71.9858 68.03 71.4338 68.144 70.8458 68.144C70.0658 68.144 69.3638 67.982 68.7398 67.658C68.1278 67.334 67.6418 66.854 67.2818 66.218C66.9338 65.582 66.7598 64.814 66.7598 63.914V58.082H68.7938V63.608C68.7938 64.496 69.0158 65.18 69.4598 65.66C69.9038 66.128 70.5098 66.362 71.2778 66.362C72.0458 66.362 72.6518 66.128 73.0958 65.66C73.5518 65.18 73.7798 64.496 73.7798 63.608V58.082H75.8318ZM80.9332 59.756V65.246C80.9332 65.618 81.0172 65.888 81.1852 66.056C81.3652 66.212 81.6652 66.29 82.0852 66.29H83.3452V68H81.7252C80.8012 68 80.0932 67.784 79.6012 67.352C79.1092 66.92 78.8632 66.218 78.8632 65.246V59.756H77.6932V58.082H78.8632V55.616H80.9332V58.082H83.3452V59.756H80.9332ZM87.2885 59.522C87.5885 59.018 87.9845 58.628 88.4765 58.352C88.9805 58.064 89.5745 57.92 90.2585 57.92V60.044H89.7365C88.9325 60.044 88.3205 60.248 87.9005 60.656C87.4925 61.064 87.2885 61.772 87.2885 62.78V68H85.2365V58.082H87.2885V59.522ZM91.4607 62.996C91.4607 62 91.6647 61.118 92.0727 60.35C92.4927 59.582 93.0567 58.988 93.7647 58.568C94.4847 58.136 95.2767 57.92 96.1407 57.92C96.9207 57.92 97.5987 58.076 98.1747 58.388C98.7627 58.688 99.2307 59.066 99.5787 59.522V58.082H101.649V68H99.5787V66.524C99.2307 66.992 98.7567 67.382 98.1567 67.694C97.5567 68.006 96.8727 68.162 96.1047 68.162C95.2527 68.162 94.4727 67.946 93.7647 67.514C93.0567 67.07 92.4927 66.458 92.0727 65.678C91.6647 64.886 91.4607 63.992 91.4607 62.996ZM99.5787 63.032C99.5787 62.348 99.4347 61.754 99.1467 61.25C98.8707 60.746 98.5047 60.362 98.0487 60.098C97.5927 59.834 97.1007 59.702 96.5727 59.702C96.0447 59.702 95.5527 59.834 95.0967 60.098C94.6407 60.35 94.2687 60.728 93.9807 61.232C93.7047 61.724 93.5667 62.312 93.5667 62.996C93.5667 63.68 93.7047 64.28 93.9807 64.796C94.2687 65.312 94.6407 65.708 95.0967 65.984C95.5647 66.248 96.0567 66.38 96.5727 66.38C97.1007 66.38 97.5927 66.248 98.0487 65.984C98.5047 65.72 98.8707 65.336 99.1467 64.832C99.4347 64.316 99.5787 63.716 99.5787 63.032ZM106.396 54.68V68H104.344V54.68H106.396ZM116.704 60.62V62.348H109.306V60.62H116.704ZM127.809 56.642H121.779V60.224C122.031 59.888 122.403 59.606 122.895 59.378C123.399 59.15 123.933 59.036 124.497 59.036C125.505 59.036 126.321 59.252 126.945 59.684C127.581 60.116 128.031 60.662 128.295 61.322C128.571 61.982 128.709 62.678 128.709 63.41C128.709 64.298 128.535 65.09 128.187 65.786C127.851 66.47 127.341 67.01 126.657 67.406C125.985 67.802 125.157 68 124.173 68C122.865 68 121.815 67.676 121.023 67.028C120.231 66.38 119.757 65.522 119.601 64.454H121.599C121.731 65.018 122.025 65.468 122.481 65.804C122.937 66.128 123.507 66.29 124.191 66.29C125.043 66.29 125.679 66.032 126.099 65.516C126.531 65 126.747 64.316 126.747 63.464C126.747 62.6 126.531 61.94 126.099 61.484C125.667 61.016 125.031 60.782 124.191 60.782C123.603 60.782 123.105 60.932 122.697 61.232C122.301 61.52 122.013 61.916 121.833 62.42H119.889V54.842H127.809V56.642ZM130.845 61.268C130.845 59.192 131.193 57.572 131.889 56.408C132.597 55.232 133.809 54.644 135.525 54.644C137.241 54.644 138.447 55.232 139.143 56.408C139.851 57.572 140.205 59.192 140.205 61.268C140.205 63.368 139.851 65.012 139.143 66.2C138.447 67.376 137.241 67.964 135.525 67.964C133.809 67.964 132.597 67.376 131.889 66.2C131.193 65.012 130.845 63.368 130.845 61.268ZM138.189 61.268C138.189 60.296 138.123 59.474 137.991 58.802C137.871 58.13 137.619 57.584 137.235 57.164C136.851 56.732 136.281 56.516 135.525 56.516C134.769 56.516 134.199 56.732 133.815 57.164C133.431 57.584 133.173 58.13 133.041 58.802C132.921 59.474 132.861 60.296 132.861 61.268C132.861 62.276 132.921 63.122 133.041 63.806C133.161 64.49 133.413 65.042 133.797 65.462C134.193 65.882 134.769 66.092 135.525 66.092C136.281 66.092 136.851 65.882 137.235 65.462C137.631 65.042 137.889 64.49 138.009 63.806C138.129 63.122 138.189 62.276 138.189 61.268Z" fill="#111212"/>
<path d="M12 92H172" stroke="black" stroke-opacity="0.1"/>
<path d="M90.0263 116.642H83.9963V120.224C84.2483 119.888 84.6203 119.606 85.1123 119.378C85.6163 119.15 86.1503 119.036 86.7143 119.036C87.7223 119.036 88.5383 119.252 89.1623 119.684C89.7983 120.116 90.2483 120.662 90.5123 121.322C90.7883 121.982 90.9263 122.678 90.9263 123.41C90.9263 124.298 90.7523 125.09 90.4043 125.786C90.0683 126.47 89.5583 127.01 88.8743 127.406C88.2023 127.802 87.3743 128 86.3903 128C85.0823 128 84.0323 127.676 83.2403 127.028C82.4483 126.38 81.9743 125.522 81.8183 124.454H83.8163C83.9483 125.018 84.2423 125.468 84.6983 125.804C85.1543 126.128 85.7243 126.29 86.4083 126.29C87.2603 126.29 87.8963 126.032 88.3163 125.516C88.7483 125 88.9643 124.316 88.9643 123.464C88.9643 122.6 88.7483 121.94 88.3163 121.484C87.8843 121.016 87.2483 120.782 86.4083 120.782C85.8203 120.782 85.3223 120.932 84.9143 121.232C84.5183 121.52 84.2303 121.916 84.0503 122.42H82.1063V114.842H90.0263V116.642ZM93.0624 121.268C93.0624 119.192 93.4104 117.572 94.1064 116.408C94.8144 115.232 96.0264 114.644 97.7424 114.644C99.4584 114.644 100.664 115.232 101.36 116.408C102.068 117.572 102.422 119.192 102.422 121.268C102.422 123.368 102.068 125.012 101.36 126.2C100.664 127.376 99.4584 127.964 97.7424 127.964C96.0264 127.964 94.8144 127.376 94.1064 126.2C93.4104 125.012 93.0624 123.368 93.0624 121.268ZM100.406 121.268C100.406 120.296 100.34 119.474 100.208 118.802C100.088 118.13 99.8364 117.584 99.4524 117.164C99.0684 116.732 98.4984 116.516 97.7424 116.516C96.9864 116.516 96.4164 116.732 96.0324 117.164C95.6484 117.584 95.3904 118.13 95.2584 118.802C95.1384 119.474 95.0784 120.296 95.0784 121.268C95.0784 122.276 95.1384 123.122 95.2584 123.806C95.3784 124.49 95.6304 125.042 96.0144 125.462C96.4104 125.882 96.9864 126.092 97.7424 126.092C98.4984 126.092 99.0684 125.882 99.4524 125.462C99.8484 125.042 100.106 124.49 100.226 123.806C100.346 123.122 100.406 122.276 100.406 121.268Z" fill="#111212"/>
<path d="M72.3016 142.848V144.032H67.4536V147.792H71.3896V148.976H67.4536V154H65.9976V142.848H72.3016ZM81.1961 143.696H75.5801V147.344C75.8255 147.003 76.1881 146.725 76.6681 146.512C77.1481 146.288 77.6655 146.176 78.2201 146.176C79.1055 146.176 79.8255 146.363 80.3801 146.736C80.9348 147.099 81.3295 147.573 81.5641 148.16C81.8095 148.736 81.9321 149.349 81.9321 150C81.9321 150.768 81.7881 151.456 81.5001 152.064C81.2121 152.672 80.7695 153.152 80.1721 153.504C79.5855 153.856 78.8548 154.032 77.9801 154.032C76.8601 154.032 75.9535 153.744 75.2601 153.168C74.5668 152.592 74.1455 151.824 73.9961 150.864H75.4201C75.5588 151.472 75.8521 151.947 76.3001 152.288C76.7481 152.629 77.3135 152.8 77.9961 152.8C78.8388 152.8 79.4735 152.549 79.9001 152.048C80.3268 151.536 80.5401 150.864 80.5401 150.032C80.5401 149.2 80.3268 148.56 79.9001 148.112C79.4735 147.653 78.8441 147.424 78.0121 147.424C77.4468 147.424 76.9508 147.563 76.5241 147.84C76.1081 148.107 75.8041 148.475 75.6121 148.944H74.2361V142.416H81.1961V143.696ZM90.411 142.848V144.032H85.563V147.792H89.499V148.976H85.563V154H84.107V142.848H90.411ZM98.3775 145.184C98.1428 144 97.4122 143.408 96.1855 143.408C95.2362 143.408 94.5268 143.776 94.0575 144.512C93.5882 145.237 93.3588 146.437 93.3695 148.112C93.6148 147.557 94.0202 147.125 94.5855 146.816C95.1615 146.496 95.8015 146.336 96.5055 146.336C97.6042 146.336 98.4788 146.677 99.1295 147.36C99.7908 148.043 100.122 148.987 100.122 150.192C100.122 150.917 99.9775 151.568 99.6895 152.144C99.4122 152.72 98.9855 153.179 98.4095 153.52C97.8442 153.861 97.1562 154.032 96.3455 154.032C95.2468 154.032 94.3882 153.787 93.7695 153.296C93.1508 152.805 92.7188 152.128 92.4735 151.264C92.2282 150.4 92.1055 149.333 92.1055 148.064C92.1055 144.149 93.4708 142.192 96.2015 142.192C97.2468 142.192 98.0682 142.475 98.6655 143.04C99.2628 143.605 99.6148 144.32 99.7215 145.184H98.3775ZM96.2015 147.568C95.7428 147.568 95.3108 147.664 94.9055 147.856C94.5002 148.037 94.1695 148.32 93.9135 148.704C93.6682 149.077 93.5455 149.536 93.5455 150.08C93.5455 150.891 93.7802 151.552 94.2495 152.064C94.7188 152.565 95.3908 152.816 96.2655 152.816C97.0122 152.816 97.6042 152.587 98.0415 152.128C98.4895 151.659 98.7135 151.029 98.7135 150.24C98.7135 149.408 98.5002 148.757 98.0735 148.288C97.6468 147.808 97.0228 147.568 96.2015 147.568ZM108.63 142.848V144.032H103.782V147.792H107.718V148.976H103.782V154H102.326V142.848H108.63ZM112.02 150.896C112.127 151.504 112.372 151.973 112.756 152.304C113.151 152.635 113.679 152.8 114.34 152.8C115.226 152.8 115.876 152.453 116.292 151.76C116.719 151.067 116.922 149.899 116.9 148.256C116.676 148.736 116.303 149.115 115.78 149.392C115.258 149.659 114.676 149.792 114.036 149.792C113.322 149.792 112.682 149.648 112.116 149.36C111.562 149.061 111.124 148.629 110.804 148.064C110.484 147.499 110.324 146.816 110.324 146.016C110.324 144.875 110.655 143.957 111.316 143.264C111.978 142.56 112.916 142.208 114.132 142.208C115.626 142.208 116.671 142.693 117.268 143.664C117.876 144.635 118.18 146.08 118.18 148C118.18 149.344 118.058 150.453 117.812 151.328C117.578 152.203 117.172 152.869 116.596 153.328C116.031 153.787 115.252 154.016 114.26 154.016C113.172 154.016 112.324 153.723 111.716 153.136C111.108 152.549 110.762 151.803 110.676 150.896H112.02ZM114.276 148.56C114.991 148.56 115.578 148.341 116.036 147.904C116.495 147.456 116.724 146.853 116.724 146.096C116.724 145.296 116.5 144.651 116.052 144.16C115.604 143.669 114.975 143.424 114.164 143.424C113.418 143.424 112.82 143.659 112.372 144.128C111.935 144.597 111.716 145.216 111.716 145.984C111.716 146.763 111.935 147.387 112.372 147.856C112.81 148.325 113.444 148.56 114.276 148.56Z" fill="#111212"/>
</g>
<g filter="url(#filter1_dd_468_11894)">
<rect x="212" width="160" height="180" rx="12" fill="#BFBFBF"/>
<rect x="212.5" y="0.5" width="159" height="179" rx="11.5" stroke="black" stroke-opacity="0.1"/>
<path d="M265.982 42.6364V26.2727H267.031V42.6364H265.982ZM269.261 31.348C269.193 30.7429 268.912 30.2741 268.418 29.9418C267.923 29.6051 267.301 29.4368 266.551 29.4368C266.014 29.4368 265.55 29.522 265.158 29.6925C264.766 29.8587 264.461 30.0888 264.244 30.3828C264.031 30.6726 263.924 31.0028 263.924 31.3736C263.924 31.6847 263.997 31.9531 264.141 32.179C264.291 32.4048 264.485 32.5945 264.723 32.7479C264.966 32.897 265.226 33.0227 265.503 33.125C265.78 33.223 266.046 33.304 266.302 33.3679L267.58 33.7003C267.998 33.8026 268.426 33.9411 268.865 34.1158C269.304 34.2905 269.711 34.5206 270.086 34.8061C270.461 35.0916 270.764 35.4453 270.994 35.8672C271.228 36.2891 271.345 36.794 271.345 37.3821C271.345 38.1236 271.154 38.782 270.77 39.3572C270.391 39.9325 269.839 40.3864 269.114 40.7188C268.394 41.0511 267.523 41.2173 266.5 41.2173C265.52 41.2173 264.672 41.0618 263.956 40.7507C263.24 40.4396 262.68 39.9986 262.275 39.4276C261.87 38.8523 261.646 38.1705 261.604 37.3821H263.585C263.624 37.8551 263.777 38.2493 264.046 38.5646C264.318 38.8757 264.666 39.108 265.087 39.2614C265.514 39.4105 265.98 39.4851 266.487 39.4851C267.046 39.4851 267.542 39.3977 267.977 39.223C268.416 39.044 268.761 38.7969 269.012 38.4815C269.264 38.1619 269.389 37.7891 269.389 37.3629C269.389 36.9751 269.279 36.6577 269.057 36.4105C268.84 36.1634 268.543 35.9588 268.168 35.7969C267.798 35.6349 267.378 35.4922 266.909 35.3686L265.362 34.9467C264.314 34.6612 263.483 34.2415 262.869 33.6875C262.26 33.1335 261.955 32.4006 261.955 31.4886C261.955 30.7344 262.16 30.076 262.569 29.5135C262.978 28.951 263.532 28.5142 264.231 28.2031C264.93 27.8878 265.718 27.7301 266.596 27.7301C267.482 27.7301 268.264 27.8857 268.942 28.1967C269.624 28.5078 270.161 28.9361 270.553 29.4815C270.945 30.0227 271.149 30.6449 271.166 31.348H269.261ZM277.688 41.1982C276.738 41.1982 275.919 40.983 275.233 40.5526C274.551 40.1179 274.027 39.5192 273.661 38.7564C273.294 37.9936 273.111 37.12 273.111 36.1357C273.111 35.1385 273.299 34.2585 273.674 33.4957C274.049 32.7287 274.577 32.13 275.259 31.6996C275.941 31.2692 276.744 31.054 277.669 31.054C278.414 31.054 279.079 31.1925 279.663 31.4695C280.247 31.7422 280.718 32.1257 281.076 32.62C281.438 33.1143 281.653 33.6918 281.721 34.3523H279.861C279.759 33.892 279.524 33.4957 279.158 33.1634C278.796 32.831 278.31 32.6648 277.701 32.6648C277.168 32.6648 276.701 32.8054 276.301 33.0866C275.904 33.3636 275.595 33.7599 275.374 34.2756C275.152 34.7869 275.042 35.392 275.042 36.0909C275.042 36.8068 275.15 37.4247 275.367 37.9446C275.585 38.4645 275.892 38.8672 276.288 39.1527C276.689 39.4382 277.159 39.581 277.701 39.581C278.063 39.581 278.391 39.5149 278.685 39.3828C278.983 39.2464 279.233 39.0526 279.433 38.8011C279.637 38.5497 279.78 38.2472 279.861 37.8935H281.721C281.653 38.5284 281.446 39.0952 281.101 39.5938C280.756 40.0923 280.294 40.4844 279.714 40.7699C279.139 41.0554 278.463 41.1982 277.688 41.1982ZM287.901 41.1982C286.98 41.1982 286.177 40.9872 285.491 40.5653C284.805 40.1435 284.272 39.5533 283.893 38.7947C283.514 38.0362 283.324 37.1499 283.324 36.1357C283.324 35.1172 283.514 34.2266 283.893 33.4638C284.272 32.701 284.805 32.1087 285.491 31.6868C286.177 31.2649 286.98 31.054 287.901 31.054C288.821 31.054 289.624 31.2649 290.31 31.6868C290.997 32.1087 291.529 32.701 291.909 33.4638C292.288 34.2266 292.477 35.1172 292.477 36.1357C292.477 37.1499 292.288 38.0362 291.909 38.7947C291.529 39.5533 290.997 40.1435 290.31 40.5653C289.624 40.9872 288.821 41.1982 287.901 41.1982ZM287.907 39.5938C288.504 39.5938 288.998 39.4361 289.39 39.1207C289.782 38.8054 290.072 38.3857 290.259 37.8615C290.451 37.3374 290.547 36.7599 290.547 36.1293C290.547 35.5028 290.451 34.9276 290.259 34.4034C290.072 33.875 289.782 33.451 289.39 33.1314C288.998 32.8118 288.504 32.652 287.907 32.652C287.306 32.652 286.808 32.8118 286.411 33.1314C286.019 33.451 285.727 33.875 285.536 34.4034C285.348 34.9276 285.254 35.5028 285.254 36.1293C285.254 36.7599 285.348 37.3374 285.536 37.8615C285.727 38.3857 286.019 38.8054 286.411 39.1207C286.808 39.4361 287.306 39.5938 287.907 39.5938ZM296.522 27.9091V41H294.611V27.9091H296.522ZM303.229 41.1982C302.308 41.1982 301.505 40.9872 300.819 40.5653C300.133 40.1435 299.6 39.5533 299.221 38.7947C298.842 38.0362 298.652 37.1499 298.652 36.1357C298.652 35.1172 298.842 34.2266 299.221 33.4638C299.6 32.701 300.133 32.1087 300.819 31.6868C301.505 31.2649 302.308 31.054 303.229 31.054C304.149 31.054 304.953 31.2649 305.639 31.6868C306.325 32.1087 306.857 32.701 307.237 33.4638C307.616 34.2266 307.806 35.1172 307.806 36.1357C307.806 37.1499 307.616 38.0362 307.237 38.7947C306.857 39.5533 306.325 40.1435 305.639 40.5653C304.953 40.9872 304.149 41.1982 303.229 41.1982ZM303.235 39.5938C303.832 39.5938 304.326 39.4361 304.718 39.1207C305.11 38.8054 305.4 38.3857 305.587 37.8615C305.779 37.3374 305.875 36.7599 305.875 36.1293C305.875 35.5028 305.779 34.9276 305.587 34.4034C305.4 33.875 305.11 33.451 304.718 33.1314C304.326 32.8118 303.832 32.652 303.235 32.652C302.634 32.652 302.136 32.8118 301.739 33.1314C301.347 33.451 301.056 33.875 300.864 34.4034C300.676 34.9276 300.583 35.5028 300.583 36.1293C300.583 36.7599 300.676 37.3374 300.864 37.8615C301.056 38.3857 301.347 38.8054 301.739 39.1207C302.136 39.4361 302.634 39.5938 303.235 39.5938ZM309.939 41V31.1818H311.786V32.7415H311.888C312.067 32.2131 312.383 31.7976 312.834 31.495C313.29 31.1882 313.806 31.0348 314.381 31.0348C314.501 31.0348 314.641 31.0391 314.803 31.0476C314.969 31.0561 315.099 31.0668 315.193 31.0795V32.9077C315.116 32.8864 314.98 32.8629 314.784 32.8374C314.588 32.8075 314.392 32.7926 314.196 32.7926C313.744 32.7926 313.342 32.8885 312.988 33.0803C312.638 33.2678 312.361 33.5298 312.157 33.8665C311.952 34.1989 311.85 34.5781 311.85 35.0043V41H309.939ZM322.052 34.6399V36.2955H316.248V34.6399H322.052ZM245.018 63.1705V69H243.107V59.1818H244.941V60.7798H245.063C245.289 60.2599 245.642 59.8423 246.124 59.527C246.61 59.2116 247.221 59.054 247.958 59.054C248.627 59.054 249.213 59.1946 249.716 59.4759C250.219 59.7528 250.609 60.1662 250.886 60.7159C251.163 61.2656 251.301 61.9453 251.301 62.755V69H249.39V62.9851C249.39 62.2734 249.205 61.7173 248.834 61.3168C248.463 60.9119 247.954 60.7095 247.306 60.7095C246.863 60.7095 246.469 60.8054 246.124 60.9972C245.783 61.1889 245.512 61.4702 245.312 61.8409C245.116 62.2074 245.018 62.6506 245.018 63.1705ZM258.096 69.1982C257.129 69.1982 256.296 68.9915 255.597 68.5781C254.902 68.1605 254.365 67.5746 253.986 66.8203C253.611 66.0618 253.424 65.1733 253.424 64.1548C253.424 63.1491 253.611 62.2628 253.986 61.4957C254.365 60.7287 254.894 60.13 255.571 59.6996C256.253 59.2692 257.05 59.054 257.962 59.054C258.516 59.054 259.053 59.1456 259.573 59.3288C260.093 59.5121 260.559 59.7997 260.973 60.1918C261.386 60.5838 261.712 61.093 261.951 61.7195C262.189 62.3416 262.309 63.098 262.309 63.9886V64.6662H254.504V63.2344H260.436C260.436 62.7315 260.333 62.2862 260.129 61.8984C259.924 61.5064 259.637 61.1974 259.266 60.9716C258.899 60.7457 258.469 60.6328 257.975 60.6328C257.438 60.6328 256.969 60.7649 256.568 61.0291C256.172 61.2891 255.865 61.63 255.648 62.0518C255.435 62.4695 255.328 62.9233 255.328 63.4134V64.532C255.328 65.1882 255.443 65.7464 255.674 66.2067C255.908 66.6669 256.234 67.0185 256.652 67.2614C257.069 67.5 257.557 67.6193 258.115 67.6193C258.478 67.6193 258.808 67.5682 259.106 67.4659C259.404 67.3594 259.662 67.2017 259.88 66.9929C260.097 66.7841 260.263 66.5263 260.378 66.2195L262.187 66.5455C262.042 67.0781 261.782 67.5447 261.407 67.9453C261.037 68.3416 260.57 68.6506 260.007 68.8722C259.449 69.0895 258.812 69.1982 258.096 69.1982ZM270.649 64.9283V59.1818H272.566V69H270.687V67.2997H270.585C270.359 67.8239 269.997 68.2607 269.498 68.6101C269.004 68.9553 268.388 69.1278 267.651 69.1278C267.02 69.1278 266.462 68.9893 265.976 68.7124C265.494 68.4311 265.115 68.0156 264.838 67.4659C264.565 66.9162 264.429 66.2365 264.429 65.4268V59.1818H266.34V65.1967C266.34 65.8658 266.526 66.3984 266.896 66.7947C267.267 67.1911 267.749 67.3892 268.341 67.3892C268.699 67.3892 269.055 67.2997 269.409 67.1207C269.766 66.9418 270.063 66.6712 270.297 66.3089C270.536 65.9467 270.653 65.4865 270.649 64.9283ZM279.717 59.1818V60.7159H274.354V59.1818H279.717ZM275.793 56.8295H277.704V66.1172C277.704 66.4879 277.759 66.767 277.87 66.9545C277.981 67.1378 278.124 67.2635 278.298 67.3317C278.477 67.3956 278.671 67.4276 278.88 67.4276C279.033 67.4276 279.168 67.4169 279.283 67.3956C279.398 67.3743 279.487 67.3572 279.551 67.3445L279.896 68.9233C279.785 68.9659 279.628 69.0085 279.423 69.0511C279.219 69.098 278.963 69.1236 278.656 69.1278C278.153 69.1364 277.685 69.0469 277.25 68.8594C276.815 68.6719 276.464 68.3821 276.195 67.9901C275.927 67.598 275.793 67.1058 275.793 66.5135V56.8295ZM281.831 69V59.1818H283.679V60.7415H283.781C283.96 60.2131 284.275 59.7976 284.727 59.495C285.183 59.1882 285.699 59.0348 286.274 59.0348C286.393 59.0348 286.534 59.0391 286.696 59.0476C286.862 59.0561 286.992 59.0668 287.086 59.0795V60.9077C287.009 60.8864 286.873 60.8629 286.677 60.8374C286.481 60.8075 286.285 60.7926 286.089 60.7926C285.637 60.7926 285.234 60.8885 284.88 61.0803C284.531 61.2678 284.254 61.5298 284.049 61.8665C283.845 62.1989 283.743 62.5781 283.743 63.0043V69H281.831ZM291.509 69.2173C290.887 69.2173 290.324 69.1023 289.822 68.8722C289.319 68.6378 288.92 68.299 288.626 67.8558C288.336 67.4126 288.192 66.8693 288.192 66.2259C288.192 65.6719 288.298 65.2159 288.511 64.858C288.724 64.5 289.012 64.2166 289.374 64.0078C289.736 63.799 290.141 63.6413 290.589 63.5348C291.036 63.4283 291.492 63.3473 291.956 63.2919C292.545 63.2237 293.022 63.1683 293.388 63.1257C293.755 63.0788 294.021 63.0043 294.187 62.902C294.353 62.7997 294.437 62.6335 294.437 62.4034V62.3587C294.437 61.8004 294.279 61.3679 293.964 61.0611C293.652 60.7543 293.188 60.6009 292.57 60.6009C291.927 60.6009 291.42 60.7436 291.049 61.0291C290.682 61.3104 290.429 61.6236 290.288 61.9688L288.492 61.5597C288.705 60.9631 289.016 60.4815 289.425 60.1151C289.839 59.7443 290.314 59.4759 290.851 59.3097C291.388 59.1392 291.952 59.054 292.545 59.054C292.937 59.054 293.352 59.1009 293.791 59.1946C294.234 59.2841 294.648 59.4503 295.031 59.6932C295.419 59.9361 295.736 60.2834 295.983 60.7351C296.231 61.1825 296.354 61.7642 296.354 62.4801V69H294.488V67.6577H294.411C294.287 67.9048 294.102 68.1477 293.855 68.3864C293.608 68.625 293.29 68.8232 292.902 68.9808C292.515 69.1385 292.05 69.2173 291.509 69.2173ZM291.924 67.6832C292.453 67.6832 292.905 67.5788 293.28 67.37C293.659 67.1612 293.947 66.8885 294.143 66.5518C294.343 66.2109 294.443 65.8466 294.443 65.4588V64.1932C294.375 64.2614 294.243 64.3253 294.047 64.3849C293.855 64.4403 293.635 64.4893 293.388 64.532C293.141 64.5703 292.9 64.6065 292.666 64.6406C292.432 64.6705 292.236 64.696 292.078 64.7173C291.707 64.7642 291.368 64.843 291.062 64.9538C290.759 65.0646 290.516 65.2244 290.333 65.4332C290.154 65.6378 290.064 65.9105 290.064 66.2514C290.064 66.7244 290.239 67.0824 290.589 67.3253C290.938 67.5639 291.383 67.6832 291.924 67.6832ZM300.811 55.9091V69H298.9V55.9091H300.811ZM309.167 62.6399V64.2955H303.363V62.6399H309.167ZM316.655 55.9091V69H314.674V57.8906H314.597L311.465 59.9361V58.044L314.731 55.9091H316.655ZM324.754 69.2173C323.744 69.2131 322.881 68.9467 322.165 68.4183C321.449 67.8899 320.902 67.1207 320.522 66.1108C320.143 65.1009 319.954 63.8842 319.954 62.4609C319.954 61.0419 320.143 59.8295 320.522 58.8239C320.906 57.8182 321.456 57.0511 322.172 56.5227C322.892 55.9943 323.753 55.7301 324.754 55.7301C325.755 55.7301 326.614 55.9964 327.33 56.5291C328.046 57.0575 328.594 57.8246 328.973 58.8303C329.356 59.8317 329.548 61.0419 329.548 62.4609C329.548 63.8885 329.358 65.1072 328.979 66.1172C328.6 67.1229 328.052 67.892 327.336 68.4247C326.621 68.9531 325.76 69.2173 324.754 69.2173ZM324.754 67.5107C325.64 67.5107 326.333 67.0781 326.831 66.2131C327.334 65.348 327.586 64.0973 327.586 62.4609C327.586 61.3743 327.471 60.456 327.241 59.706C327.015 58.9517 326.689 58.3807 326.263 57.9929C325.841 57.6009 325.338 57.4048 324.754 57.4048C323.872 57.4048 323.179 57.8395 322.677 58.7088C322.174 59.5781 321.92 60.8288 321.916 62.4609C321.916 63.5518 322.029 64.4744 322.255 65.2287C322.485 65.9787 322.811 66.5476 323.233 66.9354C323.655 67.3189 324.162 67.5107 324.754 67.5107ZM336.373 69.2173C335.363 69.2131 334.5 68.9467 333.784 68.4183C333.068 67.8899 332.521 67.1207 332.142 66.1108C331.762 65.1009 331.573 63.8842 331.573 62.4609C331.573 61.0419 331.762 59.8295 332.142 58.8239C332.525 57.8182 333.075 57.0511 333.791 56.5227C334.511 55.9943 335.372 55.7301 336.373 55.7301C337.375 55.7301 338.233 55.9964 338.949 56.5291C339.665 57.0575 340.213 57.8246 340.592 58.8303C340.975 59.8317 341.167 61.0419 341.167 62.4609C341.167 63.8885 340.978 65.1072 340.598 66.1172C340.219 67.1229 339.671 67.892 338.956 68.4247C338.24 68.9531 337.379 69.2173 336.373 69.2173ZM336.373 67.5107C337.26 67.5107 337.952 67.0781 338.451 66.2131C338.953 65.348 339.205 64.0973 339.205 62.4609C339.205 61.3743 339.09 60.456 338.86 59.706C338.634 58.9517 338.308 58.3807 337.882 57.9929C337.46 57.6009 336.957 57.4048 336.373 57.4048C335.491 57.4048 334.799 57.8395 334.296 58.7088C333.793 59.5781 333.539 60.8288 333.535 62.4609C333.535 63.5518 333.648 64.4744 333.874 65.2287C334.104 65.9787 334.43 66.5476 334.852 66.9354C335.274 67.3189 335.781 67.5107 336.373 67.5107Z" fill="#111212"/>
<path d="M212 92H372" stroke="black" stroke-opacity="0.1"/>
<path d="M278.132 116.75V114.878H281.876V128H279.806V116.75H278.132ZM284.695 121.268C284.695 119.192 285.043 117.572 285.739 116.408C286.447 115.232 287.659 114.644 289.375 114.644C291.091 114.644 292.297 115.232 292.993 116.408C293.701 117.572 294.055 119.192 294.055 121.268C294.055 123.368 293.701 125.012 292.993 126.2C292.297 127.376 291.091 127.964 289.375 127.964C287.659 127.964 286.447 127.376 285.739 126.2C285.043 125.012 284.695 123.368 284.695 121.268ZM292.039 121.268C292.039 120.296 291.973 119.474 291.841 118.802C291.721 118.13 291.469 117.584 291.085 117.164C290.701 116.732 290.131 116.516 289.375 116.516C288.619 116.516 288.049 116.732 287.665 117.164C287.281 117.584 287.023 118.13 286.891 118.802C286.771 119.474 286.711 120.296 286.711 121.268C286.711 122.276 286.771 123.122 286.891 123.806C287.011 124.49 287.263 125.042 287.647 125.462C288.043 125.882 288.619 126.092 289.375 126.092C290.131 126.092 290.701 125.882 291.085 125.462C291.481 125.042 291.739 124.49 291.859 123.806C291.979 123.122 292.039 122.276 292.039 121.268ZM296.226 121.268C296.226 119.192 296.574 117.572 297.27 116.408C297.978 115.232 299.19 114.644 300.906 114.644C302.622 114.644 303.828 115.232 304.524 116.408C305.232 117.572 305.586 119.192 305.586 121.268C305.586 123.368 305.232 125.012 304.524 126.2C303.828 127.376 302.622 127.964 300.906 127.964C299.19 127.964 297.978 127.376 297.27 126.2C296.574 125.012 296.226 123.368 296.226 121.268ZM303.57 121.268C303.57 120.296 303.504 119.474 303.372 118.802C303.252 118.13 303 117.584 302.616 117.164C302.232 116.732 301.662 116.516 300.906 116.516C300.15 116.516 299.58 116.732 299.196 117.164C298.812 117.584 298.554 118.13 298.422 118.802C298.302 119.474 298.242 120.296 298.242 121.268C298.242 122.276 298.302 123.122 298.422 123.806C298.542 124.49 298.794 125.042 299.178 125.462C299.574 125.882 300.15 126.092 300.906 126.092C301.662 126.092 302.232 125.882 302.616 125.462C303.012 125.042 303.27 124.49 303.39 123.806C303.51 123.122 303.57 122.276 303.57 121.268Z" fill="#111212"/>
<path d="M272.004 148.256C272.409 148.32 272.777 148.485 273.108 148.752C273.449 149.019 273.716 149.349 273.908 149.744C274.11 150.139 274.212 150.56 274.212 151.008C274.212 151.573 274.068 152.085 273.78 152.544C273.492 152.992 273.07 153.349 272.516 153.616C271.972 153.872 271.326 154 270.58 154H266.42V142.848H270.42C271.177 142.848 271.822 142.976 272.356 143.232C272.889 143.477 273.289 143.813 273.556 144.24C273.822 144.667 273.956 145.147 273.956 145.68C273.956 146.341 273.774 146.891 273.411 147.328C273.06 147.755 272.59 148.064 272.004 148.256ZM267.876 147.664H270.324C271.006 147.664 271.534 147.504 271.908 147.184C272.281 146.864 272.468 146.421 272.468 145.856C272.468 145.291 272.281 144.848 271.908 144.528C271.534 144.208 270.996 144.048 270.292 144.048H267.876V147.664ZM270.452 152.8C271.177 152.8 271.742 152.629 272.148 152.288C272.553 151.947 272.756 151.472 272.756 150.864C272.756 150.245 272.542 149.76 272.116 149.408C271.689 149.045 271.118 148.864 270.404 148.864H267.876V152.8H270.452ZM282.536 142.848V144.032H277.688V147.792H281.624V148.976H277.688V154H276.232V142.848H282.536ZM289.879 148.256C290.284 148.32 290.652 148.485 290.983 148.752C291.324 149.019 291.591 149.349 291.783 149.744C291.985 150.139 292.087 150.56 292.087 151.008C292.087 151.573 291.943 152.085 291.655 152.544C291.367 152.992 290.945 153.349 290.391 153.616C289.847 153.872 289.201 154 288.455 154H284.295V142.848H288.295C289.052 142.848 289.697 142.976 290.231 143.232C290.764 143.477 291.164 143.813 291.431 144.24C291.697 144.667 291.831 145.147 291.831 145.68C291.831 146.341 291.649 146.891 291.286 147.328C290.935 147.755 290.465 148.064 289.879 148.256ZM285.751 147.664H288.199C288.881 147.664 289.409 147.504 289.783 147.184C290.156 146.864 290.343 146.421 290.343 145.856C290.343 145.291 290.156 144.848 289.783 144.528C289.409 144.208 288.871 144.048 288.167 144.048H285.751V147.664ZM288.327 152.8C289.052 152.8 289.617 152.629 290.023 152.288C290.428 151.947 290.631 151.472 290.631 150.864C290.631 150.245 290.417 149.76 289.991 149.408C289.564 149.045 288.993 148.864 288.279 148.864H285.751V152.8H288.327ZM300.411 142.848V144.032H295.563V147.792H299.499V148.976H295.563V154H294.107V142.848H300.411ZM307.754 148.256C308.159 148.32 308.527 148.485 308.858 148.752C309.199 149.019 309.466 149.349 309.658 149.744C309.86 150.139 309.962 150.56 309.962 151.008C309.962 151.573 309.818 152.085 309.53 152.544C309.242 152.992 308.82 153.349 308.266 153.616C307.722 153.872 307.076 154 306.33 154H302.17V142.848H306.17C306.927 142.848 307.572 142.976 308.106 143.232C308.639 143.477 309.039 143.813 309.306 144.24C309.572 144.667 309.706 145.147 309.706 145.68C309.706 146.341 309.524 146.891 309.161 147.328C308.81 147.755 308.34 148.064 307.754 148.256ZM303.626 147.664H306.074C306.756 147.664 307.284 147.504 307.658 147.184C308.031 146.864 308.218 146.421 308.218 145.856C308.218 145.291 308.031 144.848 307.658 144.528C307.284 144.208 306.746 144.048 306.042 144.048H303.626V147.664ZM306.202 152.8C306.927 152.8 307.492 152.629 307.898 152.288C308.303 151.947 308.506 151.472 308.506 150.864C308.506 150.245 308.292 149.76 307.866 149.408C307.439 149.045 306.868 148.864 306.154 148.864H303.626V152.8H306.202ZM318.286 142.848V144.032H313.438V147.792H317.374V148.976H313.438V154H311.982V142.848H318.286Z" fill="#111212"/>
</g>
<g filter="url(#filter2_dd_468_11894)">
<rect x="412" width="160" height="180" rx="12" fill="#232323"/>
<rect x="412.5" y="0.5" width="159" height="179" rx="11.5" stroke="black" stroke-opacity="0.1"/>
<path d="M465.982 42.6364V26.2727H467.031V42.6364H465.982ZM469.261 31.348C469.193 30.7429 468.912 30.2741 468.418 29.9418C467.923 29.6051 467.301 29.4368 466.551 29.4368C466.014 29.4368 465.55 29.522 465.158 29.6925C464.766 29.8587 464.461 30.0888 464.244 30.3828C464.031 30.6726 463.924 31.0028 463.924 31.3736C463.924 31.6847 463.997 31.9531 464.141 32.179C464.291 32.4048 464.485 32.5945 464.723 32.7479C464.966 32.897 465.226 33.0227 465.503 33.125C465.78 33.223 466.046 33.304 466.302 33.3679L467.58 33.7003C467.998 33.8026 468.426 33.9411 468.865 34.1158C469.304 34.2905 469.711 34.5206 470.086 34.8061C470.461 35.0916 470.764 35.4453 470.994 35.8672C471.228 36.2891 471.345 36.794 471.345 37.3821C471.345 38.1236 471.154 38.782 470.77 39.3572C470.391 39.9325 469.839 40.3864 469.114 40.7188C468.394 41.0511 467.523 41.2173 466.5 41.2173C465.52 41.2173 464.672 41.0618 463.956 40.7507C463.24 40.4396 462.68 39.9986 462.275 39.4276C461.87 38.8523 461.646 38.1705 461.604 37.3821H463.585C463.624 37.8551 463.777 38.2493 464.046 38.5646C464.318 38.8757 464.666 39.108 465.087 39.2614C465.514 39.4105 465.98 39.4851 466.487 39.4851C467.046 39.4851 467.542 39.3977 467.977 39.223C468.416 39.044 468.761 38.7969 469.012 38.4815C469.264 38.1619 469.389 37.7891 469.389 37.3629C469.389 36.9751 469.279 36.6577 469.057 36.4105C468.84 36.1634 468.543 35.9588 468.168 35.7969C467.798 35.6349 467.378 35.4922 466.909 35.3686L465.362 34.9467C464.314 34.6612 463.483 34.2415 462.869 33.6875C462.26 33.1335 461.955 32.4006 461.955 31.4886C461.955 30.7344 462.16 30.076 462.569 29.5135C462.978 28.951 463.532 28.5142 464.231 28.2031C464.93 27.8878 465.718 27.7301 466.596 27.7301C467.482 27.7301 468.264 27.8857 468.942 28.1967C469.624 28.5078 470.161 28.9361 470.553 29.4815C470.945 30.0227 471.149 30.6449 471.166 31.348H469.261ZM477.688 41.1982C476.738 41.1982 475.919 40.983 475.233 40.5526C474.551 40.1179 474.027 39.5192 473.661 38.7564C473.294 37.9936 473.111 37.12 473.111 36.1357C473.111 35.1385 473.299 34.2585 473.674 33.4957C474.049 32.7287 474.577 32.13 475.259 31.6996C475.941 31.2692 476.744 31.054 477.669 31.054C478.414 31.054 479.079 31.1925 479.663 31.4695C480.247 31.7422 480.718 32.1257 481.076 32.62C481.438 33.1143 481.653 33.6918 481.721 34.3523H479.861C479.759 33.892 479.524 33.4957 479.158 33.1634C478.796 32.831 478.31 32.6648 477.701 32.6648C477.168 32.6648 476.701 32.8054 476.301 33.0866C475.904 33.3636 475.595 33.7599 475.374 34.2756C475.152 34.7869 475.042 35.392 475.042 36.0909C475.042 36.8068 475.15 37.4247 475.367 37.9446C475.585 38.4645 475.892 38.8672 476.288 39.1527C476.689 39.4382 477.159 39.581 477.701 39.581C478.063 39.581 478.391 39.5149 478.685 39.3828C478.983 39.2464 479.233 39.0526 479.433 38.8011C479.637 38.5497 479.78 38.2472 479.861 37.8935H481.721C481.653 38.5284 481.446 39.0952 481.101 39.5938C480.756 40.0923 480.294 40.4844 479.714 40.7699C479.139 41.0554 478.463 41.1982 477.688 41.1982ZM487.901 41.1982C486.98 41.1982 486.177 40.9872 485.491 40.5653C484.805 40.1435 484.272 39.5533 483.893 38.7947C483.514 38.0362 483.324 37.1499 483.324 36.1357C483.324 35.1172 483.514 34.2266 483.893 33.4638C484.272 32.701 484.805 32.1087 485.491 31.6868C486.177 31.2649 486.98 31.054 487.901 31.054C488.821 31.054 489.624 31.2649 490.31 31.6868C490.997 32.1087 491.529 32.701 491.909 33.4638C492.288 34.2266 492.477 35.1172 492.477 36.1357C492.477 37.1499 492.288 38.0362 491.909 38.7947C491.529 39.5533 490.997 40.1435 490.31 40.5653C489.624 40.9872 488.821 41.1982 487.901 41.1982ZM487.907 39.5938C488.504 39.5938 488.998 39.4361 489.39 39.1207C489.782 38.8054 490.072 38.3857 490.259 37.8615C490.451 37.3374 490.547 36.7599 490.547 36.1293C490.547 35.5028 490.451 34.9276 490.259 34.4034C490.072 33.875 489.782 33.451 489.39 33.1314C488.998 32.8118 488.504 32.652 487.907 32.652C487.306 32.652 486.808 32.8118 486.411 33.1314C486.019 33.451 485.727 33.875 485.536 34.4034C485.348 34.9276 485.254 35.5028 485.254 36.1293C485.254 36.7599 485.348 37.3374 485.536 37.8615C485.727 38.3857 486.019 38.8054 486.411 39.1207C486.808 39.4361 487.306 39.5938 487.907 39.5938ZM496.522 27.9091V41H494.611V27.9091H496.522ZM503.229 41.1982C502.308 41.1982 501.505 40.9872 500.819 40.5653C500.133 40.1435 499.6 39.5533 499.221 38.7947C498.842 38.0362 498.652 37.1499 498.652 36.1357C498.652 35.1172 498.842 34.2266 499.221 33.4638C499.6 32.701 500.133 32.1087 500.819 31.6868C501.505 31.2649 502.308 31.054 503.229 31.054C504.149 31.054 504.953 31.2649 505.639 31.6868C506.325 32.1087 506.857 32.701 507.237 33.4638C507.616 34.2266 507.806 35.1172 507.806 36.1357C507.806 37.1499 507.616 38.0362 507.237 38.7947C506.857 39.5533 506.325 40.1435 505.639 40.5653C504.953 40.9872 504.149 41.1982 503.229 41.1982ZM503.235 39.5938C503.832 39.5938 504.326 39.4361 504.718 39.1207C505.11 38.8054 505.4 38.3857 505.587 37.8615C505.779 37.3374 505.875 36.7599 505.875 36.1293C505.875 35.5028 505.779 34.9276 505.587 34.4034C505.4 33.875 505.11 33.451 504.718 33.1314C504.326 32.8118 503.832 32.652 503.235 32.652C502.634 32.652 502.136 32.8118 501.739 33.1314C501.347 33.451 501.056 33.875 500.864 34.4034C500.676 34.9276 500.583 35.5028 500.583 36.1293C500.583 36.7599 500.676 37.3374 500.864 37.8615C501.056 38.3857 501.347 38.8054 501.739 39.1207C502.136 39.4361 502.634 39.5938 503.235 39.5938ZM509.939 41V31.1818H511.786V32.7415H511.888C512.067 32.2131 512.383 31.7976 512.834 31.495C513.29 31.1882 513.806 31.0348 514.381 31.0348C514.501 31.0348 514.641 31.0391 514.803 31.0476C514.969 31.0561 515.099 31.0668 515.193 31.0795V32.9077C515.116 32.8864 514.98 32.8629 514.784 32.8374C514.588 32.8075 514.392 32.7926 514.196 32.7926C513.744 32.7926 513.342 32.8885 512.988 33.0803C512.638 33.2678 512.361 33.5298 512.157 33.8665C511.952 34.1989 511.85 34.5781 511.85 35.0043V41H509.939ZM522.052 34.6399V36.2955H516.248V34.6399H522.052ZM444.016 63.1705V69H442.105V59.1818H443.939V60.7798H444.061C444.287 60.2599 444.64 59.8423 445.122 59.527C445.608 59.2116 446.219 59.054 446.956 59.054C447.625 59.054 448.211 59.1946 448.714 59.4759C449.217 59.7528 449.607 60.1662 449.884 60.7159C450.161 61.2656 450.299 61.9453 450.299 62.755V69H448.388V62.9851C448.388 62.2734 448.203 61.7173 447.832 61.3168C447.461 60.9119 446.952 60.7095 446.304 60.7095C445.861 60.7095 445.467 60.8054 445.122 60.9972C444.781 61.1889 444.51 61.4702 444.31 61.8409C444.114 62.2074 444.016 62.6506 444.016 63.1705ZM457.094 69.1982C456.127 69.1982 455.294 68.9915 454.595 68.5781C453.9 68.1605 453.363 67.5746 452.984 66.8203C452.609 66.0618 452.422 65.1733 452.422 64.1548C452.422 63.1491 452.609 62.2628 452.984 61.4957C453.363 60.7287 453.892 60.13 454.569 59.6996C455.251 59.2692 456.048 59.054 456.96 59.054C457.514 59.054 458.051 59.1456 458.571 59.3288C459.091 59.5121 459.557 59.7997 459.971 60.1918C460.384 60.5838 460.71 61.093 460.949 61.7195C461.187 62.3416 461.307 63.098 461.307 63.9886V64.6662H453.502V63.2344H459.434C459.434 62.7315 459.331 62.2862 459.127 61.8984C458.922 61.5064 458.635 61.1974 458.264 60.9716C457.898 60.7457 457.467 60.6328 456.973 60.6328C456.436 60.6328 455.967 60.7649 455.567 61.0291C455.17 61.2891 454.863 61.63 454.646 62.0518C454.433 62.4695 454.326 62.9233 454.326 63.4134V64.532C454.326 65.1882 454.442 65.7464 454.672 66.2067C454.906 66.6669 455.232 67.0185 455.65 67.2614C456.067 67.5 456.555 67.6193 457.113 67.6193C457.476 67.6193 457.806 67.5682 458.104 67.4659C458.402 67.3594 458.66 67.2017 458.878 66.9929C459.095 66.7841 459.261 66.5263 459.376 66.2195L461.185 66.5455C461.04 67.0781 460.78 67.5447 460.405 67.9453C460.035 68.3416 459.568 68.6506 459.005 68.8722C458.447 69.0895 457.81 69.1982 457.094 69.1982ZM469.647 64.9283V59.1818H471.564V69H469.685V67.2997H469.583C469.357 67.8239 468.995 68.2607 468.496 68.6101C468.002 68.9553 467.386 69.1278 466.649 69.1278C466.018 69.1278 465.46 68.9893 464.974 68.7124C464.492 68.4311 464.113 68.0156 463.836 67.4659C463.564 66.9162 463.427 66.2365 463.427 65.4268V59.1818H465.338V65.1967C465.338 65.8658 465.524 66.3984 465.894 66.7947C466.265 67.1911 466.747 67.3892 467.339 67.3892C467.697 67.3892 468.053 67.2997 468.407 67.1207C468.765 66.9418 469.061 66.6712 469.295 66.3089C469.534 65.9467 469.651 65.4865 469.647 64.9283ZM478.715 59.1818V60.7159H473.352V59.1818H478.715ZM474.791 56.8295H476.702V66.1172C476.702 66.4879 476.757 66.767 476.868 66.9545C476.979 67.1378 477.122 67.2635 477.296 67.3317C477.475 67.3956 477.669 67.4276 477.878 67.4276C478.031 67.4276 478.166 67.4169 478.281 67.3956C478.396 67.3743 478.485 67.3572 478.549 67.3445L478.894 68.9233C478.784 68.9659 478.626 69.0085 478.421 69.0511C478.217 69.098 477.961 69.1236 477.654 69.1278C477.151 69.1364 476.683 69.0469 476.248 68.8594C475.813 68.6719 475.462 68.3821 475.193 67.9901C474.925 67.598 474.791 67.1058 474.791 66.5135V56.8295ZM480.829 69V59.1818H482.677V60.7415H482.779C482.958 60.2131 483.273 59.7976 483.725 59.495C484.181 59.1882 484.697 59.0348 485.272 59.0348C485.391 59.0348 485.532 59.0391 485.694 59.0476C485.86 59.0561 485.99 59.0668 486.084 59.0795V60.9077C486.007 60.8864 485.871 60.8629 485.675 60.8374C485.479 60.8075 485.283 60.7926 485.087 60.7926C484.635 60.7926 484.232 60.8885 483.879 61.0803C483.529 61.2678 483.252 61.5298 483.048 61.8665C482.843 62.1989 482.741 62.5781 482.741 63.0043V69H480.829ZM490.507 69.2173C489.885 69.2173 489.322 69.1023 488.82 68.8722C488.317 68.6378 487.918 68.299 487.624 67.8558C487.334 67.4126 487.19 66.8693 487.19 66.2259C487.19 65.6719 487.296 65.2159 487.509 64.858C487.722 64.5 488.01 64.2166 488.372 64.0078C488.734 63.799 489.139 63.6413 489.587 63.5348C490.034 63.4283 490.49 63.3473 490.954 63.2919C491.543 63.2237 492.02 63.1683 492.386 63.1257C492.753 63.0788 493.019 63.0043 493.185 62.902C493.352 62.7997 493.435 62.6335 493.435 62.4034V62.3587C493.435 61.8004 493.277 61.3679 492.962 61.0611C492.651 60.7543 492.186 60.6009 491.568 60.6009C490.925 60.6009 490.418 60.7436 490.047 61.0291C489.68 61.3104 489.427 61.6236 489.286 61.9688L487.49 61.5597C487.703 60.9631 488.014 60.4815 488.423 60.1151C488.837 59.7443 489.312 59.4759 489.849 59.3097C490.386 59.1392 490.95 59.054 491.543 59.054C491.935 59.054 492.35 59.1009 492.789 59.1946C493.232 59.2841 493.646 59.4503 494.029 59.6932C494.417 59.9361 494.734 60.2834 494.981 60.7351C495.229 61.1825 495.352 61.7642 495.352 62.4801V69H493.486V67.6577H493.409C493.285 67.9048 493.1 68.1477 492.853 68.3864C492.606 68.625 492.288 68.8232 491.901 68.9808C491.513 69.1385 491.048 69.2173 490.507 69.2173ZM490.923 67.6832C491.451 67.6832 491.903 67.5788 492.278 67.37C492.657 67.1612 492.945 66.8885 493.141 66.5518C493.341 66.2109 493.441 65.8466 493.441 65.4588V64.1932C493.373 64.2614 493.241 64.3253 493.045 64.3849C492.853 64.4403 492.633 64.4893 492.386 64.532C492.139 64.5703 491.898 64.6065 491.664 64.6406C491.43 64.6705 491.234 64.696 491.076 64.7173C490.705 64.7642 490.366 64.843 490.06 64.9538C489.757 65.0646 489.514 65.2244 489.331 65.4332C489.152 65.6378 489.062 65.9105 489.062 66.2514C489.062 66.7244 489.237 67.0824 489.587 67.3253C489.936 67.5639 490.381 67.6832 490.923 67.6832ZM499.809 55.9091V69H497.898V55.9091H499.809ZM508.165 62.6399V64.2955H502.361V62.6399H508.165ZM510.159 69V67.5682L514.589 62.9787C515.062 62.4801 515.452 62.0433 515.759 61.6683C516.07 61.2891 516.302 60.929 516.456 60.5881C516.609 60.2472 516.686 59.8849 516.686 59.5014C516.686 59.0668 516.583 58.6918 516.379 58.3764C516.174 58.0568 515.895 57.8118 515.541 57.6413C515.188 57.4666 514.789 57.3793 514.346 57.3793C513.877 57.3793 513.468 57.4751 513.119 57.6669C512.769 57.8587 512.501 58.1293 512.314 58.4787C512.126 58.8281 512.032 59.2372 512.032 59.706H510.147C510.147 58.9091 510.33 58.2124 510.696 57.6158C511.063 57.0192 511.566 56.5568 512.205 56.2287C512.844 55.8963 513.571 55.7301 514.385 55.7301C515.207 55.7301 515.931 55.8942 516.558 56.2223C517.189 56.5462 517.681 56.9893 518.034 57.5518C518.388 58.1101 518.565 58.7408 518.565 59.4439C518.565 59.9297 518.473 60.4048 518.29 60.8693C518.111 61.3338 517.798 61.8516 517.35 62.4226C516.903 62.9893 516.281 63.6776 515.484 64.4872L512.882 67.2102V67.3061H518.776V69H510.159ZM525.756 69.2173C524.746 69.2131 523.883 68.9467 523.167 68.4183C522.451 67.8899 521.904 67.1207 521.524 66.1108C521.145 65.1009 520.956 63.8842 520.956 62.4609C520.956 61.0419 521.145 59.8295 521.524 58.8239C521.908 57.8182 522.458 57.0511 523.174 56.5227C523.894 55.9943 524.755 55.7301 525.756 55.7301C526.757 55.7301 527.616 55.9964 528.332 56.5291C529.048 57.0575 529.595 57.8246 529.975 58.8303C530.358 59.8317 530.55 61.0419 530.55 62.4609C530.55 63.8885 530.36 65.1072 529.981 66.1172C529.602 67.1229 529.054 67.892 528.338 68.4247C527.622 68.9531 526.762 69.2173 525.756 69.2173ZM525.756 67.5107C526.642 67.5107 527.335 67.0781 527.833 66.2131C528.336 65.348 528.588 64.0973 528.588 62.4609C528.588 61.3743 528.473 60.456 528.242 59.706C528.017 58.9517 527.691 58.3807 527.265 57.9929C526.843 57.6009 526.34 57.4048 525.756 57.4048C524.874 57.4048 524.181 57.8395 523.679 58.7088C523.176 59.5781 522.922 60.8288 522.918 62.4609C522.918 63.5518 523.031 64.4744 523.257 65.2287C523.487 65.9787 523.813 66.5476 524.235 66.9354C524.657 67.3189 525.164 67.5107 525.756 67.5107ZM537.375 69.2173C536.365 69.2131 535.502 68.9467 534.786 68.4183C534.07 67.8899 533.523 67.1207 533.144 66.1108C532.764 65.1009 532.575 63.8842 532.575 62.4609C532.575 61.0419 532.764 59.8295 533.144 58.8239C533.527 57.8182 534.077 57.0511 534.793 56.5227C535.513 55.9943 536.374 55.7301 537.375 55.7301C538.377 55.7301 539.235 55.9964 539.951 56.5291C540.667 57.0575 541.215 57.8246 541.594 58.8303C541.977 59.8317 542.169 61.0419 542.169 62.4609C542.169 63.8885 541.98 65.1072 541.6 66.1172C541.221 67.1229 540.673 67.892 539.958 68.4247C539.242 68.9531 538.381 69.2173 537.375 69.2173ZM537.375 67.5107C538.261 67.5107 538.954 67.0781 539.453 66.2131C539.955 65.348 540.207 64.0973 540.207 62.4609C540.207 61.3743 540.092 60.456 539.862 59.706C539.636 58.9517 539.31 58.3807 538.884 57.9929C538.462 57.6009 537.959 57.4048 537.375 57.4048C536.493 57.4048 535.801 57.8395 535.298 58.7088C534.795 59.5781 534.541 60.8288 534.537 62.4609C534.537 63.5518 534.65 64.4744 534.876 65.2287C535.106 65.9787 535.432 66.5476 535.854 66.9354C536.276 67.3189 536.783 67.5107 537.375 67.5107Z" fill="white"/>
<path d="M412 92H572" stroke="black" stroke-opacity="0.1"/>
<path d="M477.488 125.21C478.64 124.214 479.546 123.398 480.206 122.762C480.878 122.114 481.436 121.442 481.88 120.746C482.324 120.05 482.546 119.354 482.546 118.658C482.546 117.938 482.372 117.374 482.024 116.966C481.688 116.558 481.154 116.354 480.422 116.354C479.714 116.354 479.162 116.582 478.766 117.038C478.382 117.482 478.178 118.082 478.154 118.838H476.174C476.21 117.47 476.618 116.426 477.398 115.706C478.19 114.974 479.192 114.608 480.404 114.608C481.712 114.608 482.732 114.968 483.464 115.688C484.208 116.408 484.58 117.368 484.58 118.568C484.58 119.432 484.358 120.266 483.914 121.07C483.482 121.862 482.96 122.576 482.348 123.212C481.748 123.836 480.98 124.562 480.044 125.39L479.234 126.11H484.94V127.82H476.192V126.326L477.488 125.21ZM486.743 121.268C486.743 119.192 487.091 117.572 487.787 116.408C488.495 115.232 489.707 114.644 491.423 114.644C493.139 114.644 494.345 115.232 495.041 116.408C495.749 117.572 496.103 119.192 496.103 121.268C496.103 123.368 495.749 125.012 495.041 126.2C494.345 127.376 493.139 127.964 491.423 127.964C489.707 127.964 488.495 127.376 487.787 126.2C487.091 125.012 486.743 123.368 486.743 121.268ZM494.087 121.268C494.087 120.296 494.021 119.474 493.889 118.802C493.769 118.13 493.517 117.584 493.133 117.164C492.749 116.732 492.179 116.516 491.423 116.516C490.667 116.516 490.097 116.732 489.713 117.164C489.329 117.584 489.071 118.13 488.939 118.802C488.819 119.474 488.759 120.296 488.759 121.268C488.759 122.276 488.819 123.122 488.939 123.806C489.059 124.49 489.311 125.042 489.695 125.462C490.091 125.882 490.667 126.092 491.423 126.092C492.179 126.092 492.749 125.882 493.133 125.462C493.529 125.042 493.787 124.49 493.907 123.806C494.027 123.122 494.087 122.276 494.087 121.268ZM498.274 121.268C498.274 119.192 498.622 117.572 499.318 116.408C500.026 115.232 501.238 114.644 502.954 114.644C504.67 114.644 505.876 115.232 506.572 116.408C507.28 117.572 507.634 119.192 507.634 121.268C507.634 123.368 507.28 125.012 506.572 126.2C505.876 127.376 504.67 127.964 502.954 127.964C501.238 127.964 500.026 127.376 499.318 126.2C498.622 125.012 498.274 123.368 498.274 121.268ZM505.618 121.268C505.618 120.296 505.552 119.474 505.42 118.802C505.3 118.13 505.048 117.584 504.664 117.164C504.28 116.732 503.71 116.516 502.954 116.516C502.198 116.516 501.628 116.732 501.244 117.164C500.86 117.584 500.602 118.13 500.47 118.802C500.35 119.474 500.29 120.296 500.29 121.268C500.29 122.276 500.35 123.122 500.47 123.806C500.59 124.49 500.842 125.042 501.226 125.462C501.622 125.882 502.198 126.092 502.954 126.092C503.71 126.092 504.28 125.882 504.664 125.462C505.06 125.042 505.318 124.49 505.438 123.806C505.558 123.122 505.618 122.276 505.618 121.268Z" fill="white"/>
<path d="M464.879 152.832C466.233 151.744 467.295 150.853 468.062 150.16C468.831 149.456 469.476 148.725 469.999 147.968C470.532 147.2 470.799 146.448 470.799 145.712C470.799 145.019 470.628 144.475 470.287 144.08C469.956 143.675 469.417 143.472 468.671 143.472C467.945 143.472 467.38 143.701 466.975 144.16C466.58 144.608 466.367 145.211 466.335 145.968H464.927C464.969 144.773 465.332 143.851 466.015 143.2C466.697 142.549 467.577 142.224 468.655 142.224C469.753 142.224 470.623 142.528 471.263 143.136C471.913 143.744 472.239 144.581 472.239 145.648C472.239 146.533 471.972 147.397 471.439 148.24C470.916 149.072 470.319 149.808 469.647 150.448C468.975 151.077 468.116 151.813 467.071 152.656H472.575V153.872H464.879V152.832ZM474.226 145.344C474.3 144.363 474.679 143.595 475.362 143.04C476.044 142.485 476.93 142.208 478.018 142.208C478.743 142.208 479.367 142.341 479.89 142.608C480.423 142.864 480.823 143.216 481.09 143.664C481.367 144.112 481.506 144.619 481.506 145.184C481.506 145.845 481.314 146.416 480.93 146.896C480.556 147.376 480.066 147.685 479.458 147.824V147.904C480.151 148.075 480.7 148.411 481.106 148.912C481.511 149.413 481.714 150.069 481.714 150.88C481.714 151.488 481.575 152.037 481.298 152.528C481.02 153.008 480.604 153.387 480.05 153.664C479.495 153.941 478.828 154.08 478.05 154.08C476.919 154.08 475.991 153.787 475.266 153.2C474.54 152.603 474.135 151.76 474.05 150.672H475.458C475.532 151.312 475.794 151.835 476.242 152.24C476.69 152.645 477.287 152.848 478.034 152.848C478.78 152.848 479.346 152.656 479.73 152.272C480.124 151.877 480.322 151.371 480.322 150.752C480.322 149.952 480.055 149.376 479.522 149.024C478.988 148.672 478.183 148.496 477.106 148.496H476.738V147.28H477.122C478.103 147.269 478.844 147.109 479.346 146.8C479.847 146.48 480.098 145.989 480.098 145.328C480.098 144.763 479.911 144.309 479.538 143.968C479.175 143.627 478.652 143.456 477.97 143.456C477.308 143.456 476.775 143.627 476.37 143.968C475.964 144.309 475.724 144.768 475.65 145.344H474.226ZM483.504 152.832C484.858 151.744 485.92 150.853 486.688 150.16C487.456 149.456 488.101 148.725 488.624 147.968C489.157 147.2 489.424 146.448 489.424 145.712C489.424 145.019 489.253 144.475 488.912 144.08C488.581 143.675 488.042 143.472 487.296 143.472C486.57 143.472 486.005 143.701 485.6 144.16C485.205 144.608 484.992 145.211 484.96 145.968H483.552C483.594 144.773 483.957 143.851 484.64 143.2C485.322 142.549 486.202 142.224 487.28 142.224C488.378 142.224 489.248 142.528 489.888 143.136C490.538 143.744 490.864 144.581 490.864 145.648C490.864 146.533 490.597 147.397 490.064 148.24C489.541 149.072 488.944 149.808 488.272 150.448C487.6 151.077 486.741 151.813 485.696 152.656H491.2V153.872H483.504V152.832ZM492.851 145.344C492.925 144.363 493.304 143.595 493.987 143.04C494.669 142.485 495.555 142.208 496.643 142.208C497.368 142.208 497.992 142.341 498.515 142.608C499.048 142.864 499.448 143.216 499.715 143.664C499.992 144.112 500.131 144.619 500.131 145.184C500.131 145.845 499.939 146.416 499.555 146.896C499.181 147.376 498.691 147.685 498.083 147.824V147.904C498.776 148.075 499.325 148.411 499.731 148.912C500.136 149.413 500.339 150.069 500.339 150.88C500.339 151.488 500.2 152.037 499.923 152.528C499.645 153.008 499.229 153.387 498.675 153.664C498.12 153.941 497.453 154.08 496.675 154.08C495.544 154.08 494.616 153.787 493.891 153.2C493.165 152.603 492.76 151.76 492.675 150.672H494.083C494.157 151.312 494.419 151.835 494.867 152.24C495.315 152.645 495.912 152.848 496.659 152.848C497.405 152.848 497.971 152.656 498.355 152.272C498.749 151.877 498.947 151.371 498.947 150.752C498.947 149.952 498.68 149.376 498.147 149.024C497.613 148.672 496.808 148.496 495.731 148.496H495.363V147.28H495.747C496.728 147.269 497.469 147.109 497.971 146.8C498.472 146.48 498.723 145.989 498.723 145.328C498.723 144.763 498.536 144.309 498.163 143.968C497.8 143.627 497.277 143.456 496.595 143.456C495.933 143.456 495.4 143.627 494.995 143.968C494.589 144.309 494.349 144.768 494.275 145.344H492.851ZM502.129 152.832C503.483 151.744 504.545 150.853 505.312 150.16C506.081 149.456 506.726 148.725 507.249 147.968C507.782 147.2 508.049 146.448 508.049 145.712C508.049 145.019 507.878 144.475 507.537 144.08C507.206 143.675 506.667 143.472 505.921 143.472C505.195 143.472 504.63 143.701 504.225 144.16C503.83 144.608 503.617 145.211 503.585 145.968H502.177C502.219 144.773 502.582 143.851 503.265 143.2C503.947 142.549 504.827 142.224 505.905 142.224C507.003 142.224 507.873 142.528 508.513 143.136C509.163 143.744 509.489 144.581 509.489 145.648C509.489 146.533 509.222 147.397 508.689 148.24C508.166 149.072 507.569 149.808 506.897 150.448C506.225 151.077 505.366 151.813 504.321 152.656H509.825V153.872H502.129V152.832ZM511.476 145.344C511.55 144.363 511.929 143.595 512.612 143.04C513.294 142.485 514.18 142.208 515.268 142.208C515.993 142.208 516.617 142.341 517.14 142.608C517.673 142.864 518.073 143.216 518.34 143.664C518.617 144.112 518.756 144.619 518.756 145.184C518.756 145.845 518.564 146.416 518.18 146.896C517.806 147.376 517.316 147.685 516.708 147.824V147.904C517.401 148.075 517.95 148.411 518.356 148.912C518.761 149.413 518.964 150.069 518.964 150.88C518.964 151.488 518.825 152.037 518.548 152.528C518.27 153.008 517.854 153.387 517.3 153.664C516.745 153.941 516.078 154.08 515.3 154.08C514.169 154.08 513.241 153.787 512.516 153.2C511.79 152.603 511.385 151.76 511.3 150.672H512.708C512.782 151.312 513.044 151.835 513.492 152.24C513.94 152.645 514.537 152.848 515.284 152.848C516.03 152.848 516.596 152.656 516.98 152.272C517.374 151.877 517.572 151.371 517.572 150.752C517.572 149.952 517.305 149.376 516.772 149.024C516.238 148.672 515.433 148.496 514.356 148.496H513.988V147.28H514.372C515.353 147.269 516.094 147.109 516.596 146.8C517.097 146.48 517.348 145.989 517.348 145.328C517.348 144.763 517.161 144.309 516.788 143.968C516.425 143.627 515.902 143.456 515.22 143.456C514.558 143.456 514.025 143.627 513.62 143.968C513.214 144.309 512.974 144.768 512.9 145.344H511.476Z" fill="white"/>
</g>
<g filter="url(#filter3_dd_468_11894)">
<rect x="612" width="160" height="180" rx="12" fill="#101010"/>
<rect x="612.5" y="0.5" width="159" height="179" rx="11.5" stroke="black" stroke-opacity="0.1"/>
<path d="M665.982 42.6364V26.2727H667.031V42.6364H665.982ZM669.261 31.348C669.193 30.7429 668.912 30.2741 668.418 29.9418C667.923 29.6051 667.301 29.4368 666.551 29.4368C666.014 29.4368 665.55 29.522 665.158 29.6925C664.766 29.8587 664.461 30.0888 664.244 30.3828C664.031 30.6726 663.924 31.0028 663.924 31.3736C663.924 31.6847 663.997 31.9531 664.141 32.179C664.291 32.4048 664.485 32.5945 664.723 32.7479C664.966 32.897 665.226 33.0227 665.503 33.125C665.78 33.223 666.046 33.304 666.302 33.3679L667.58 33.7003C667.998 33.8026 668.426 33.9411 668.865 34.1158C669.304 34.2905 669.711 34.5206 670.086 34.8061C670.461 35.0916 670.764 35.4453 670.994 35.8672C671.228 36.2891 671.345 36.794 671.345 37.3821C671.345 38.1236 671.154 38.782 670.77 39.3572C670.391 39.9325 669.839 40.3864 669.114 40.7188C668.394 41.0511 667.523 41.2173 666.5 41.2173C665.52 41.2173 664.672 41.0618 663.956 40.7507C663.24 40.4396 662.68 39.9986 662.275 39.4276C661.87 38.8523 661.646 38.1705 661.604 37.3821H663.585C663.624 37.8551 663.777 38.2493 664.046 38.5646C664.318 38.8757 664.666 39.108 665.087 39.2614C665.514 39.4105 665.98 39.4851 666.487 39.4851C667.046 39.4851 667.542 39.3977 667.977 39.223C668.416 39.044 668.761 38.7969 669.012 38.4815C669.264 38.1619 669.389 37.7891 669.389 37.3629C669.389 36.9751 669.279 36.6577 669.057 36.4105C668.84 36.1634 668.543 35.9588 668.168 35.7969C667.798 35.6349 667.378 35.4922 666.909 35.3686L665.362 34.9467C664.314 34.6612 663.483 34.2415 662.869 33.6875C662.26 33.1335 661.955 32.4006 661.955 31.4886C661.955 30.7344 662.16 30.076 662.569 29.5135C662.978 28.951 663.532 28.5142 664.231 28.2031C664.93 27.8878 665.718 27.7301 666.596 27.7301C667.482 27.7301 668.264 27.8857 668.942 28.1967C669.624 28.5078 670.161 28.9361 670.553 29.4815C670.945 30.0227 671.149 30.6449 671.166 31.348H669.261ZM677.688 41.1982C676.738 41.1982 675.919 40.983 675.233 40.5526C674.551 40.1179 674.027 39.5192 673.661 38.7564C673.294 37.9936 673.111 37.12 673.111 36.1357C673.111 35.1385 673.299 34.2585 673.674 33.4957C674.049 32.7287 674.577 32.13 675.259 31.6996C675.941 31.2692 676.744 31.054 677.669 31.054C678.414 31.054 679.079 31.1925 679.663 31.4695C680.247 31.7422 680.718 32.1257 681.076 32.62C681.438 33.1143 681.653 33.6918 681.721 34.3523H679.861C679.759 33.892 679.524 33.4957 679.158 33.1634C678.796 32.831 678.31 32.6648 677.701 32.6648C677.168 32.6648 676.701 32.8054 676.301 33.0866C675.904 33.3636 675.595 33.7599 675.374 34.2756C675.152 34.7869 675.042 35.392 675.042 36.0909C675.042 36.8068 675.15 37.4247 675.367 37.9446C675.585 38.4645 675.892 38.8672 676.288 39.1527C676.689 39.4382 677.159 39.581 677.701 39.581C678.063 39.581 678.391 39.5149 678.685 39.3828C678.983 39.2464 679.233 39.0526 679.433 38.8011C679.637 38.5497 679.78 38.2472 679.861 37.8935H681.721C681.653 38.5284 681.446 39.0952 681.101 39.5938C680.756 40.0923 680.294 40.4844 679.714 40.7699C679.139 41.0554 678.463 41.1982 677.688 41.1982ZM687.901 41.1982C686.98 41.1982 686.177 40.9872 685.491 40.5653C684.805 40.1435 684.272 39.5533 683.893 38.7947C683.514 38.0362 683.324 37.1499 683.324 36.1357C683.324 35.1172 683.514 34.2266 683.893 33.4638C684.272 32.701 684.805 32.1087 685.491 31.6868C686.177 31.2649 686.98 31.054 687.901 31.054C688.821 31.054 689.624 31.2649 690.31 31.6868C690.997 32.1087 691.529 32.701 691.909 33.4638C692.288 34.2266 692.477 35.1172 692.477 36.1357C692.477 37.1499 692.288 38.0362 691.909 38.7947C691.529 39.5533 690.997 40.1435 690.31 40.5653C689.624 40.9872 688.821 41.1982 687.901 41.1982ZM687.907 39.5938C688.504 39.5938 688.998 39.4361 689.39 39.1207C689.782 38.8054 690.072 38.3857 690.259 37.8615C690.451 37.3374 690.547 36.7599 690.547 36.1293C690.547 35.5028 690.451 34.9276 690.259 34.4034C690.072 33.875 689.782 33.451 689.39 33.1314C688.998 32.8118 688.504 32.652 687.907 32.652C687.306 32.652 686.808 32.8118 686.411 33.1314C686.019 33.451 685.727 33.875 685.536 34.4034C685.348 34.9276 685.254 35.5028 685.254 36.1293C685.254 36.7599 685.348 37.3374 685.536 37.8615C685.727 38.3857 686.019 38.8054 686.411 39.1207C686.808 39.4361 687.306 39.5938 687.907 39.5938ZM696.522 27.9091V41H694.611V27.9091H696.522ZM703.229 41.1982C702.308 41.1982 701.505 40.9872 700.819 40.5653C700.133 40.1435 699.6 39.5533 699.221 38.7947C698.842 38.0362 698.652 37.1499 698.652 36.1357C698.652 35.1172 698.842 34.2266 699.221 33.4638C699.6 32.701 700.133 32.1087 700.819 31.6868C701.505 31.2649 702.308 31.054 703.229 31.054C704.149 31.054 704.953 31.2649 705.639 31.6868C706.325 32.1087 706.857 32.701 707.237 33.4638C707.616 34.2266 707.806 35.1172 707.806 36.1357C707.806 37.1499 707.616 38.0362 707.237 38.7947C706.857 39.5533 706.325 40.1435 705.639 40.5653C704.953 40.9872 704.149 41.1982 703.229 41.1982ZM703.235 39.5938C703.832 39.5938 704.326 39.4361 704.718 39.1207C705.11 38.8054 705.4 38.3857 705.587 37.8615C705.779 37.3374 705.875 36.7599 705.875 36.1293C705.875 35.5028 705.779 34.9276 705.587 34.4034C705.4 33.875 705.11 33.451 704.718 33.1314C704.326 32.8118 703.832 32.652 703.235 32.652C702.634 32.652 702.136 32.8118 701.739 33.1314C701.347 33.451 701.056 33.875 700.864 34.4034C700.676 34.9276 700.583 35.5028 700.583 36.1293C700.583 36.7599 700.676 37.3374 700.864 37.8615C701.056 38.3857 701.347 38.8054 701.739 39.1207C702.136 39.4361 702.634 39.5938 703.235 39.5938ZM709.939 41V31.1818H711.786V32.7415H711.888C712.067 32.2131 712.383 31.7976 712.834 31.495C713.29 31.1882 713.806 31.0348 714.381 31.0348C714.501 31.0348 714.641 31.0391 714.803 31.0476C714.969 31.0561 715.099 31.0668 715.193 31.0795V32.9077C715.116 32.8864 714.98 32.8629 714.784 32.8374C714.588 32.8075 714.392 32.7926 714.196 32.7926C713.744 32.7926 713.342 32.8885 712.988 33.0803C712.638 33.2678 712.361 33.5298 712.157 33.8665C711.952 34.1989 711.85 34.5781 711.85 35.0043V41H709.939ZM722.052 34.6399V36.2955H716.248V34.6399H722.052ZM643.559 63.1705V69H641.648V59.1818H643.482V60.7798H643.604C643.83 60.2599 644.183 59.8423 644.665 59.527C645.151 59.2116 645.762 59.054 646.499 59.054C647.168 59.054 647.754 59.1946 648.257 59.4759C648.76 59.7528 649.15 60.1662 649.427 60.7159C649.704 61.2656 649.842 61.9453 649.842 62.755V69H647.931V62.9851C647.931 62.2734 647.746 61.7173 647.375 61.3168C647.004 60.9119 646.495 60.7095 645.847 60.7095C645.404 60.7095 645.01 60.8054 644.665 60.9972C644.324 61.1889 644.053 61.4702 643.853 61.8409C643.657 62.2074 643.559 62.6506 643.559 63.1705ZM656.637 69.1982C655.67 69.1982 654.837 68.9915 654.138 68.5781C653.443 68.1605 652.906 67.5746 652.527 66.8203C652.152 66.0618 651.965 65.1733 651.965 64.1548C651.965 63.1491 652.152 62.2628 652.527 61.4957C652.906 60.7287 653.435 60.13 654.112 59.6996C654.794 59.2692 655.591 59.054 656.503 59.054C657.057 59.054 657.594 59.1456 658.114 59.3288C658.634 59.5121 659.1 59.7997 659.514 60.1918C659.927 60.5838 660.253 61.093 660.492 61.7195C660.73 62.3416 660.85 63.098 660.85 63.9886V64.6662H653.045V63.2344H658.977C658.977 62.7315 658.874 62.2862 658.67 61.8984C658.465 61.5064 658.178 61.1974 657.807 60.9716C657.44 60.7457 657.01 60.6328 656.516 60.6328C655.979 60.6328 655.51 60.7649 655.11 61.0291C654.713 61.2891 654.406 61.63 654.189 62.0518C653.976 62.4695 653.869 62.9233 653.869 63.4134V64.532C653.869 65.1882 653.985 65.7464 654.215 66.2067C654.449 66.6669 654.775 67.0185 655.193 67.2614C655.61 67.5 656.098 67.6193 656.656 67.6193C657.019 67.6193 657.349 67.5682 657.647 67.4659C657.945 67.3594 658.203 67.2017 658.421 66.9929C658.638 66.7841 658.804 66.5263 658.919 66.2195L660.728 66.5455C660.583 67.0781 660.323 67.5447 659.948 67.9453C659.578 68.3416 659.111 68.6506 658.548 68.8722C657.99 69.0895 657.353 69.1982 656.637 69.1982ZM669.19 64.9283V59.1818H671.107V69H669.228V67.2997H669.126C668.9 67.8239 668.538 68.2607 668.039 68.6101C667.545 68.9553 666.929 69.1278 666.192 69.1278C665.561 69.1278 665.003 68.9893 664.517 68.7124C664.035 68.4311 663.656 68.0156 663.379 67.4659C663.106 66.9162 662.97 66.2365 662.97 65.4268V59.1818H664.881V65.1967C664.881 65.8658 665.067 66.3984 665.437 66.7947C665.808 67.1911 666.29 67.3892 666.882 67.3892C667.24 67.3892 667.596 67.2997 667.95 67.1207C668.307 66.9418 668.604 66.6712 668.838 66.3089C669.077 65.9467 669.194 65.4865 669.19 64.9283ZM678.258 59.1818V60.7159H672.895V59.1818H678.258ZM674.334 56.8295H676.245V66.1172C676.245 66.4879 676.3 66.767 676.411 66.9545C676.522 67.1378 676.665 67.2635 676.839 67.3317C677.018 67.3956 677.212 67.4276 677.421 67.4276C677.574 67.4276 677.709 67.4169 677.824 67.3956C677.939 67.3743 678.028 67.3572 678.092 67.3445L678.437 68.9233C678.326 68.9659 678.169 69.0085 677.964 69.0511C677.76 69.098 677.504 69.1236 677.197 69.1278C676.694 69.1364 676.226 69.0469 675.791 68.8594C675.356 68.6719 675.005 68.3821 674.736 67.9901C674.468 67.598 674.334 67.1058 674.334 66.5135V56.8295ZM680.372 69V59.1818H682.22V60.7415H682.322C682.501 60.2131 682.816 59.7976 683.268 59.495C683.724 59.1882 684.24 59.0348 684.815 59.0348C684.934 59.0348 685.075 59.0391 685.237 59.0476C685.403 59.0561 685.533 59.0668 685.627 59.0795V60.9077C685.55 60.8864 685.414 60.8629 685.218 60.8374C685.022 60.8075 684.826 60.7926 684.63 60.7926C684.178 60.7926 683.775 60.8885 683.421 61.0803C683.072 61.2678 682.795 61.5298 682.591 61.8665C682.386 62.1989 682.284 62.5781 682.284 63.0043V69H680.372ZM690.05 69.2173C689.428 69.2173 688.865 69.1023 688.363 68.8722C687.86 68.6378 687.461 68.299 687.167 67.8558C686.877 67.4126 686.733 66.8693 686.733 66.2259C686.733 65.6719 686.839 65.2159 687.052 64.858C687.265 64.5 687.553 64.2166 687.915 64.0078C688.277 63.799 688.682 63.6413 689.13 63.5348C689.577 63.4283 690.033 63.3473 690.497 63.2919C691.086 63.2237 691.563 63.1683 691.929 63.1257C692.296 63.0788 692.562 63.0043 692.728 62.902C692.894 62.7997 692.978 62.6335 692.978 62.4034V62.3587C692.978 61.8004 692.82 61.3679 692.505 61.0611C692.193 60.7543 691.729 60.6009 691.111 60.6009C690.468 60.6009 689.961 60.7436 689.59 61.0291C689.223 61.3104 688.97 61.6236 688.829 61.9688L687.033 61.5597C687.246 60.9631 687.557 60.4815 687.966 60.1151C688.38 59.7443 688.855 59.4759 689.392 59.3097C689.929 59.1392 690.493 59.054 691.086 59.054C691.478 59.054 691.893 59.1009 692.332 59.1946C692.775 59.2841 693.189 59.4503 693.572 59.6932C693.96 59.9361 694.277 60.2834 694.524 60.7351C694.772 61.1825 694.895 61.7642 694.895 62.4801V69H693.029V67.6577H692.952C692.828 67.9048 692.643 68.1477 692.396 68.3864C692.149 68.625 691.831 68.8232 691.443 68.9808C691.056 69.1385 690.591 69.2173 690.05 69.2173ZM690.466 67.6832C690.994 67.6832 691.446 67.5788 691.821 67.37C692.2 67.1612 692.488 66.8885 692.684 66.5518C692.884 66.2109 692.984 65.8466 692.984 65.4588V64.1932C692.916 64.2614 692.784 64.3253 692.588 64.3849C692.396 64.4403 692.176 64.4893 691.929 64.532C691.682 64.5703 691.441 64.6065 691.207 64.6406C690.973 64.6705 690.777 64.696 690.619 64.7173C690.248 64.7642 689.909 64.843 689.603 64.9538C689.3 65.0646 689.057 65.2244 688.874 65.4332C688.695 65.6378 688.605 65.9105 688.605 66.2514C688.605 66.7244 688.78 67.0824 689.13 67.3253C689.479 67.5639 689.924 67.6832 690.466 67.6832ZM699.352 55.9091V69H697.441V55.9091H699.352ZM707.708 62.6399V64.2955H701.904V62.6399H707.708ZM714.611 69.179C713.734 69.179 712.95 69.0277 712.259 68.7251C711.573 68.4226 711.03 68.0028 710.629 67.4659C710.233 66.9247 710.02 66.2983 709.99 65.5866H711.997C712.023 65.9744 712.153 66.3111 712.387 66.5966C712.626 66.8778 712.937 67.0952 713.32 67.2486C713.704 67.402 714.13 67.4787 714.599 67.4787C715.114 67.4787 715.57 67.3892 715.967 67.2102C716.367 67.0312 716.68 66.782 716.906 66.4624C717.132 66.1385 717.245 65.7656 717.245 65.3438C717.245 64.9048 717.132 64.5192 716.906 64.1868C716.685 63.8501 716.359 63.5859 715.928 63.3942C715.502 63.2024 714.986 63.1065 714.381 63.1065H713.276V61.4957H714.381C714.867 61.4957 715.293 61.4084 715.66 61.2337C716.03 61.0589 716.32 60.8161 716.529 60.505C716.738 60.1896 716.842 59.821 716.842 59.3991C716.842 58.9943 716.751 58.6428 716.567 58.3445C716.388 58.0419 716.133 57.8054 715.8 57.6349C715.472 57.4645 715.084 57.3793 714.637 57.3793C714.211 57.3793 713.812 57.4581 713.442 57.6158C713.075 57.7692 712.777 57.9908 712.547 58.2805C712.317 58.5661 712.193 58.9091 712.176 59.3097H710.265C710.286 58.6023 710.495 57.9801 710.891 57.4432C711.292 56.9062 711.82 56.4865 712.477 56.1839C713.133 55.8814 713.861 55.7301 714.663 55.7301C715.502 55.7301 716.227 55.8942 716.836 56.2223C717.45 56.5462 717.923 56.9787 718.255 57.5199C718.592 58.0611 718.758 58.6534 718.754 59.2969C718.758 60.0298 718.553 60.652 718.14 61.1634C717.731 61.6747 717.185 62.0178 716.504 62.1925V62.2947C717.373 62.4268 718.046 62.772 718.523 63.3303C719.005 63.8885 719.244 64.581 719.239 65.4077C719.244 66.1278 719.043 66.7734 718.638 67.3445C718.238 67.9155 717.69 68.3651 716.996 68.6932C716.301 69.017 715.506 69.179 714.611 69.179ZM726.213 69.2173C725.203 69.2131 724.34 68.9467 723.624 68.4183C722.908 67.8899 722.361 67.1207 721.981 66.1108C721.602 65.1009 721.413 63.8842 721.413 62.4609C721.413 61.0419 721.602 59.8295 721.981 58.8239C722.365 57.8182 722.915 57.0511 723.631 56.5227C724.351 55.9943 725.212 55.7301 726.213 55.7301C727.214 55.7301 728.073 55.9964 728.789 56.5291C729.505 57.0575 730.053 57.8246 730.432 58.8303C730.815 59.8317 731.007 61.0419 731.007 62.4609C731.007 63.8885 730.817 65.1072 730.438 66.1172C730.059 67.1229 729.511 67.892 728.795 68.4247C728.079 68.9531 727.219 69.2173 726.213 69.2173ZM726.213 67.5107C727.099 67.5107 727.792 67.0781 728.29 66.2131C728.793 65.348 729.045 64.0973 729.045 62.4609C729.045 61.3743 728.93 60.456 728.7 59.706C728.474 58.9517 728.148 58.3807 727.722 57.9929C727.3 57.6009 726.797 57.4048 726.213 57.4048C725.331 57.4048 724.638 57.8395 724.136 58.7088C723.633 59.5781 723.379 60.8288 723.375 62.4609C723.375 63.5518 723.488 64.4744 723.714 65.2287C723.944 65.9787 724.27 66.5476 724.692 66.9354C725.114 67.3189 725.621 67.5107 726.213 67.5107ZM737.832 69.2173C736.822 69.2131 735.959 68.9467 735.243 68.4183C734.527 67.8899 733.98 67.1207 733.601 66.1108C733.221 65.1009 733.032 63.8842 733.032 62.4609C733.032 61.0419 733.221 59.8295 733.601 58.8239C733.984 57.8182 734.534 57.0511 735.25 56.5227C735.97 55.9943 736.831 55.7301 737.832 55.7301C738.834 55.7301 739.692 55.9964 740.408 56.5291C741.124 57.0575 741.672 57.8246 742.051 58.8303C742.434 59.8317 742.626 61.0419 742.626 62.4609C742.626 63.8885 742.437 65.1072 742.057 66.1172C741.678 67.1229 741.13 67.892 740.415 68.4247C739.699 68.9531 738.838 69.2173 737.832 69.2173ZM737.832 67.5107C738.719 67.5107 739.411 67.0781 739.91 66.2131C740.412 65.348 740.664 64.0973 740.664 62.4609C740.664 61.3743 740.549 60.456 740.319 59.706C740.093 58.9517 739.767 58.3807 739.341 57.9929C738.919 57.6009 738.416 57.4048 737.832 57.4048C736.95 57.4048 736.258 57.8395 735.755 58.7088C735.252 59.5781 734.998 60.8288 734.994 62.4609C734.994 63.5518 735.107 64.4744 735.333 65.2287C735.563 65.9787 735.889 66.5476 736.311 66.9354C736.733 67.3189 737.24 67.5107 737.832 67.5107Z" fill="white"/>
<path d="M612 92H772" stroke="black" stroke-opacity="0.1"/>
<path d="M676.169 118.118C676.241 117.002 676.667 116.132 677.447 115.508C678.239 114.884 679.247 114.572 680.471 114.572C681.311 114.572 682.037 114.722 682.649 115.022C683.261 115.322 683.723 115.73 684.035 116.246C684.347 116.762 684.503 117.344 684.503 117.992C684.503 118.736 684.305 119.372 683.909 119.9C683.513 120.428 683.039 120.782 682.487 120.962V121.034C683.195 121.25 683.747 121.646 684.143 122.222C684.539 122.786 684.737 123.512 684.737 124.4C684.737 125.108 684.575 125.738 684.251 126.29C683.927 126.842 683.447 127.28 682.811 127.604C682.175 127.916 681.413 128.072 680.525 128.072C679.229 128.072 678.161 127.742 677.321 127.082C676.493 126.41 676.049 125.45 675.989 124.202H677.969C678.017 124.838 678.263 125.36 678.707 125.768C679.151 126.164 679.751 126.362 680.507 126.362C681.239 126.362 681.803 126.164 682.199 125.768C682.595 125.36 682.793 124.838 682.793 124.202C682.793 123.362 682.523 122.768 681.983 122.42C681.455 122.06 680.639 121.88 679.535 121.88H679.067V120.188H679.553C680.525 120.176 681.263 120.014 681.767 119.702C682.283 119.39 682.541 118.898 682.541 118.226C682.541 117.65 682.355 117.194 681.983 116.858C681.611 116.51 681.083 116.336 680.399 116.336C679.727 116.336 679.205 116.51 678.833 116.858C678.461 117.194 678.239 117.614 678.167 118.118H676.169ZM686.893 121.268C686.893 119.192 687.241 117.572 687.937 116.408C688.645 115.232 689.857 114.644 691.573 114.644C693.289 114.644 694.495 115.232 695.191 116.408C695.899 117.572 696.253 119.192 696.253 121.268C696.253 123.368 695.899 125.012 695.191 126.2C694.495 127.376 693.289 127.964 691.573 127.964C689.857 127.964 688.645 127.376 687.937 126.2C687.241 125.012 686.893 123.368 686.893 121.268ZM694.237 121.268C694.237 120.296 694.171 119.474 694.039 118.802C693.919 118.13 693.667 117.584 693.283 117.164C692.899 116.732 692.329 116.516 691.573 116.516C690.817 116.516 690.247 116.732 689.863 117.164C689.479 117.584 689.221 118.13 689.089 118.802C688.969 119.474 688.909 120.296 688.909 121.268C688.909 122.276 688.969 123.122 689.089 123.806C689.209 124.49 689.461 125.042 689.845 125.462C690.241 125.882 690.817 126.092 691.573 126.092C692.329 126.092 692.899 125.882 693.283 125.462C693.679 125.042 693.937 124.49 694.057 123.806C694.177 123.122 694.237 122.276 694.237 121.268ZM698.424 121.268C698.424 119.192 698.772 117.572 699.468 116.408C700.176 115.232 701.388 114.644 703.104 114.644C704.82 114.644 706.026 115.232 706.722 116.408C707.43 117.572 707.784 119.192 707.784 121.268C707.784 123.368 707.43 125.012 706.722 126.2C706.026 127.376 704.82 127.964 703.104 127.964C701.388 127.964 700.176 127.376 699.468 126.2C698.772 125.012 698.424 123.368 698.424 121.268ZM705.768 121.268C705.768 120.296 705.702 119.474 705.57 118.802C705.45 118.13 705.198 117.584 704.814 117.164C704.43 116.732 703.86 116.516 703.104 116.516C702.348 116.516 701.778 116.732 701.394 117.164C701.01 117.584 700.752 118.13 700.62 118.802C700.5 119.474 700.44 120.296 700.44 121.268C700.44 122.276 700.5 123.122 700.62 123.806C700.74 124.49 700.992 125.042 701.376 125.462C701.772 125.882 702.348 126.092 703.104 126.092C703.86 126.092 704.43 125.882 704.814 125.462C705.21 125.042 705.468 124.49 705.588 123.806C705.708 123.122 705.768 122.276 705.768 121.268Z" fill="white"/>
<path d="M669.85 143.76V142.432H672.858V154H671.386V143.76H669.85ZM675.359 148.096C675.359 146.261 675.658 144.832 676.255 143.808C676.853 142.773 677.898 142.256 679.391 142.256C680.874 142.256 681.914 142.773 682.511 143.808C683.109 144.832 683.407 146.261 683.407 148.096C683.407 149.963 683.109 151.413 682.511 152.448C681.914 153.483 680.874 154 679.391 154C677.898 154 676.853 153.483 676.255 152.448C675.658 151.413 675.359 149.963 675.359 148.096ZM681.967 148.096C681.967 147.168 681.903 146.384 681.775 145.744C681.658 145.093 681.407 144.571 681.023 144.176C680.65 143.781 680.106 143.584 679.391 143.584C678.666 143.584 678.111 143.781 677.727 144.176C677.354 144.571 677.103 145.093 676.975 145.744C676.858 146.384 676.799 147.168 676.799 148.096C676.799 149.056 676.858 149.861 676.975 150.512C677.103 151.163 677.354 151.685 677.727 152.08C678.111 152.475 678.666 152.672 679.391 152.672C680.106 152.672 680.65 152.475 681.023 152.08C681.407 151.685 681.658 151.163 681.775 150.512C681.903 149.861 681.967 149.056 681.967 148.096ZM685.022 143.76V142.432H688.03V154H686.558V143.76H685.022ZM690.531 148.096C690.531 146.261 690.83 144.832 691.427 143.808C692.024 142.773 693.07 142.256 694.563 142.256C696.046 142.256 697.086 142.773 697.683 143.808C698.28 144.832 698.579 146.261 698.579 148.096C698.579 149.963 698.28 151.413 697.683 152.448C697.086 153.483 696.046 154 694.563 154C693.07 154 692.024 153.483 691.427 152.448C690.83 151.413 690.531 149.963 690.531 148.096ZM697.139 148.096C697.139 147.168 697.075 146.384 696.947 145.744C696.83 145.093 696.579 144.571 696.195 144.176C695.822 143.781 695.278 143.584 694.563 143.584C693.838 143.584 693.283 143.781 692.899 144.176C692.526 144.571 692.275 145.093 692.147 145.744C692.03 146.384 691.971 147.168 691.971 148.096C691.971 149.056 692.03 149.861 692.147 150.512C692.275 151.163 692.526 151.685 692.899 152.08C693.283 152.475 693.838 152.672 694.563 152.672C695.278 152.672 695.822 152.475 696.195 152.08C696.579 151.685 696.83 151.163 696.947 150.512C697.075 149.861 697.139 149.056 697.139 148.096ZM700.194 143.76V142.432H703.202V154H701.73V143.76H700.194ZM705.703 148.096C705.703 146.261 706.002 144.832 706.599 143.808C707.196 142.773 708.242 142.256 709.735 142.256C711.218 142.256 712.258 142.773 712.855 143.808C713.452 144.832 713.751 146.261 713.751 148.096C713.751 149.963 713.452 151.413 712.855 152.448C712.258 153.483 711.218 154 709.735 154C708.242 154 707.196 153.483 706.599 152.448C706.002 151.413 705.703 149.963 705.703 148.096ZM712.311 148.096C712.311 147.168 712.247 146.384 712.119 145.744C712.002 145.093 711.751 144.571 711.367 144.176C710.994 143.781 710.45 143.584 709.735 143.584C709.01 143.584 708.455 143.781 708.071 144.176C707.698 144.571 707.447 145.093 707.319 145.744C707.202 146.384 707.143 147.168 707.143 148.096C707.143 149.056 707.202 149.861 707.319 150.512C707.447 151.163 707.698 151.685 708.071 152.08C708.455 152.475 709.01 152.672 709.735 152.672C710.45 152.672 710.994 152.475 711.367 152.08C711.751 151.685 712.002 151.163 712.119 150.512C712.247 149.861 712.311 149.056 712.311 148.096Z" fill="white"/>
</g>
<defs>
<filter id="filter0_dd_468_11894" x="0" y="0" width="184" height="204" filterUnits="userSpaceOnUse" color-interpolation-filters="sRGB">
<feFlood flood-opacity="0" result="BackgroundImageFix"/>
<feColorMatrix in="SourceAlpha" type="matrix" values="0 0 0 0 0 0 0 0 0 0 0 0 0 0 0 0 0 0 127 0" result="hardAlpha"/>
<feMorphology radius="2" operator="erode" in="SourceAlpha" result="effect1_dropShadow_468_11894"/>
<feOffset dy="4"/>
<feGaussianBlur stdDeviation="3"/>
<feColorMatrix type="matrix" values="0 0 0 0 0.0392157 0 0 0 0 0.0496732 0 0 0 0 0.0705882 0 0 0 0.03 0"/>
<feBlend mode="normal" in2="BackgroundImageFix" result="effect1_dropShadow_468_11894"/>
<feColorMatrix in="SourceAlpha" type="matrix" values="0 0 0 0 0 0 0 0 0 0 0 0 0 0 0 0 0 0 127 0" result="hardAlpha"/>
<feMorphology radius="4" operator="erode" in="SourceAlpha" result="effect2_dropShadow_468_11894"/>
<feOffset dy="12"/>
<feGaussianBlur stdDeviation="8"/>
<feColorMatrix type="matrix" values="0 0 0 0 0.0392157 0 0 0 0 0.0496732 0 0 0 0 0.0705882 0 0 0 0.08 0"/>
<feBlend mode="normal" in2="effect1_dropShadow_468_11894" result="effect2_dropShadow_468_11894"/>
<feBlend mode="normal" in="SourceGraphic" in2="effect2_dropShadow_468_11894" result="shape"/>
</filter>
<filter id="filter1_dd_468_11894" x="200" y="0" width="184" height="204" filterUnits="userSpaceOnUse" color-interpolation-filters="sRGB">
<feFlood flood-opacity="0" result="BackgroundImageFix"/>
<feColorMatrix in="SourceAlpha" type="matrix" values="0 0 0 0 0 0 0 0 0 0 0 0 0 0 0 0 0 0 127 0" result="hardAlpha"/>
<feMorphology radius="2" operator="erode" in="SourceAlpha" result="effect1_dropShadow_468_11894"/>
<feOffset dy="4"/>
<feGaussianBlur stdDeviation="3"/>
<feColorMatrix type="matrix" values="0 0 0 0 0.0392157 0 0 0 0 0.0496732 0 0 0 0 0.0705882 0 0 0 0.03 0"/>
<feBlend mode="normal" in2="BackgroundImageFix" result="effect1_dropShadow_468_11894"/>
<feColorMatrix in="SourceAlpha" type="matrix" values="0 0 0 0 0 0 0 0 0 0 0 0 0 0 0 0 0 0 127 0" result="hardAlpha"/>
<feMorphology radius="4" operator="erode" in="SourceAlpha" result="effect2_dropShadow_468_11894"/>
<feOffset dy="12"/>
<feGaussianBlur stdDeviation="8"/>
<feColorMatrix type="matrix" values="0 0 0 0 0.0392157 0 0 0 0 0.0496732 0 0 0 0 0.0705882 0 0 0 0.08 0"/>
<feBlend mode="normal" in2="effect1_dropShadow_468_11894" result="effect2_dropShadow_468_11894"/>
<feBlend mode="normal" in="SourceGraphic" in2="effect2_dropShadow_468_11894" result="shape"/>
</filter>
<filter id="filter2_dd_468_11894" x="400" y="0" width="184" height="204" filterUnits="userSpaceOnUse" color-interpolation-filters="sRGB">
<feFlood flood-opacity="0" result="BackgroundImageFix"/>
<feColorMatrix in="SourceAlpha" type="matrix" values="0 0 0 0 0 0 0 0 0 0 0 0 0 0 0 0 0 0 127 0" result="hardAlpha"/>
<feMorphology radius="2" operator="erode" in="SourceAlpha" result="effect1_dropShadow_468_11894"/>
<feOffset dy="4"/>
<feGaussianBlur stdDeviation="3"/>
<feColorMatrix type="matrix" values="0 0 0 0 0.0392157 0 0 0 0 0.0496732 0 0 0 0 0.0705882 0 0 0 0.03 0"/>
<feBlend mode="normal" in2="BackgroundImageFix" result="effect1_dropShadow_468_11894"/>
<feColorMatrix in="SourceAlpha" type="matrix" values="0 0 0 0 0 0 0 0 0 0 0 0 0 0 0 0 0 0 127 0" result="hardAlpha"/>
<feMorphology radius="4" operator="erode" in="SourceAlpha" result="effect2_dropShadow_468_11894"/>
<feOffset dy="12"/>
<feGaussianBlur stdDeviation="8"/>
<feColorMatrix type="matrix" values="0 0 0 0 0.0392157 0 0 0 0 0.0496732 0 0 0 0 0.0705882 0 0 0 0.08 0"/>
<feBlend mode="normal" in2="effect1_dropShadow_468_11894" result="effect2_dropShadow_468_11894"/>
<feBlend mode="normal" in="SourceGraphic" in2="effect2_dropShadow_468_11894" result="shape"/>
</filter>
<filter id="filter3_dd_468_11894" x="600" y="0" width="184" height="204" filterUnits="userSpaceOnUse" color-interpolation-filters="sRGB">
<feFlood flood-opacity="0" result="BackgroundImageFix"/>
<feColorMatrix in="SourceAlpha" type="matrix" values="0 0 0 0 0 0 0 0 0 0 0 0 0 0 0 0 0 0 127 0" result="hardAlpha"/>
<feMorphology radius="2" operator="erode" in="SourceAlpha" result="effect1_dropShadow_468_11894"/>
<feOffset dy="4"/>
<feGaussianBlur stdDeviation="3"/>
<feColorMatrix type="matrix" values="0 0 0 0 0.0392157 0 0 0 0 0.0496732 0 0 0 0 0.0705882 0 0 0 0.03 0"/>
<feBlend mode="normal" in2="BackgroundImageFix" result="effect1_dropShadow_468_11894"/>
<feColorMatrix in="SourceAlpha" type="matrix" values="0 0 0 0 0 0 0 0 0 0 0 0 0 0 0 0 0 0 127 0" result="hardAlpha"/>
<feMorphology radius="4" operator="erode" in="SourceAlpha" result="effect2_dropShadow_468_11894"/>
<feOffset dy="12"/>
<feGaussianBlur stdDeviation="8"/>
<feColorMatrix type="matrix" values="0 0 0 0 0.0392157 0 0 0 0 0.0496732 0 0 0 0 0.0705882 0 0 0 0.08 0"/>
<feBlend mode="normal" in2="effect1_dropShadow_468_11894" result="effect2_dropShadow_468_11894"/>
<feBlend mode="normal" in="SourceGraphic" in2="effect2_dropShadow_468_11894" result="shape"/>
</filter>
</defs>
</svg>
