<svg width="40" height="40" viewBox="0 0 40 40" fill="none" xmlns="http://www.w3.org/2000/svg">
<g clip-path="url(#clip0_485_11448)">
<path d="M19 14.125C16.75 9.875 14.375 5.875 11.875 1.875C5.75 4.5 1.25 10.25 0.25 17.125C6.25 17.25 12.5 16.25 19 14.125Z" fill="black"/>
<path d="M21.375 13.25C25.875 11.5 30.25 9.25 34.75 6.5C31 2.5 25.875 0 20 0C18 0 16 0.25 14.25 0.875C16.75 4.875 19.125 9 21.375 13.25Z" fill="black"/>
<path d="M24.875 20.625C28.5 19.625 32.375 19 36.25 19C37.5 19 38.625 19 39.875 19.125C39.75 15.125 38.375 11.375 36.25 8.375C31.625 11.375 27 13.75 22.5 15.5C23.25 17.25 24.125 18.875 24.875 20.625Z" fill="black"/>
<path d="M22.5 21.375C21.75 19.625 20.875 18 20 16.25C13.75 18.375 7.625 19.5 1.75 19.5C1.125 19.5 0.625 19.5 0 19.5C0 19.625 0 19.75 0 20C0 25 1.875 29.5 4.875 33C9.875 27.625 15.875 23.75 22.5 21.375Z" fill="black"/>
<path d="M36.375 21.625C32.875 21.625 29.375 22.125 26 23C28 27.375 29.625 32 31.25 36.625C36.125 33.375 39.375 28 40 21.875C38.75 21.625 37.5 21.625 36.375 21.625Z" fill="black"/>
<path d="M23.625 23.75C17.25 25.875 11.5 29.625 6.625 34.875C10.125 38 14.875 40 20 40C23.25 40 26.25 39.25 29 37.875C27.375 33 25.625 28.375 23.625 23.75Z" fill="black"/>
</g>
<defs>
<clipPath id="clip0_485_11448">
<rect width="40" height="40" fill="white"/>
</clipPath>
</defs>
</svg>
