<svg width="40" height="40" viewBox="0 0 40 40" fill="none" xmlns="http://www.w3.org/2000/svg">
<path fill-rule="evenodd" clip-rule="evenodd" d="M19.999 0C8.95045 0 -0.000976562 8.95857 -0.000976562 19.9957C-0.000976562 30.4886 8.09331 39.1014 18.3762 39.9271V40H19.999C31.0476 40 39.999 31.0414 39.999 20.0043C39.999 8.96714 31.0476 0 19.999 0ZM36.5176 17.2071C33.9776 16.8514 31.3676 16.9629 28.8162 17.5071C28.3133 16.0957 27.6662 14.7443 26.909 13.4529C29.009 12.2414 30.9276 10.7186 32.5762 8.93857C34.5905 11.2271 35.989 14.0686 36.5176 17.2071ZM30.209 6.72143C28.7247 8.32714 26.9876 9.69286 25.0847 10.7614C23.779 9.10286 22.2762 7.60143 20.5919 6.31857L20.5505 6.28714L20.5076 6.25857C20.5076 6.25857 20.5033 6.25571 20.4962 6.25C20.4876 6.24429 20.4747 6.23571 20.4605 6.22429C20.429 6.20143 20.3905 6.17286 20.3447 6.13857C20.289 6.09714 20.2319 6.05429 20.1719 6.00857C20.1262 5.97429 20.0776 5.93714 20.0247 5.89714C19.9105 5.81143 19.7833 5.71714 19.6676 5.63429C19.5862 5.57571 19.4705 5.49429 19.3519 5.42143C19.329 5.40571 19.3047 5.38857 19.2762 5.37C19.1219 5.26286 18.8905 5.10286 18.679 4.97286C18.4819 4.83429 18.2162 4.67714 18.0419 4.57571C17.8733 4.47714 17.6905 4.37286 17.5776 4.30857C17.5405 4.28714 17.5119 4.27 17.4919 4.26C17.4705 4.24714 17.4519 4.23714 17.4447 4.23286C17.4305 4.22429 17.4147 4.21571 17.4005 4.20857C17.3962 4.20571 17.3905 4.20286 17.3862 4.2C17.3605 4.18571 17.3362 4.17286 17.309 4.15714C17.279 4.14 17.2547 4.12714 17.2376 4.11571L17.2247 4.10714L17.1819 4.08143C17.0247 3.98571 16.8619 3.89857 16.7733 3.85143C16.7619 3.84571 16.7519 3.84 16.7433 3.83429L16.7062 3.81429L16.6676 3.79571C16.5919 3.76 16.479 3.70571 16.3519 3.64571C17.5262 3.38429 18.7462 3.24286 20.0005 3.24286C23.8447 3.24286 27.3833 4.54143 30.2105 6.72L30.209 6.72143ZM11.8862 5.34C11.8862 5.34 11.8962 5.34286 11.9019 5.34571C12.1776 5.43286 12.4405 5.51571 12.6933 5.60571C12.7862 5.64143 12.8776 5.67571 12.9676 5.71C13.379 5.86571 13.7447 6.00429 14.0519 6.14714L14.139 6.19143L14.1605 6.20143C14.3533 6.29143 14.6319 6.42429 14.8833 6.54429C15.0162 6.60857 15.1419 6.66714 15.2433 6.71571C15.2433 6.71571 15.2462 6.71571 15.2476 6.71714C15.3319 6.76286 15.4033 6.8 15.469 6.84C15.5233 6.87429 15.5705 6.90286 15.5962 6.91857C15.6433 6.94571 15.6919 6.97286 15.7319 6.99571C15.7662 7.01429 15.799 7.03286 15.8247 7.04714C15.829 7.05 15.8333 7.05143 15.8376 7.05429C15.8505 7.06143 15.859 7.06571 15.8647 7.06857H15.8676C15.9047 7.09143 15.9505 7.11714 16.0019 7.14714C16.1119 7.21 16.2519 7.29 16.4047 7.37857C16.5133 7.44143 16.6133 7.50143 16.6962 7.55286C16.759 7.59143 16.7919 7.61429 16.8047 7.62143C16.8119 7.62571 16.8119 7.62571 16.8076 7.62143L16.8805 7.67714L16.959 7.72429C17.079 7.79571 17.199 7.87857 17.3476 7.98143C17.4147 8.02857 17.489 8.08 17.5719 8.13571L17.6276 8.17429L17.6762 8.20143C17.6762 8.20143 17.7076 8.22143 17.7819 8.27429C17.8662 8.33429 17.9662 8.41 18.0776 8.49286C18.119 8.52429 18.1633 8.55714 18.209 8.59286C18.2762 8.64429 18.3462 8.69571 18.4047 8.74C18.4819 8.79714 18.5762 8.86857 18.6619 8.92714C19.9047 9.87714 21.0347 10.9686 22.0462 12.1643C20.9719 12.5571 19.8647 12.8643 18.7376 13.0671C16.2719 13.5114 13.7533 13.5243 11.3105 13.0757H11.3062L11.3019 13.0743C9.36474 12.73 7.48617 12.1043 5.73045 11.2271C7.24188 8.77571 9.36617 6.74286 11.8905 5.34286L11.8862 5.34ZM3.24331 19.9957C3.24331 17.9343 3.6176 15.9614 4.29902 14.1357C6.3276 15.1457 8.49331 15.8657 10.7233 16.2629C13.5647 16.7843 16.4762 16.7671 19.309 16.2557C20.9162 15.9657 22.4833 15.4986 23.989 14.8829C24.6633 16.0029 25.2347 17.18 25.6847 18.4071C18.9476 20.8371 13.0647 26.3 10.699 33.9286C6.20474 30.9229 3.24331 25.8029 3.24331 19.9957ZM19.999 36.7486C17.7447 36.7486 15.5947 36.3 13.6305 35.4914C15.5347 28.6386 20.6833 23.7257 26.5847 21.5286C27.6033 26.4686 26.8647 31.7571 24.4119 36.1657C23.159 36.5071 21.849 36.71 20.4962 36.7486H19.999ZM28.8319 34.2386C30.3876 29.8971 30.6862 25.1357 29.7133 20.6386C32.059 20.1643 34.4476 20.1143 36.7419 20.53C36.5633 26.3186 33.449 31.3686 28.8319 34.2386Z" fill="white"/>
</svg>
