<svg width="80" height="81" viewBox="0 0 80 81" fill="none" xmlns="http://www.w3.org/2000/svg">
<path d="M13.3327 66.7669C11.4993 66.7669 9.9299 66.1142 8.62435 64.8086C7.31879 63.503 6.66602 61.9336 6.66602 60.1003V20.1003C6.66602 18.2669 7.31879 16.6975 8.62435 15.3919C9.9299 14.0864 11.4993 13.4336 13.3327 13.4336H66.666C68.4993 13.4336 70.0688 14.0864 71.3743 15.3919C72.6799 16.6975 73.3327 18.2669 73.3327 20.1003V60.1003C73.3327 61.9336 72.6799 63.503 71.3743 64.8086C70.0688 66.1142 68.4993 66.7669 66.666 66.7669H13.3327ZM39.9993 42.8503C40.2771 42.8503 40.5688 42.8086 40.8743 42.7253C41.1799 42.6419 41.4716 42.5169 41.7493 42.3503L65.3327 27.6003C65.7771 27.3225 66.1105 26.9753 66.3327 26.5586C66.5549 26.1419 66.666 25.6836 66.666 25.1836C66.666 24.0725 66.1938 23.2391 65.2493 22.6836C64.3049 22.128 63.3327 22.1558 62.3327 22.7669L39.9993 36.7669L17.666 22.7669C16.666 22.1558 15.6938 22.1419 14.7493 22.7253C13.8049 23.3086 13.3327 24.128 13.3327 25.1836C13.3327 25.7391 13.4438 26.2253 13.666 26.6419C13.8882 27.0586 14.2216 27.378 14.666 27.6003L38.2493 42.3503C38.5271 42.5169 38.8188 42.6419 39.1243 42.7253C39.4299 42.8086 39.7216 42.8503 39.9993 42.8503Z" fill="#E9E7DE"/>
</svg>
