<svg width="45" height="36" viewBox="0 0 45 36" fill="none" xmlns="http://www.w3.org/2000/svg">
<path d="M44.6455 2.72461C44.8809 3.26903 45 3.86042 45 4.5V31.5C45 32.7375 44.559 33.7965 43.6777 34.6777C42.7965 35.559 41.7375 36 40.5 36H4.5C3.2625 36 2.20352 35.559 1.32227 34.6777C0.441016 33.7965 0 32.7375 0 31.5V4.5C0 3.95054 0.0870121 3.43626 0.260742 2.95703L20.751 19.6055L21.0049 19.7939C22.3044 20.6692 24.0475 20.5772 25.251 19.5342L44.6455 2.72461ZM40.5 0C41.2737 0 41.9779 0.172121 42.6123 0.516602L23.2861 17.2676C23.1257 17.4065 22.8983 17.4265 22.7178 17.3271L22.6436 17.2773L2.1709 0.643555C2.86072 0.214853 3.63688 0 4.5 0H40.5Z" fill="black"/>
</svg>
