<svg width="241" height="240" viewBox="0 0 241 240" fill="none" xmlns="http://www.w3.org/2000/svg">
<path d="M118.481 0L158.111 50.7407L118.481 101.481L78.8516 50.7407L118.481 0Z" fill="#505154"/>
<path d="M118.481 138.519L158.111 189.259L118.481 240L78.8516 189.259L118.481 138.519Z" fill="#505154"/>
<path d="M186.78 51.7261L178.923 115.628L115.022 123.484L122.879 59.5829L186.78 51.7261Z" fill="#C6C6C6"/>
<path d="M123.817 116.171L115.961 180.072L52.0591 187.929L59.9158 124.027L123.817 116.171Z" fill="#C6C6C6"/>
<path d="M101.816 119.63L51.0757 159.259L0.334923 119.63L51.0757 80L101.816 119.63Z" fill="#505154"/>
<path d="M240.334 119.63L189.593 159.259L138.853 119.63L189.593 80L240.334 119.63Z" fill="#505154"/>
<path d="M115.022 116.17L178.924 124.027L186.781 187.929L122.879 180.072L115.022 116.17Z" fill="#C6C6C6"/>
<path d="M52.8017 51.7259L116.703 59.5827L124.56 123.484L60.6584 115.627L52.8017 51.7259Z" fill="#C6C6C6"/>
<path d="M97.3711 118.148C97.3711 106.501 106.803 97.037 118.482 97.037C130.161 97.037 139.593 106.469 139.593 118.148C139.593 129.827 130.161 139.259 118.482 139.259C106.803 139.259 97.3711 129.796 97.3711 118.148Z" fill="#F2F2F2"/>
</svg>
