<svg width="474" height="428" viewBox="0 0 474 428" fill="none" xmlns="http://www.w3.org/2000/svg">
<g clip-path="url(#clip0_825_574)">
<path d="M464.983 34.5839H10.6904C10.2179 34.5738 9.76818 34.3791 9.43759 34.0414C9.10701 33.7036 8.92188 33.2499 8.92188 32.7773C8.92188 32.3047 9.10701 31.8509 9.43759 31.5132C9.76818 31.1755 10.2179 30.9808 10.6904 30.9707H464.983C465.456 30.9808 465.906 31.1755 466.236 31.5132C466.567 31.8509 466.752 32.3047 466.752 32.7773C466.752 33.2499 466.567 33.7036 466.236 34.0414C465.906 34.3791 465.456 34.5738 464.983 34.5839Z" fill="#CACACA"/>
<path d="M41.6149 21.7465C47.4622 21.7465 52.2024 16.9007 52.2024 10.9231C52.2024 4.94543 47.4622 0.0996094 41.6149 0.0996094C35.7675 0.0996094 31.0273 4.94543 31.0273 10.9231C31.0273 16.9007 35.7675 21.7465 41.6149 21.7465Z" fill="#7E837F"/>
<path d="M78.191 21.7465C84.0383 21.7465 88.7785 16.9007 88.7785 10.9231C88.7785 4.94543 84.0383 0.0996094 78.191 0.0996094C72.3437 0.0996094 67.6035 4.94543 67.6035 10.9231C67.6035 16.9007 72.3437 21.7465 78.191 21.7465Z" fill="#7E837F"/>
<path d="M114.765 21.7465C120.613 21.7465 125.353 16.9007 125.353 10.9231C125.353 4.94543 120.613 0.0996094 114.765 0.0996094C108.918 0.0996094 104.178 4.94543 104.178 10.9231C104.178 16.9007 108.918 21.7465 114.765 21.7465Z" fill="#7E837F"/>
<path d="M442.962 2.7832H416.981C416.466 2.79339 415.976 3.00514 415.615 3.37296C415.255 3.74077 415.053 4.23534 415.053 4.75044C415.053 5.26554 415.255 5.7601 415.615 6.12791C415.976 6.49573 416.466 6.70748 416.981 6.71767H442.962C443.477 6.70748 443.968 6.49573 444.328 6.12791C444.689 5.7601 444.891 5.26554 444.891 4.75044C444.891 4.23534 444.689 3.74077 444.328 3.37296C443.968 3.00514 443.477 2.79339 442.962 2.7832Z" fill="#7E837F"/>
<path d="M442.962 10.166H416.981C416.466 10.1763 415.976 10.388 415.615 10.7558C415.255 11.1237 415.053 11.6182 415.053 12.1332C415.053 12.6483 415.255 13.1428 415.615 13.5106C415.976 13.8784 416.466 14.0902 416.981 14.1005H442.962C443.477 14.0902 443.968 13.8784 444.328 13.5106C444.689 13.1428 444.891 12.6483 444.891 12.1332C444.891 11.6182 444.689 11.1237 444.328 10.7558C443.968 10.388 443.477 10.1763 442.962 10.166Z" fill="#7E837F"/>
<path d="M442.962 17.541H416.981C416.466 17.5513 415.976 17.763 415.615 18.1308C415.255 18.4987 415.053 18.9932 415.053 19.5082C415.053 20.0233 415.255 20.5178 415.615 20.8856C415.976 21.2534 416.466 21.4652 416.981 21.4755H442.962C443.477 21.4652 443.968 21.2534 444.328 20.8856C444.689 20.5178 444.891 20.0233 444.891 19.5082C444.891 18.9932 444.689 18.4987 444.328 18.1308C443.968 17.763 443.477 17.5513 442.962 17.541Z" fill="#7E837F"/>
<path d="M317.164 328.416C317.164 359.143 362.792 413.104 372.8 384.052C385.053 348.484 411.19 325.938 428.437 328.416C458.852 332.785 403.528 272.779 372.8 272.779C358.045 272.779 343.893 278.641 333.46 289.075C323.026 299.509 317.164 313.66 317.164 328.416Z" fill="#E9E7DE"/>
<path d="M306.777 385.1C294.495 385.108 282.475 381.544 272.18 374.842L267 371.475L273.141 372.156C274.749 372.335 276.482 372.439 278.29 372.465C286.567 372.471 294.671 370.089 301.629 365.604C297.494 364.708 293.665 362.748 290.52 359.918C287.376 357.087 285.024 353.484 283.699 349.466L282.93 347.096L285.375 347.575C286.485 347.795 287.612 347.922 288.743 347.954C284.869 345.961 281.618 342.94 279.344 339.223C277.071 335.505 275.863 331.234 275.852 326.876V324.366L278.038 325.332C279.334 326.061 280.706 326.645 282.13 327.072C278.761 323.292 276.669 318.545 276.151 313.507C275.632 308.469 276.714 303.396 279.243 299.008L280.31 297.166L281.65 298.819C291.406 310.894 305.385 318.809 320.757 320.96C321.179 321.021 321.609 320.989 322.017 320.867C322.425 320.745 322.802 320.536 323.121 320.255C323.448 319.971 323.71 319.62 323.89 319.226C324.069 318.831 324.162 318.403 324.162 317.97C324.126 313.285 325.486 308.694 328.068 304.784C330.65 300.874 334.338 297.822 338.661 296.017C342.984 294.211 347.747 293.734 352.342 294.646C356.937 295.559 361.157 297.819 364.463 301.139C368.987 300.151 373.324 298.448 377.311 296.092L380.675 294.1L379.449 297.813C378.313 301.257 376.407 304.397 373.876 306.995C376.122 306.41 378.317 305.647 380.442 304.715L385 302.711L382.254 306.864C379.344 311.272 375.71 315.154 371.504 318.347V320.465C371.504 352.237 347.342 385.099 306.908 385.099L306.777 385.1Z" fill="#4A5253"/>
<path d="M305.476 154.178C298.26 184.046 330.385 209.814 361.112 209.814C368.418 209.814 375.653 208.375 382.403 205.579C389.153 202.783 395.287 198.685 400.453 193.519C405.619 188.353 409.717 182.219 412.513 175.469C415.309 168.719 416.748 161.484 416.748 154.178C416.748 123.451 375.333 125.78 361.112 98.5417C344.832 67.3603 320.986 89.9752 305.476 154.178Z" fill="#E9E7DE"/>
<path d="M48.3711 151.838C48.3711 166.594 54.2328 180.745 64.6666 191.179C75.1005 201.613 89.2518 207.475 104.007 207.475C134.735 207.475 160.537 182.552 159.644 151.838C157.773 87.4956 132.847 62.2831 104.007 96.2019C84.1037 119.611 48.3711 121.111 48.3711 151.838Z" fill="#E9E7DE"/>
<path d="M43.6961 328.416C17.7314 317.191 62.8258 374.714 99.3325 384.052C129.101 391.667 154.969 359.143 154.969 328.416C154.969 321.109 153.53 313.875 150.734 307.125C147.938 300.374 143.84 294.241 138.673 289.075C133.507 283.908 127.374 279.81 120.624 277.014C113.874 274.218 106.639 272.779 99.3325 272.779C68.6053 272.779 71.9006 340.608 43.6961 328.416Z" fill="#E9E7DE"/>
<path d="M366.573 128.924H292.153C290.606 128.924 289.075 129.228 287.646 129.82C286.217 130.412 284.918 131.28 283.825 132.373C282.731 133.467 281.863 134.765 281.272 136.194C280.68 137.623 280.375 139.155 280.375 140.701V215.121C280.375 218.245 281.616 221.241 283.825 223.449C286.033 225.658 289.029 226.899 292.153 226.899H366.573C369.696 226.899 372.692 225.658 374.901 223.449C377.109 221.241 378.35 218.245 378.35 215.121V140.701C378.35 137.578 377.109 134.582 374.901 132.373C372.692 130.165 369.696 128.924 366.573 128.924ZM352.599 154.049H344.064C338.237 154.049 337.103 156.808 337.103 160.881V169.519H351L349.195 183.08H337.077V218.444C331.896 219.416 326.578 219.404 321.401 218.407V183.08H310.288V169.519H321.608V159.489C321.608 147.5 329.935 140.951 340.661 140.951C345.817 140.951 351.335 141.338 352.599 141.518V154.049Z" fill="#4A5253"/>
<path d="M180.42 128.924H106C102.877 128.924 99.881 130.165 97.6722 132.373C95.4635 134.582 94.2227 137.578 94.2227 140.701V215.121C94.2227 218.245 95.4635 221.241 97.6722 223.449C99.881 225.658 102.877 226.899 106 226.899H180.42C183.544 226.899 186.539 225.658 188.748 223.449C190.957 221.241 192.198 218.245 192.198 215.121V140.701C192.198 137.578 190.957 134.582 188.748 132.373C186.539 130.165 183.544 128.924 180.42 128.924ZM143.21 204.038C138.043 204.038 132.991 202.506 128.695 199.635C124.398 196.764 121.05 192.684 119.072 187.91C117.095 183.136 116.577 177.882 117.585 172.814C118.594 167.746 121.082 163.091 124.736 159.437C128.39 155.783 133.045 153.295 138.113 152.287C143.181 151.279 148.434 151.796 153.208 153.773C157.982 155.751 162.063 159.1 164.934 163.396C167.805 167.693 169.337 172.744 169.337 177.911C169.337 184.841 166.584 191.486 161.685 196.386C156.785 201.285 150.139 204.038 143.21 204.038ZM172.603 151.785C171.311 151.785 170.048 151.402 168.974 150.684C167.9 149.966 167.062 148.946 166.568 147.753C166.074 146.559 165.944 145.246 166.196 143.979C166.448 142.712 167.071 141.548 167.984 140.634C168.897 139.721 170.061 139.099 171.328 138.847C172.595 138.595 173.909 138.724 175.102 139.219C176.296 139.713 177.316 140.55 178.034 141.624C178.751 142.698 179.134 143.961 179.134 145.253C179.134 146.985 178.446 148.647 177.221 149.872C175.996 151.096 174.335 151.785 172.603 151.785Z" fill="#4A5253"/>
<path d="M208.224 309.858C208.224 298.348 199.741 289.074 189.131 289.074C174.92 288.392 160.464 288.146 145.681 288.146H141.071C126.315 288.146 111.804 288.392 97.6206 289.074C87.1738 289.074 78.6911 298.375 78.6911 309.913C78.0365 319.05 77.7636 328.16 77.7909 337.189C77.8182 346.217 78.0365 355.436 78.6638 364.465C78.6638 376.002 87.1465 385.358 97.5932 385.358C112.486 386.04 127.788 386.34 143.335 386.34C158.882 386.34 174.157 386.067 189.104 385.358C199.578 385.358 208.197 376.002 208.197 364.465C208.797 355.327 209.097 346.217 209.07 337.052C209.042 327.888 208.824 318.832 208.224 309.776L208.224 309.858ZM130.952 362.419V312.068L168.102 337.216L130.952 362.419Z" fill="#4A5253"/>
</g>
<defs>
<clipPath id="clip0_825_574">
<rect width="474" height="427" fill="white" transform="translate(0 0.0996094)"/>
</clipPath>
</defs>
</svg>
