<svg width="441" height="501" viewBox="0 0 441 501" fill="none" xmlns="http://www.w3.org/2000/svg">
<path d="M301.429 317.1H6.4375C4.91665 317.098 3.45858 316.493 2.38318 315.418C1.30778 314.342 0.702871 312.884 0.701172 311.363V5.83594C0.702871 4.31509 1.30778 2.85702 2.38318 1.78162C3.45858 0.706214 4.91665 0.101309 6.4375 0.0996094H301.429C302.95 0.101306 304.408 0.706213 305.484 1.78162C306.559 2.85702 307.164 4.31509 307.166 5.83594V311.363C307.164 312.884 306.559 314.342 305.484 315.418C304.408 316.493 302.95 317.098 301.429 317.1ZM6.4375 2.09961C5.44691 2.10074 4.49721 2.49475 3.79675 3.19521C3.0963 3.89566 2.7023 4.84535 2.70117 5.83594V311.363C2.7023 312.354 3.0963 313.304 3.79675 314.004C4.49721 314.704 5.44691 315.098 6.4375 315.1H301.429C302.42 315.098 303.37 314.704 304.07 314.004C304.771 313.304 305.165 312.354 305.166 311.363V5.83594C305.165 4.84535 304.771 3.89566 304.07 3.19521C303.37 2.49475 302.42 2.10074 301.429 2.09961H6.4375Z" fill="#3F3D56"/>
<path d="M209.536 128.507C216.127 140.68 218.541 154.679 216.406 168.356C214.272 182.034 207.707 194.632 197.721 204.218C187.734 213.804 174.877 219.847 161.124 221.42C147.371 222.993 133.482 220.008 121.589 212.924C109.696 205.84 100.457 195.049 95.2899 182.207C90.1228 169.365 89.3135 155.181 92.9863 141.835C96.659 128.488 104.611 116.716 115.621 108.325C126.631 99.9346 140.09 95.3895 153.933 95.3877C154.434 95.3877 154.934 95.3951 155.433 95.4067L154.765 68.4012C154.487 68.3987 154.211 68.3906 153.933 68.3906C134.016 68.3964 114.661 74.9952 98.889 87.1573C83.1166 99.3195 71.8141 116.361 66.7451 135.622C61.6761 154.883 63.1258 175.28 70.868 193.631C78.6102 211.981 92.2093 227.253 109.543 237.062C126.877 246.871 146.971 250.666 166.688 247.855C186.406 245.044 204.638 235.784 218.54 221.522C232.442 207.259 241.231 188.796 243.536 169.013C245.842 149.23 241.533 129.24 231.284 112.163L209.536 128.507Z" fill="#4A5253"/>
<path d="M209.535 128.506L231.283 112.162C223.341 98.9279 212.134 87.9542 198.736 80.2918C185.338 72.6294 170.197 68.5349 154.764 68.4004L155.432 95.4059C166.567 95.6667 177.435 98.8655 186.936 104.678C196.437 110.491 204.233 118.711 209.535 128.506Z" fill="#E6E6E6"/>
<path d="M199.852 236.033L198.736 237.139L230.415 269.116L231.531 268.01L199.852 236.033Z" fill="#3F3D56"/>
<path d="M220.191 40.2902L198.172 79.5488L199.542 80.3175L221.561 41.0589L220.191 40.2902Z" fill="#3F3D56"/>
<path d="M254.678 280.914H207.928C207.097 280.913 206.3 280.583 205.712 279.995C205.125 279.408 204.794 278.611 204.793 277.78V271.196C204.794 270.365 205.125 269.569 205.712 268.981C206.3 268.394 207.097 268.063 207.928 268.062H254.678C255.509 268.063 256.305 268.394 256.893 268.981C257.481 269.569 257.811 270.365 257.812 271.196V277.78C257.811 278.611 257.481 279.408 256.893 279.995C256.305 280.583 255.509 280.913 254.678 280.914Z" fill="#4A5253"/>
<path d="M242.826 41.2349H196.075C195.244 41.2339 194.448 40.9034 193.86 40.3159C193.273 39.7284 192.942 38.9319 192.941 38.1011V31.5166C192.942 30.6858 193.273 29.8893 193.86 29.3018C194.448 28.7143 195.244 28.3838 196.075 28.3828H242.826C243.657 28.3838 244.454 28.7143 245.041 29.3018C245.628 29.8893 245.959 30.6858 245.96 31.5166V38.1011C245.959 38.9319 245.629 39.7284 245.041 40.3159C244.454 40.9034 243.657 41.2339 242.826 41.2349Z" fill="#E6E6E6"/>
<path d="M435.535 500.1H102.166C100.717 500.098 99.3281 499.501 98.3036 498.44C97.2791 497.38 96.7028 495.941 96.7012 494.441V355.758C96.7028 354.258 97.2791 352.82 98.3036 351.759C99.3281 350.698 100.717 350.101 102.166 350.1H435.535C436.984 350.101 438.373 350.698 439.397 351.759C440.422 352.82 440.998 354.258 441 355.758V494.441C440.998 495.941 440.422 497.38 439.397 498.44C438.373 499.501 436.984 500.098 435.535 500.1ZM102.166 352.17C101.247 352.171 100.367 352.55 99.7171 353.222C99.0675 353.895 98.7022 354.807 98.7012 355.758V494.441C98.7022 495.392 99.0675 496.304 99.7171 496.977C100.367 497.649 101.247 498.028 102.166 498.029H435.535C436.454 498.028 437.334 497.649 437.984 496.977C438.633 496.304 438.999 495.392 439 494.441V355.758C438.999 354.807 438.633 353.895 437.984 353.222C437.334 352.55 436.454 352.171 435.535 352.17H102.166Z" fill="#3F3D56"/>
<path d="M232.119 465.681H199.819C198.994 465.679 198.196 465.374 197.567 464.821C196.939 464.267 196.52 463.5 196.387 462.657C194.28 448.488 194.28 434.07 196.387 419.901C196.52 419.058 196.939 418.291 197.567 417.737C198.196 417.183 198.994 416.879 199.819 416.877H232.119C232.642 416.875 233.159 416.997 233.63 417.233C234.101 417.47 234.514 417.814 234.837 418.24C235.167 418.673 235.397 419.178 235.511 419.716C235.624 420.255 235.617 420.813 235.491 421.348C232.47 434.451 232.47 448.107 235.491 461.21C235.617 461.745 235.624 462.303 235.511 462.842C235.397 463.38 235.167 463.885 234.837 464.317C234.514 464.744 234.101 465.088 233.63 465.324C233.159 465.561 232.642 465.683 232.119 465.681Z" fill="#E6E6E6"/>
<path d="M340.264 465.681H307.964C307.138 465.679 306.34 465.374 305.712 464.821C305.083 464.267 304.665 463.5 304.531 462.657C302.424 448.488 302.424 434.07 304.531 419.901C304.665 419.058 305.083 418.291 305.712 417.737C306.34 417.184 307.138 416.879 307.964 416.877H340.264C340.787 416.875 341.304 416.997 341.775 417.234C342.246 417.47 342.659 417.815 342.982 418.241C343.312 418.673 343.542 419.178 343.655 419.716C343.769 420.255 343.762 420.813 343.635 421.348C340.614 434.451 340.614 448.107 343.635 461.21C343.762 461.745 343.769 462.303 343.655 462.842C343.542 463.38 343.312 463.885 342.982 464.317C342.659 464.743 342.246 465.088 341.775 465.324C341.304 465.561 340.787 465.683 340.264 465.681Z" fill="#E6E6E6"/>
<path d="M177.179 433.318H144.88C144.054 433.316 143.256 433.011 142.628 432.457C141.999 431.904 141.581 431.137 141.447 430.293C139.34 416.125 139.34 401.706 141.447 387.538C141.581 386.695 141.999 385.928 142.628 385.374C143.256 384.82 144.054 384.515 144.88 384.514H177.179C177.703 384.512 178.22 384.634 178.691 384.87C179.162 385.106 179.574 385.451 179.897 385.877C180.227 386.31 180.458 386.814 180.571 387.353C180.685 387.891 180.678 388.449 180.552 388.985C177.53 402.088 177.53 415.743 180.551 428.846C180.678 429.382 180.685 429.94 180.571 430.479C180.458 431.017 180.227 431.522 179.897 431.954C179.574 432.38 179.162 432.725 178.691 432.961C178.22 433.197 177.703 433.319 177.179 433.318Z" fill="#4A5253"/>
<path d="M286.413 433.318H254.113C253.589 433.319 253.072 433.197 252.601 432.961C252.13 432.725 251.718 432.38 251.395 431.954C251.065 431.521 250.834 431.017 250.721 430.478C250.608 429.94 250.614 429.382 250.741 428.846C253.762 415.743 253.762 402.088 250.741 388.985C250.614 388.45 250.608 387.891 250.721 387.353C250.834 386.815 251.065 386.31 251.395 385.878C251.718 385.451 252.13 385.107 252.601 384.87C253.072 384.634 253.589 384.512 254.113 384.514H286.413C287.238 384.515 288.036 384.82 288.664 385.374C289.293 385.928 289.711 386.695 289.845 387.538C291.952 401.706 291.952 416.125 289.845 430.293C289.711 431.137 289.293 431.904 288.664 432.457C288.036 433.011 287.238 433.316 286.413 433.318Z" fill="#4A5253"/>
<path d="M392.823 433.318H360.523C360 433.319 359.483 433.197 359.012 432.961C358.541 432.725 358.128 432.38 357.805 431.954C357.475 431.521 357.244 431.017 357.131 430.478C357.018 429.94 357.025 429.382 357.151 428.846C360.172 415.743 360.172 402.088 357.151 388.985C357.025 388.45 357.018 387.891 357.131 387.353C357.244 386.815 357.475 386.31 357.805 385.878C358.128 385.451 358.541 385.107 359.012 384.87C359.483 384.634 360 384.512 360.523 384.514H392.823C393.648 384.515 394.446 384.82 395.075 385.374C395.703 385.928 396.121 386.695 396.255 387.538C398.362 401.706 398.362 416.125 396.255 430.293C396.121 431.137 395.703 431.903 395.075 432.457C394.446 433.011 393.648 433.316 392.823 433.318Z" fill="#C6A78E"/>
</svg>
