<svg width="441" height="401" viewBox="0 0 441 401" fill="none" xmlns="http://www.w3.org/2000/svg">
<g clip-path="url(#clip0_825_483)">
<path d="M32.0238 204.611H27.8008V208.129H32.0238V204.611Z" fill="#C6A78E"/>
<path d="M431.467 208.129H423.146V204.611H431.467V208.129ZM414.824 208.129H406.502V204.611H414.824V208.129ZM398.18 208.129H389.859V204.611H398.18V208.129ZM381.537 208.129H373.215V204.611H381.537V208.129ZM364.894 208.129H356.572V204.611H364.894V208.129ZM348.25 208.129H339.928V204.611H348.25L348.25 208.129ZM331.607 208.129H323.285V204.611H331.607V208.129ZM314.963 208.129H306.642V204.611H314.963V208.129ZM298.32 208.129H289.998V204.611H298.32V208.129ZM281.676 208.129H273.354V204.611H281.676L281.676 208.129ZM265.033 208.129H256.711V204.611H265.033L265.033 208.129ZM248.389 208.129H240.067V204.611H248.389L248.389 208.129ZM231.746 208.129H223.424V204.611H231.746L231.746 208.129ZM215.102 208.129H206.781V204.611H215.102L215.102 208.129ZM198.459 208.129H190.137V204.611H198.459L198.459 208.129ZM181.815 208.129H173.493V204.611H181.815L181.815 208.129ZM165.172 208.129H156.85V204.611H165.172L165.172 208.129ZM148.528 208.129H140.207V204.611H148.528L148.528 208.129ZM131.885 208.129H123.563V204.611H131.885L131.885 208.129ZM115.241 208.129H106.92V204.611H115.241L115.241 208.129ZM98.5977 208.129H90.2763V204.611H98.5978L98.5977 208.129ZM81.9542 208.129H73.6326V204.611H81.9545L81.9542 208.129ZM65.3108 208.129H56.9892V204.611H65.311L65.3108 208.129ZM48.6673 208.129H40.3457V204.611H48.6676L48.6673 208.129Z" fill="#C6A78E"/>
<path d="M431.76 297.301H423.439V293.783H431.76V297.301ZM415.117 297.301H406.795V293.783H415.117V297.301ZM398.473 297.301H390.152V293.783H398.473V297.301ZM381.83 297.301H373.508V293.783H381.83V297.301ZM365.187 297.301H356.865V293.783H365.187V297.301ZM348.543 297.301H340.221V293.783H348.543L348.543 297.301ZM331.9 297.301H323.578V293.783H331.9V297.301ZM315.256 297.301H306.934V293.783H315.256V297.301ZM298.613 297.301H290.291V293.783H298.613V297.301ZM281.969 297.301H273.647V293.783H281.969L281.969 297.301ZM265.326 297.301H257.004V293.783H265.326L265.326 297.301ZM248.682 297.301H240.36V293.783H248.682L248.682 297.301ZM232.039 297.301H223.717V293.783H232.039L232.039 297.301ZM215.395 297.301H207.074V293.783H215.395L215.395 297.301ZM198.752 297.301H190.43V293.783H198.752L198.752 297.301ZM182.108 297.301H173.786V293.783H182.108L182.108 297.301ZM165.465 297.301H157.143V293.783H165.465L165.465 297.301ZM148.821 297.301H140.5V293.783H148.821L148.821 297.301ZM132.178 297.301H123.856V293.783H132.178L132.178 297.301ZM115.534 297.301H107.213V293.783H115.534L115.534 297.301ZM98.8906 297.301H90.5693V293.783H98.8908L98.8906 297.301ZM82.2472 297.301H73.9256V293.783H82.2474L82.2472 297.301ZM65.6038 297.301H57.2821V293.783H65.604L65.6038 297.301ZM48.9603 297.301H40.6387V293.783H48.9606L48.9603 297.301Z" fill="#C6A78E"/>
<path d="M32.0238 115.256H27.8008V118.774H32.0238V115.256Z" fill="#C6A78E"/>
<path d="M431.467 118.774H423.146V115.256H431.467V118.774ZM414.824 118.774H406.502V115.256H414.824V118.774ZM398.18 118.774H389.859V115.256H398.18V118.774ZM381.537 118.774H373.215V115.256H381.537V118.774ZM364.894 118.774H356.572V115.256H364.894V118.774ZM348.25 118.774H339.928V115.256H348.25L348.25 118.774ZM331.607 118.774H323.285V115.256H331.607V118.774ZM314.963 118.774H306.642V115.256H314.963V118.774ZM298.32 118.774H289.998V115.256H298.32V118.774ZM281.676 118.774H273.354V115.256H281.676L281.676 118.774ZM265.033 118.774H256.711V115.256H265.033L265.033 118.774ZM248.389 118.774H240.067V115.256H248.389L248.389 118.774ZM231.746 118.774H223.424V115.256H231.746L231.746 118.774ZM215.102 118.774H206.781V115.256H215.102L215.102 118.774ZM198.459 118.774H190.137V115.256H198.459L198.459 118.774ZM181.815 118.774H173.493V115.256H181.815L181.815 118.774ZM165.172 118.774H156.85V115.256H165.172L165.172 118.774ZM148.528 118.774H140.207V115.256H148.528L148.528 118.774ZM131.885 118.774H123.563V115.256H131.885L131.885 118.774ZM115.241 118.774H106.92V115.256H115.241L115.241 118.774ZM98.5977 118.774H90.2763V115.256H98.5978L98.5977 118.774ZM81.9542 118.774H73.6326V115.256H81.9545L81.9542 118.774ZM65.3108 118.774H56.9892V115.256H65.311L65.3108 118.774ZM48.6673 118.774H40.3457V115.256H48.6676L48.6673 118.774Z" fill="#C6A78E"/>
<path d="M32.0238 25.9004H27.8008V29.4183H32.0238V25.9004Z" fill="#C6A78E"/>
<path d="M431.467 29.4183H423.146V25.9004H431.467V29.4183ZM414.824 29.4183H406.502V25.9004H414.824V29.4183ZM398.18 29.4183H389.859V25.9004H398.18V29.4183ZM381.537 29.4183H373.215V25.9004H381.537V29.4183ZM364.894 29.4183H356.572V25.9004H364.894V29.4183ZM348.25 29.4183H339.928V25.9004H348.25L348.25 29.4183ZM331.607 29.4183H323.285V25.9004H331.607V29.4183ZM314.963 29.4183H306.642V25.9004H314.963V29.4183ZM298.32 29.4183H289.998V25.9004H298.32V29.4183ZM281.676 29.4183H273.354V25.9004H281.676L281.676 29.4183ZM265.033 29.4183H256.711V25.9004H265.033L265.033 29.4183ZM248.389 29.4183H240.067V25.9004H248.389L248.389 29.4183ZM231.746 29.4183H223.424V25.9004H231.746L231.746 29.4183ZM215.102 29.4183H206.781V25.9004H215.102L215.102 29.4183ZM198.459 29.4183H190.137V25.9004H198.459L198.459 29.4183ZM181.815 29.4183H173.493V25.9004H181.815L181.815 29.4183ZM165.172 29.4183H156.85V25.9004H165.172L165.172 29.4183ZM148.528 29.4183H140.207V25.9004H148.528L148.528 29.4183ZM131.885 29.4183H123.563V25.9004H131.885L131.885 29.4183ZM115.241 29.4183H106.92V25.9004H115.241L115.241 29.4183ZM98.5977 29.4183H90.2763V25.9004H98.5978L98.5977 29.4183ZM81.9542 29.4183H73.6326V25.9004H81.9545L81.9542 29.4183ZM65.3108 29.4183H56.9892V25.9004H65.311L65.3108 29.4183ZM48.6673 29.4183H40.3457V25.9004H48.6676L48.6673 29.4183Z" fill="#C6A78E"/>
<path d="M165 240.1H131V450.1H165V240.1Z" fill="#7E837F"/>
<path d="M172 240.1H137V450.1H172V240.1Z" fill="#4A5253"/>
<path d="M247 150.1H213V450.1H247V150.1Z" fill="#7E837F"/>
<path d="M253 150.1H219V450.1H253V150.1Z" fill="#4A5253"/>
<path d="M329 27.0996H294V450.1H329V27.0996Z" fill="#7E837F"/>
<path d="M335 27.0996H301V450.1H335V27.0996Z" fill="#4A5253"/>
<path d="M28.153 36.1028C32.8175 36.1028 36.5989 32.3227 36.5989 27.6598C36.5989 22.9969 32.8175 19.2168 28.153 19.2168C23.4884 19.2168 19.707 22.9969 19.707 27.6598C19.707 32.3227 23.4884 36.1028 28.153 36.1028Z" fill="#C6A78E"/>
<path d="M28.153 125.458C32.8175 125.458 36.5989 121.678 36.5989 117.015C36.5989 112.352 32.8175 108.572 28.153 108.572C23.4884 108.572 19.707 112.352 19.707 117.015C19.707 121.678 23.4884 125.458 28.153 125.458Z" fill="#C6A78E"/>
<path d="M28.153 214.814C32.8175 214.814 36.5989 211.034 36.5989 206.371C36.5989 201.708 32.8175 197.928 28.153 197.928C23.4884 197.928 19.707 201.708 19.707 206.371C19.707 211.034 23.4884 214.814 28.153 214.814Z" fill="#C6A78E"/>
<path d="M28.4459 303.986C33.1105 303.986 36.8919 300.206 36.8919 295.543C36.8919 290.88 33.1105 287.1 28.4459 287.1C23.7814 287.1 20 290.88 20 295.543C20 300.206 23.7814 303.986 28.4459 303.986Z" fill="#C6A78E"/>
</g>
<defs>
<clipPath id="clip0_825_483">
<rect width="441" height="400" fill="white" transform="translate(0 0.0996094)"/>
</clipPath>
</defs>
</svg>
