<svg width="40" height="40" viewBox="0 0 40 40" fill="none" xmlns="http://www.w3.org/2000/svg">
<path d="M11.7172 0.14209C9.58866 0.242086 8.13586 0.582074 6.8659 1.08063C5.55167 1.59346 4.43742 2.28058 3.32746 3.3934C2.21893 4.50621 1.5361 5.62189 1.02755 6.93755C0.534711 8.21036 0.201866 9.66459 0.107584 11.7945C0.0133016 13.923 -0.00669761 14.6087 0.00330202 20.0385C0.0133016 25.4683 0.0375864 26.1497 0.14044 28.2839C0.241865 30.411 0.580423 31.8638 1.07898 33.1352C1.59181 34.4494 2.27893 35.5636 3.39175 36.6736C4.50456 37.7821 5.61881 38.4635 6.93876 38.9735C8.21014 39.4649 9.6658 39.8006 11.7943 39.8935C13.9228 39.9863 14.6085 40.0078 20.0383 39.9978C25.4681 39.9878 26.1509 39.9635 28.2851 39.862C30.4193 39.7606 31.8635 39.4206 33.1349 38.9235C34.4492 38.4092 35.5648 37.7236 36.6734 36.6093C37.7819 35.4951 38.4647 34.3794 38.9719 33.0623C39.4647 31.7909 39.799 30.3353 39.8918 28.2082C39.9847 26.074 40.0075 25.3926 39.9961 19.9614C39.9847 14.5301 39.9618 13.8502 39.8604 11.7174C39.759 9.5846 39.4204 8.13608 38.9219 6.8647C38.4076 5.55046 37.7219 4.43622 36.6091 3.32626C35.4963 2.2163 34.3792 1.5349 33.0621 1.02777C31.7893 0.534932 30.335 0.19923 28.2065 0.107805C26.0781 0.0163799 25.3924 -0.00790471 19.9611 0.00209492C14.5299 0.0120946 13.8499 0.0363793 11.7172 0.139233M11.9514 36.2936C10.0015 36.2093 8.94297 35.8851 8.23728 35.6136C7.30303 35.2536 6.63734 34.818 5.93451 34.1223C5.23168 33.4266 4.79884 32.758 4.43457 31.8252C4.16029 31.1195 3.8303 30.0624 3.73888 28.1125C3.64031 26.0054 3.61888 25.3726 3.60745 20.0328C3.59603 14.693 3.61603 14.0616 3.70888 11.9531C3.79173 10.0046 4.11743 8.94462 4.38885 8.23893C4.74884 7.30325 5.18311 6.63899 5.88023 5.93616C6.57734 5.23333 7.24446 4.80049 8.17728 4.43622C8.88154 4.16051 9.94008 3.83338 11.8886 3.74053C13.9971 3.64053 14.6299 3.62053 19.9683 3.6091C25.3066 3.59768 25.9409 3.61768 28.0508 3.71053C29.9993 3.79481 31.0593 4.11766 31.7636 4.3905C32.6978 4.75049 33.3635 5.18333 34.0663 5.88188C34.7692 6.58042 35.202 7.24468 35.5677 8.18036C35.8434 8.88319 36.1705 9.9403 36.262 11.8902C36.362 13.9987 36.3848 14.6316 36.3948 19.9699C36.4048 25.3083 36.3862 25.9426 36.2934 28.0496C36.2077 29.9996 35.8848 31.0581 35.6134 31.7652C35.2534 32.6995 34.8192 33.3651 34.1206 34.068C33.4221 34.7708 32.7564 35.2036 31.8236 35.5679C31.1193 35.8422 30.0608 36.1708 28.1137 36.2636C26.0052 36.3622 25.3724 36.3836 20.0326 36.395C14.6928 36.4065 14.0599 36.385 11.9514 36.2936ZM28.2551 9.31175C28.258 10.6374 29.3336 11.7102 30.6593 11.7074C31.985 11.7045 33.0578 10.6288 33.0549 9.30318C33.0521 7.97751 31.9764 6.9047 30.6507 6.90755C29.3251 6.91041 28.2537 7.98608 28.2551 9.31175ZM9.73151 20.0199C9.74294 25.6911 14.3485 30.2795 20.0197 30.2681C25.6909 30.2567 30.2808 25.6511 30.2708 19.9799C30.2593 14.3087 25.6524 9.71888 19.9811 9.73031C14.3099 9.74173 9.72008 14.3487 9.73151 20.0199ZM13.3357 20.0128C13.3285 16.3315 16.307 13.3402 19.9897 13.333C23.671 13.3259 26.6623 16.3043 26.6695 19.9871C26.6766 23.6684 23.6981 26.6597 20.0154 26.6668C16.3341 26.674 13.3428 23.6969 13.3357 20.0156" fill="white"/>
</svg>
