<svg width="34" height="33" viewBox="0 0 34 33" fill="none" xmlns="http://www.w3.org/2000/svg">
<g style="mix-blend-mode:luminosity" clip-path="url(#clip0_793_3369)">
<path d="M0.367188 3.1653C0.367188 1.90005 1.45954 0.873047 2.80609 0.873047H30.9283C32.2754 0.873047 33.3672 1.90005 33.3672 3.1653V30.5812C33.3672 31.8468 32.2754 32.873 30.9283 32.873H2.80609C1.45967 32.873 0.367188 31.8469 0.367188 30.5815V3.16492V3.1653Z" fill="black"/>
<path d="M10.3952 27.652V13.2455H5.45709V27.652H10.3957H10.3952ZM7.92719 11.2789C9.64886 11.2789 10.7207 10.1727 10.7207 8.79016C10.6885 7.37616 9.64886 6.30078 7.95993 6.30078C6.26984 6.30078 5.16602 7.37616 5.16602 8.79003C5.16602 10.1725 6.23748 11.2788 7.89483 11.2788H7.9268L7.92719 11.2789ZM13.1286 27.652H18.0663V19.6077C18.0663 19.1777 18.0985 18.7465 18.229 18.4394C18.5858 17.5788 19.3983 16.6879 20.7628 16.6879C22.5492 16.6879 23.2642 18.0089 23.2642 19.9458V27.652H28.2018V19.3918C28.2018 14.9669 25.766 12.9078 22.5172 12.9078C19.8536 12.9078 18.6838 14.3514 18.0338 15.3347H18.0667V13.246H13.1288C13.1933 14.5975 13.1284 27.6525 13.1284 27.6525L13.1286 27.652Z" fill="white"/>
</g>
<defs>
<clipPath id="clip0_793_3369">
<rect width="33" height="32" fill="white" transform="translate(0.367188 0.873047)"/>
</clipPath>
</defs>
</svg>
