<svg width="40" height="40" viewBox="0 0 40 40" fill="none" xmlns="http://www.w3.org/2000/svg">
<path fill-rule="evenodd" clip-rule="evenodd" d="M9.05412 40H0.795524V13.3326H9.05412V40ZM4.88542 9.8413C2.18651 9.8413 0.000976562 7.63872 0.000976562 4.92065C0.000976562 2.20258 2.18651 0 4.88542 0C7.58432 0 9.76772 2.20258 9.76772 4.92065C9.76772 7.63872 7.58219 9.8413 4.88542 9.8413ZM40.001 40H31.7828V26.0028C31.7828 22.1642 30.3237 20.0192 27.2861 20.0192C23.9822 20.0192 22.2547 22.2516 22.2547 26.0028V40H14.3348V13.3326H22.2547V16.9241C22.2547 16.9241 24.6362 12.5168 30.296 12.5168C35.9558 12.5168 40.001 15.9698 40.001 23.1143V40Z" fill="white"/>
</svg>
