<svg width="305" height="95" viewBox="0 0 305 95" fill="none" xmlns="http://www.w3.org/2000/svg">
<path d="M5.376 76.8L13.384 82.568V84.948L3.584 77.892L2.072 76.8L13.384 68.652V71.032L5.376 76.8ZM23.7528 85.284C22.8568 84.388 22.1941 83.3987 21.7648 82.316C21.2794 81.2147 21.0368 80.0107 21.0368 78.704V65.6H23.1648V78.704C23.1648 79.656 23.3421 80.5707 23.6968 81.448C24.0701 82.3067 24.5928 83.072 25.2648 83.744C25.9368 84.4347 26.7021 84.9573 27.5608 85.312C28.4381 85.6667 29.3528 85.844 30.3048 85.844C31.2568 85.844 32.1621 85.6667 33.0208 85.312C33.8981 84.9573 34.6728 84.4347 35.3448 83.744C36.0354 83.072 36.5581 82.3067 36.9128 81.448C37.2674 80.5707 37.4448 79.656 37.4448 78.704V65.6H39.6008V78.704C39.6008 79.936 39.3581 81.14 38.8728 82.316C38.4061 83.3987 37.7434 84.388 36.8848 85.284C35.9888 86.1427 34.9994 86.8053 33.9168 87.272C32.7408 87.7573 31.5368 88 30.3048 88C29.0728 88 27.8688 87.7573 26.6928 87.272C25.5728 86.7867 24.5928 86.124 23.7528 85.284ZM63.4756 65.628H66.2476L57.6236 76.94L66.1636 87.972H63.3916L56.2236 78.76L49.0836 87.972H46.2836L54.8516 76.94L46.1996 65.628H48.9996L56.2236 75.148L63.4756 65.628ZM102.741 67.728H88.7972V75.54H100.725V77.696H88.7972V85.816H102.741V87.972H87.7332H86.6412V65.572H87.7332H102.741V67.728ZM127.008 84.472V65.628H129.164V88.028H127.008L112.7 69.184V88.028H110.544V65.628H112.7V65.656V65.628L127.008 84.472ZM139.104 68.792C140.149 67.7467 141.344 66.944 142.688 66.384C144.106 65.7867 145.572 65.488 147.084 65.488C148.857 65.488 150.528 65.88 152.096 66.664C153.645 67.448 154.942 68.512 155.988 69.856L154.28 71.172C153.85 70.6307 153.365 70.1453 152.824 69.716C152.301 69.2867 151.741 68.9133 151.144 68.596C149.837 67.9613 148.484 67.644 147.084 67.644C145.852 67.644 144.666 67.8867 143.528 68.372C142.445 68.82 141.474 69.4733 140.616 70.332C140.186 70.7427 139.813 71.1907 139.496 71.676C139.178 72.1613 138.898 72.6747 138.656 73.216C138.189 74.3173 137.956 75.5027 137.956 76.772C137.956 78.0413 138.189 79.2267 138.656 80.328C139.141 81.448 139.794 82.4187 140.616 83.24C141.437 84.0613 142.408 84.7147 143.528 85.2C144.629 85.6667 145.814 85.9 147.084 85.9C148.54 85.9 149.902 85.5733 151.172 84.92C152.18 84.416 153.085 83.7347 153.888 82.876V78.508H148.624V76.352H156.016V83.632C154.989 85.0133 153.701 86.0867 152.152 86.852C150.509 87.6547 148.82 88.056 147.084 88.056C145.572 88.056 144.106 87.7573 142.688 87.16C141.344 86.6 140.149 85.7973 139.104 84.752C138.058 83.7067 137.256 82.512 136.696 81.168C136.098 79.7493 135.8 78.284 135.8 76.772C135.8 75.26 136.098 73.7947 136.696 72.376C137.256 71.032 138.058 69.8373 139.104 68.792ZM166.619 65.544V88H164.463V65.544H166.619ZM191.548 84.472V65.628H193.704V88.028H191.548L177.24 69.184V88.028H175.084V65.628H177.24V65.656V65.628L191.548 84.472ZM217.7 67.728H203.756V75.54H215.684V77.696H203.756V85.816H217.7V87.972H202.692H201.6V65.572H202.692H217.7V67.728ZM241.938 67.728H227.994V75.54H239.922V77.696H227.994V85.816H241.938V87.972H226.93H225.838V65.572H226.93H241.938V67.728ZM259.233 65.6C260.222 65.6 261.156 65.7773 262.033 66.132C262.91 66.5053 263.685 67.0093 264.357 67.644C264.693 67.9613 264.992 68.3067 265.253 68.68C265.533 69.0533 265.766 69.4547 265.953 69.884C266.364 70.724 266.569 71.648 266.569 72.656C266.569 73.6267 266.364 74.5507 265.953 75.428C265.766 75.8573 265.533 76.2587 265.253 76.632C264.992 77.0053 264.693 77.3507 264.357 77.668C263.666 78.3213 262.892 78.816 262.033 79.152C261.809 79.2453 261.585 79.3293 261.361 79.404C261.137 79.46 260.913 79.516 260.689 79.572L266.457 88H263.881L258.085 79.712H252.093V88H249.937V65.6H252.093H259.233ZM252.093 67.728V77.556H259.233C259.905 77.556 260.558 77.4347 261.193 77.192C261.828 76.9307 262.388 76.5667 262.873 76.1C263.9 75.1293 264.413 73.9813 264.413 72.656C264.413 72.0027 264.282 71.3867 264.021 70.808C263.76 70.2107 263.377 69.6693 262.873 69.184C262.388 68.7173 261.828 68.3627 261.193 68.12C260.558 67.8587 259.905 67.728 259.233 67.728H252.093ZM273.681 88L281.101 65.6H283.033L275.613 88H273.681ZM297.92 76.8L289.912 71.032V68.652L301.224 76.8L299.712 77.892L289.912 84.948V82.568L297.92 76.8Z" fill="white"/>
<path d="M11.9067 38.7898L8.42452 45.9441H0L17.6915 9.27825L18.1408 8.32807L22.1284 0L26.1722 8.38396L26.3407 8.77521L44.2568 45.9441H35.8323L32.294 38.7898H11.9067ZM21.9599 17.8858L15.6134 31.0207H28.4749L21.9599 17.8858Z" fill="white"/>
<path d="M53.6378 46V1.28554H70.5992C73.5946 1.28554 76.4964 1.88173 79.3046 3.07412C81.963 4.19198 84.3593 5.77562 86.4935 7.82503C88.5528 9.94897 90.1441 12.3151 91.2674 14.9235C92.4655 17.7554 93.0646 20.6618 93.0646 23.6428C93.0646 26.661 92.4655 29.5674 91.2674 32.3621C90.1441 34.9704 88.5528 37.3366 86.4935 39.4605C85.4451 40.5038 84.3218 41.4168 83.1237 42.1993C81.9255 42.9818 80.6525 43.6711 79.3046 44.2673C76.4589 45.4224 73.5572 46 70.5992 46H53.6378ZM61.7254 37.9514H70.5992C72.5088 37.9514 74.3247 37.5974 76.0471 36.8894C77.8069 36.1442 79.3794 35.1008 80.7648 33.7594C82.1127 32.418 83.1424 30.8902 83.8538 29.1762C84.6026 27.4249 84.9771 25.5804 84.9771 23.6428C84.9771 21.7424 84.6026 19.9352 83.8538 18.2211C83.1424 16.4698 82.1127 14.9048 80.7648 13.5261C79.3794 12.1847 77.8069 11.16 76.0471 10.452C74.3247 9.70676 72.5088 9.33414 70.5992 9.33414H61.7254V37.9514Z" fill="white"/>
<path d="M103.185 45.8882V1.39733H134.917V9.44593H111.272V19.339H131.266V27.3876H111.272V37.8396H134.917V45.8882H103.185Z" fill="white"/>
<path d="M178.818 37.9514V45.8882H146.187V1.28554H154.106V37.9514H178.818Z" fill="white"/>
<path d="M198.042 1.11786V45.9441H189.954V1.11786H198.042Z" fill="white"/>
<path d="M217.348 14.0851V45.7764H209.26V1.06197H217.348L242.284 32.6974V1.06197H250.372V45.7764H242.284L217.348 14.0851Z" fill="white"/>
<path d="M272.65 38.7898L269.168 45.9441H260.743L278.435 9.27825L278.884 8.32807L282.872 0L286.915 8.38396L287.084 8.77521L305 45.9441H296.576L293.037 38.7898H272.65ZM282.703 17.8858L276.357 31.0207H289.218L282.703 17.8858Z" fill="white"/>
</svg>
