<svg width="302" height="36" viewBox="0 0 302 36" fill="none" xmlns="http://www.w3.org/2000/svg">
<path d="M9.516 29.624L6.912 35H0.612L13.842 7.448L14.178 6.734L17.16 0.475999L20.184 6.776L20.31 7.07L33.708 35H27.408L24.762 29.624H9.516ZM17.034 13.916L12.288 23.786H21.906L17.034 13.916ZM40.7233 35.042V1.442H46.7713H53.4073C55.6473 1.442 57.8173 1.89 59.9173 2.786C61.9053 3.626 63.6973 4.816 65.2933 6.356C66.8333 7.952 68.0233 9.73 68.8633 11.69C69.7593 13.818 70.2073 16.002 70.2073 18.242C70.2073 20.51 69.7593 22.694 68.8633 24.794C68.0233 26.754 66.8333 28.532 65.2933 30.128C64.5093 30.912 63.6693 31.598 62.7733 32.186C61.8773 32.774 60.9253 33.292 59.9173 33.74C57.7893 34.608 55.6193 35.042 53.4073 35.042H46.7713H40.7233ZM46.7713 28.994H53.4073C54.8353 28.994 56.1933 28.728 57.4813 28.196C58.7973 27.636 59.9733 26.852 61.0093 25.844C62.0173 24.836 62.7873 23.688 63.3193 22.4C63.8793 21.084 64.1593 19.698 64.1593 18.242C64.1593 16.814 63.8793 15.456 63.3193 14.168C62.7873 12.852 62.0173 11.676 61.0093 10.64C59.9733 9.632 58.7973 8.862 57.4813 8.33C56.1933 7.77 54.8353 7.49 53.4073 7.49H46.7713V28.994ZM83.8232 34.958H77.7752V1.526H83.8232H101.505V7.574H83.8232V15.008H98.7752V21.056H83.8232V28.91H101.505V34.958H83.8232ZM134.335 28.994V34.958H109.933V28.994V1.442H115.855V28.994H134.335ZM148.711 1.316V35H142.663V1.316H148.711ZM163.148 11.06V34.874H157.1V1.274H163.148L181.796 25.046V1.274H187.844V34.874H181.838H181.796L163.148 11.06ZM204.504 29.624L201.9 35H195.6L208.83 7.448L209.166 6.734L212.148 0.475999L215.172 6.776L215.298 7.07L228.696 35H222.396L219.75 29.624H204.504ZM212.022 13.916L207.276 23.786H216.894L212.022 13.916ZM259.945 13.832V35H253.897V1.4H259.273L271.285 20.804L283.213 1.4H288.673V35H282.583V13.832L272.629 29.96L271.285 32.144L269.941 30.002L259.945 13.832ZM298.426 28.658C299.322 28.658 300.078 28.966 300.694 29.582C301.31 30.198 301.618 30.954 301.618 31.85C301.618 32.746 301.31 33.502 300.694 34.118C300.078 34.734 299.322 35.042 298.426 35.042C297.586 35.042 296.83 34.734 296.158 34.118C295.542 33.502 295.234 32.746 295.234 31.85C295.234 30.954 295.542 30.198 296.158 29.582C296.83 28.966 297.586 28.658 298.426 28.658Z" fill="white"/>
</svg>
