<svg width="55" height="55" viewBox="0 0 55 55" fill="none" xmlns="http://www.w3.org/2000/svg">
<rect x="0.5" y="0.5" width="54" height="54" rx="4.5" stroke="white"/>
<path d="M22.6111 32H37.7667C38.1717 32 38.5 31.6717 38.5 31.2667V10.7333C38.5 10.3283 38.1717 10 37.7667 10H17.2333C16.8283 10 16.5 10.3283 16.5 10.7333V25.8889M17.1119 31.3889L27.5008 21M27.5008 21V25.8889M27.5008 21H22.6119" stroke="white" stroke-width="2" stroke-linecap="round" stroke-linejoin="round"/>
<path d="M5.79901 45V37.7273H8.39134C8.95478 37.7273 9.42235 37.8243 9.79403 38.0185C10.1681 38.2126 10.4474 38.4813 10.6321 38.8246C10.8168 39.1655 10.9091 39.5597 10.9091 40.0071C10.9091 40.4522 10.8156 40.844 10.6286 41.1825C10.4439 41.5187 10.1645 41.7803 9.79048 41.9673C9.4188 42.1544 8.95123 42.2479 8.38778 42.2479H6.42401V41.3033H8.28835C8.64347 41.3033 8.93229 41.2524 9.15483 41.1506C9.37973 41.0488 9.54427 40.9008 9.64844 40.7067C9.7526 40.5125 9.80469 40.2794 9.80469 40.0071C9.80469 39.7325 9.75142 39.4946 9.64489 39.2933C9.54072 39.0921 9.37618 38.9382 9.15128 38.8317C8.92874 38.7228 8.63636 38.6683 8.27415 38.6683H6.89631V45H5.79901ZM9.3892 41.7188L11.1861 45H9.93608L8.17472 41.7188H9.3892ZM14.4416 45.1101C13.9042 45.1101 13.4413 44.9953 13.0531 44.7656C12.6672 44.5336 12.3689 44.2081 12.1582 43.7891C11.9499 43.3677 11.8457 42.8741 11.8457 42.3082C11.8457 41.7495 11.9499 41.2571 12.1582 40.831C12.3689 40.4048 12.6625 40.0722 13.0389 39.8331C13.4177 39.594 13.8604 39.4744 14.367 39.4744C14.6748 39.4744 14.9731 39.5253 15.2619 39.6271C15.5507 39.7289 15.81 39.8887 16.0396 40.1065C16.2692 40.3243 16.4503 40.6072 16.5829 40.9553C16.7155 41.3009 16.7818 41.7211 16.7818 42.2159V42.5923H12.4458V41.7969H15.7413C15.7413 41.5175 15.6845 41.2701 15.5708 41.0547C15.4572 40.8369 15.2974 40.6652 15.0914 40.5398C14.8878 40.4143 14.6487 40.3516 14.3741 40.3516C14.0758 40.3516 13.8154 40.425 13.5929 40.5717C13.3727 40.7161 13.2022 40.9055 13.0815 41.1399C12.9631 41.3719 12.9039 41.6241 12.9039 41.8963V42.5178C12.9039 42.8823 12.9679 43.1925 13.0957 43.4482C13.2259 43.7038 13.407 43.8991 13.639 44.0341C13.871 44.1667 14.1421 44.233 14.4522 44.233C14.6535 44.233 14.8369 44.2045 15.0027 44.1477C15.1684 44.0885 15.3116 44.0009 15.4324 43.8849C15.5531 43.7689 15.6454 43.6257 15.7093 43.4553L16.7143 43.6364C16.6338 43.9323 16.4894 44.1915 16.2811 44.4141C16.0751 44.6342 15.8159 44.8059 15.5034 44.929C15.1932 45.0497 14.8393 45.1101 14.4416 45.1101ZM22.0472 40.8771L21.0849 41.0476C21.0446 40.9245 20.9807 40.8073 20.8931 40.696C20.8079 40.5848 20.6919 40.4936 20.5451 40.4226C20.3983 40.3516 20.2148 40.3161 19.9947 40.3161C19.694 40.3161 19.4431 40.3835 19.2418 40.5185C19.0406 40.651 18.94 40.8227 18.94 41.0334C18.94 41.2157 19.0075 41.3625 19.1424 41.4737C19.2773 41.585 19.4951 41.6761 19.7958 41.7472L20.6623 41.946C21.1642 42.062 21.5382 42.2408 21.7844 42.4822C22.0307 42.7237 22.1538 43.0374 22.1538 43.4233C22.1538 43.75 22.0591 44.0412 21.8697 44.2969C21.6826 44.5502 21.421 44.7491 21.0849 44.8935C20.7511 45.0379 20.364 45.1101 19.9237 45.1101C19.3129 45.1101 18.8145 44.9799 18.4286 44.7195C18.0427 44.4567 17.806 44.0838 17.7184 43.6009L18.7447 43.4446C18.8086 43.7121 18.94 43.9145 19.1388 44.0518C19.3377 44.1868 19.5969 44.2543 19.9165 44.2543C20.2646 44.2543 20.5427 44.1821 20.7511 44.0376C20.9594 43.8909 21.0636 43.7121 21.0636 43.5014C21.0636 43.331 20.9996 43.1877 20.8718 43.0717C20.7463 42.9557 20.5534 42.8681 20.293 42.8089L19.3697 42.6065C18.8607 42.4905 18.4843 42.3059 18.2404 42.0526C17.9989 41.7992 17.8782 41.4785 17.8782 41.0902C17.8782 40.7682 17.9682 40.4865 18.1481 40.245C18.328 40.0036 18.5766 39.8153 18.8938 39.6804C19.2111 39.5431 19.5745 39.4744 19.984 39.4744C20.5735 39.4744 21.0375 39.6023 21.3761 39.858C21.7146 40.1113 21.9383 40.451 22.0472 40.8771ZM26.7765 42.7379V39.5455H27.8418V45H26.7978V44.0554H26.7409C26.6155 44.3466 26.4142 44.5893 26.1373 44.7834C25.8626 44.9751 25.5205 45.071 25.111 45.071C24.7606 45.071 24.4505 44.9941 24.1806 44.8402C23.9131 44.6839 23.7024 44.4531 23.5485 44.1477C23.397 43.8423 23.3212 43.4647 23.3212 43.0149V39.5455H24.383V42.8871C24.383 43.2588 24.486 43.5547 24.6919 43.7749C24.8979 43.995 25.1654 44.1051 25.4945 44.1051C25.6934 44.1051 25.891 44.0554 26.0875 43.956C26.2864 43.8565 26.4509 43.7062 26.5811 43.505C26.7137 43.3037 26.7788 43.0481 26.7765 42.7379ZM29.2685 45V39.5455H30.2876V40.4332H30.3551C30.4688 40.1326 30.6546 39.8982 30.9126 39.7301C31.1707 39.5597 31.4796 39.4744 31.8395 39.4744C32.2041 39.4744 32.5095 39.5597 32.7557 39.7301C33.0043 39.9006 33.1877 40.1349 33.3061 40.4332H33.3629C33.4931 40.142 33.7003 39.91 33.9844 39.7372C34.2685 39.562 34.607 39.4744 35 39.4744C35.4948 39.4744 35.8984 39.6295 36.2109 39.9396C36.5258 40.2498 36.6832 40.7173 36.6832 41.3423V45H35.6214V41.4418C35.6214 41.0724 35.5208 40.8049 35.3196 40.6392C35.1184 40.4735 34.8781 40.3906 34.5987 40.3906C34.2531 40.3906 33.9844 40.4972 33.7926 40.7102C33.6009 40.9209 33.505 41.192 33.505 41.5234V45H32.4467V41.3743C32.4467 41.0784 32.3544 40.8404 32.1697 40.6605C31.9851 40.4806 31.7448 40.3906 31.4489 40.3906C31.2476 40.3906 31.0618 40.4439 30.8913 40.5504C30.7232 40.6546 30.5871 40.8002 30.483 40.9872C30.3812 41.1742 30.3303 41.3909 30.3303 41.6371V45H29.2685ZM40.4572 45.1101C39.9198 45.1101 39.457 44.9953 39.0687 44.7656C38.6828 44.5336 38.3845 44.2081 38.1738 43.7891C37.9655 43.3677 37.8613 42.8741 37.8613 42.3082C37.8613 41.7495 37.9655 41.2571 38.1738 40.831C38.3845 40.4048 38.6781 40.0722 39.0545 39.8331C39.4333 39.594 39.876 39.4744 40.3826 39.4744C40.6904 39.4744 40.9887 39.5253 41.2775 39.6271C41.5663 39.7289 41.8256 39.8887 42.0552 40.1065C42.2849 40.3243 42.466 40.6072 42.5985 40.9553C42.7311 41.3009 42.7974 41.7211 42.7974 42.2159V42.5923H38.4615V41.7969H41.7569C41.7569 41.5175 41.7001 41.2701 41.5865 41.0547C41.4728 40.8369 41.313 40.6652 41.1071 40.5398C40.9035 40.4143 40.6644 40.3516 40.3897 40.3516C40.0914 40.3516 39.831 40.425 39.6085 40.5717C39.3883 40.7161 39.2179 40.9055 39.0971 41.1399C38.9788 41.3719 38.9196 41.6241 38.9196 41.8963V42.5178C38.9196 42.8823 38.9835 43.1925 39.1113 43.4482C39.2415 43.7038 39.4226 43.8991 39.6547 44.0341C39.8867 44.1667 40.1577 44.233 40.4679 44.233C40.6691 44.233 40.8526 44.2045 41.0183 44.1477C41.184 44.0885 41.3272 44.0009 41.448 43.8849C41.5687 43.7689 41.661 43.6257 41.725 43.4553L42.7299 43.6364C42.6494 43.9323 42.505 44.1915 42.2967 44.4141C42.0907 44.6342 41.8315 44.8059 41.519 44.929C41.2089 45.0497 40.8549 45.1101 40.4572 45.1101ZM46.3263 45.1101C45.7889 45.1101 45.3261 44.9953 44.9379 44.7656C44.552 44.5336 44.2537 44.2081 44.043 43.7891C43.8346 43.3677 43.7305 42.8741 43.7305 42.3082C43.7305 41.7495 43.8346 41.2571 44.043 40.831C44.2537 40.4048 44.5472 40.0722 44.9237 39.8331C45.3024 39.594 45.7451 39.4744 46.2518 39.4744C46.5595 39.4744 46.8578 39.5253 47.1467 39.6271C47.4355 39.7289 47.6947 39.8887 47.9244 40.1065C48.154 40.3243 48.3351 40.6072 48.4677 40.9553C48.6003 41.3009 48.6665 41.7211 48.6665 42.2159V42.5923H44.3306V41.7969H47.6261C47.6261 41.5175 47.5692 41.2701 47.4556 41.0547C47.342 40.8369 47.1822 40.6652 46.9762 40.5398C46.7726 40.4143 46.5335 40.3516 46.2589 40.3516C45.9606 40.3516 45.7002 40.425 45.4776 40.5717C45.2575 40.7161 45.087 40.9055 44.9663 41.1399C44.8479 41.3719 44.7887 41.6241 44.7887 41.8963V42.5178C44.7887 42.8823 44.8526 43.1925 44.9805 43.4482C45.1107 43.7038 45.2918 43.8991 45.5238 44.0341C45.7558 44.1667 46.0269 44.233 46.337 44.233C46.5382 44.233 46.7217 44.2045 46.8874 44.1477C47.0531 44.0885 47.1964 44.0009 47.3171 43.8849C47.4379 43.7689 47.5302 43.6257 47.5941 43.4553L48.5991 43.6364C48.5186 43.9323 48.3742 44.1915 48.1658 44.4141C47.9599 44.6342 47.7006 44.8059 47.3881 44.929C47.078 45.0497 46.7241 45.1101 46.3263 45.1101Z" fill="white"/>
</svg>
