<svg width="34" height="33" viewBox="0 0 34 33" fill="none" xmlns="http://www.w3.org/2000/svg">
<g style="mix-blend-mode:luminosity" clip-path="url(#clip0_793_3374)">
<path d="M22.4142 3.88467V3.87891H23.9608L24.5259 3.98851C24.9027 4.05966 25.2447 4.1529 25.5521 4.26827C25.8594 4.38364 26.1569 4.51824 26.4444 4.67206C26.7319 4.82587 26.9926 4.9826 27.2266 5.14218C27.4586 5.29986 27.6668 5.46714 27.8512 5.64403C28.0336 5.82284 28.3182 5.86899 28.7048 5.78247C29.0915 5.69594 29.5079 5.57576 29.9541 5.42194C30.4002 5.26813 30.8414 5.09508 31.2776 4.90279C31.7139 4.7105 31.9796 4.58842 32.0748 4.5365C32.1679 4.48268 32.2175 4.45384 32.2235 4.44997L32.2294 4.44132L32.2591 4.4269L32.2889 4.41248L32.3186 4.39806L32.3484 4.38364L32.3543 4.37499L32.3632 4.36922L32.3722 4.36345L32.3781 4.3548L32.4079 4.34614L32.4376 4.34038L32.4317 4.38364L32.4227 4.4269L32.4079 4.47016L32.393 4.51343L32.3781 4.54227L32.3632 4.57111L32.3484 4.61437C32.3385 4.64321 32.3286 4.68166 32.3186 4.72974C32.3087 4.77782 32.2145 4.97008 32.0361 5.30658C31.8576 5.64307 31.6345 5.98436 31.3668 6.33046C31.0992 6.67656 30.8593 6.93804 30.6471 7.11496C30.4329 7.29378 30.2912 7.41875 30.2217 7.4899C30.1523 7.56296 30.0681 7.63025 29.9689 7.6918L29.8202 7.78697L29.7905 7.80139L29.7607 7.81581L29.7548 7.82447L29.7458 7.83024L29.7369 7.836L29.731 7.84466L29.7012 7.85908L29.6715 7.8735L29.6656 7.88215L29.6566 7.88792L29.6477 7.89369L29.6417 7.90234L29.6358 7.91099L29.6269 7.91676L29.618 7.92253L29.612 7.93118H29.7607L30.5935 7.75813C31.1487 7.64276 31.6791 7.50337 32.1848 7.33992L32.9879 7.08035L33.0771 7.05151L33.1217 7.03709L33.1514 7.02266L33.1812 7.00824L33.2109 6.99382L33.2407 6.9794L33.3002 6.97075L33.3596 6.96498V7.02266L33.3448 7.02843L33.3299 7.03709L33.324 7.04574L33.315 7.05151L33.3061 7.05728L33.3002 7.06593L33.2942 7.07458L33.2853 7.08035L33.2764 7.08612L33.2704 7.09477L33.2645 7.10342L33.2555 7.10919L33.2407 7.13803L33.2258 7.16687L33.2169 7.17264C33.2129 7.17841 33.087 7.34183 32.8391 7.66295C32.5913 7.98598 32.4574 8.1494 32.4376 8.15326C32.4178 8.15903 32.39 8.18787 32.3543 8.23979C32.3206 8.29361 32.1104 8.50802 31.7238 8.88296C31.3371 9.25791 30.9584 9.59149 30.5876 9.88377C30.2148 10.178 30.0264 10.5394 30.0225 10.9682C30.0165 11.3951 29.9937 11.8777 29.9541 12.4161C29.9144 12.9545 29.84 13.5361 29.731 14.161C29.6219 14.7859 29.4534 15.4926 29.2253 16.2809C28.9973 17.0692 28.7197 17.8383 28.3925 18.5882C28.0654 19.3381 27.7233 20.0111 27.3664 20.6072C27.0095 21.2032 26.6823 21.708 26.3849 22.1214C26.0874 22.5347 25.7851 22.9241 25.4777 23.2895C25.1704 23.6548 24.7818 24.0663 24.3118 24.5239C23.8399 24.9796 23.5821 25.2296 23.5385 25.2738C23.4929 25.3161 23.2986 25.4738 22.9555 25.7468C22.6145 26.0217 22.2476 26.2967 21.855 26.5717C21.4644 26.8447 21.1055 27.0725 20.7783 27.2552C20.4511 27.4379 20.0565 27.6465 19.5945 27.8811C19.1345 28.1176 18.6368 28.3368 18.1014 28.5387C17.566 28.7406 17.0009 28.928 16.4061 29.1011C15.8112 29.2741 15.2362 29.4087 14.681 29.5049C14.1258 29.601 13.4962 29.6827 12.7923 29.75L11.7364 29.851V29.8654H9.80308V29.851L9.55027 29.8365C9.38174 29.8269 9.24293 29.8173 9.13386 29.8077C9.02482 29.7981 8.61336 29.7452 7.89952 29.6491C7.18569 29.5529 6.62554 29.4568 6.21904 29.3607C5.81257 29.2645 5.20777 29.0818 4.40471 28.8127C3.60164 28.5435 2.91457 28.2714 2.34351 27.9964C1.77443 27.7234 1.41751 27.5503 1.27275 27.4773C1.12999 27.4061 0.969374 27.3177 0.790915 27.2119L0.523227 27.0533L0.517308 27.0447L0.508356 27.0389L0.499433 27.0331L0.493484 27.0245L0.463741 27.01L0.433998 26.9956L0.428079 26.987L0.419126 26.9812L0.410203 26.9754L0.404255 26.9668L0.398336 26.9581L0.389383 26.9524H0.374512V26.8947L0.404255 26.9004L0.433998 26.9091L0.567842 26.9235C0.657071 26.9331 0.899983 26.9475 1.29655 26.9668C1.69314 26.986 2.11448 26.986 2.56063 26.9668C3.00678 26.9475 3.46286 26.9043 3.92882 26.837C4.3948 26.7697 4.94505 26.6543 5.57956 26.4909C6.2141 26.3274 6.79706 26.1333 7.32848 25.9083C7.85791 25.6814 8.23464 25.5122 8.45872 25.4007C8.68079 25.2911 9.01986 25.0872 9.47591 24.7892L10.16 24.3422L10.1659 24.3335L10.1749 24.3278L10.1838 24.322L10.1897 24.3133L10.1957 24.3047L10.2046 24.2989L10.2136 24.2931L10.2195 24.2845L10.2492 24.2758L10.279 24.2701L10.2849 24.2412L10.2938 24.2124L10.3028 24.2066L10.3087 24.198L10.0708 24.1835C9.91215 24.1739 9.75847 24.1643 9.60975 24.1547C9.46104 24.1451 9.22806 24.1018 8.91079 24.0249C8.59355 23.948 8.2515 23.8326 7.88465 23.6788C7.51783 23.525 7.16091 23.3423 6.8139 23.1308C6.46692 22.9193 6.21606 22.7434 6.0614 22.603C5.90873 22.4645 5.71043 22.2685 5.46653 22.0146C5.22463 21.7589 5.01444 21.4964 4.83598 21.2273C4.65752 20.9581 4.487 20.6475 4.32443 20.2957L4.07753 19.7708L4.06266 19.7275L4.04779 19.6842L4.03886 19.6554L4.03292 19.6265L4.07753 19.6323L4.12215 19.641L4.44932 19.6842C4.66746 19.7131 5.0095 19.7227 5.47546 19.7131C5.94144 19.7035 6.26365 19.6842 6.44211 19.6554C6.62057 19.6265 6.72964 19.6073 6.76928 19.5977L6.82877 19.5833L6.90313 19.5689L6.97749 19.5544L6.98343 19.5458L6.99236 19.54L7.00131 19.5342L7.00723 19.5256L6.94774 19.5112L6.88826 19.4968L6.82877 19.4823L6.76928 19.4679L6.7098 19.4535C6.67015 19.4439 6.60076 19.4246 6.5016 19.3958C6.40246 19.367 6.13477 19.2612 5.69853 19.0785C5.26232 18.8959 4.91531 18.718 4.65752 18.545C4.3991 18.3714 4.15269 18.1816 3.91989 17.9768C3.6879 17.7691 3.43312 17.5019 3.15549 17.175C2.8779 16.8481 2.63005 16.4684 2.41192 16.0357C2.19381 15.6031 2.03022 15.1897 1.92115 14.7955C1.81252 14.4037 1.74086 14.003 1.70703 13.5986L1.65347 12.9929L1.68321 12.9987L1.71295 13.0073L1.7427 13.0218L1.77244 13.0362L1.80218 13.0506L1.83192 13.065L2.29294 13.2669C2.60031 13.4015 2.982 13.5169 3.43805 13.613C3.89413 13.7092 4.16676 13.762 4.25599 13.7717L4.38983 13.7861H4.65752L4.6516 13.7774L4.64265 13.7717L4.63373 13.7659L4.62778 13.7572L4.62186 13.7486L4.61291 13.7428L4.60398 13.737L4.59804 13.7284L4.56829 13.714L4.53855 13.6995L4.53263 13.6909L4.52368 13.6851L4.51475 13.6794L4.50881 13.6707L4.47906 13.6563L4.44932 13.6419L4.4434 13.6332C4.43745 13.6293 4.35218 13.5678 4.18758 13.4486C4.02497 13.3275 3.85446 13.1708 3.676 12.9785C3.49754 12.7862 3.31908 12.5843 3.14062 12.3728C2.96183 12.1608 2.80259 11.934 2.66473 11.695C2.52595 11.4547 2.3792 11.1489 2.22453 10.7779C2.07186 10.4087 1.95586 10.0366 1.87654 9.66169C1.79724 9.28675 1.75263 8.91662 1.7427 8.55128C1.73279 8.18594 1.7427 7.8735 1.77244 7.61392C1.80218 7.35435 1.86167 7.06111 1.9509 6.73425C2.04013 6.40738 2.16903 6.06128 2.33756 5.69594L2.59037 5.14795L2.60525 5.10468L2.62012 5.06142L2.62907 5.05565L2.63499 5.047L2.64094 5.03835L2.64986 5.03258L2.65881 5.03835L2.66473 5.047L2.67068 5.05565L2.6796 5.06142L2.68856 5.06719L2.69448 5.07584L2.70042 5.08449L2.70935 5.09026L2.72422 5.1191L2.73909 5.14795L2.74804 5.15371L2.75396 5.16237L3.15549 5.59499C3.42318 5.88341 3.74045 6.20549 4.10727 6.5612C4.47413 6.9169 4.67736 7.10149 4.71701 7.11496C4.75669 7.13033 4.80624 7.17455 4.86572 7.24763C4.92521 7.31878 5.12351 7.48895 5.46059 7.75813C5.79769 8.02731 6.23887 8.33978 6.78415 8.69549C7.32947 9.0512 7.93423 9.40211 8.59849 9.74822C9.26277 10.0943 9.9766 10.4068 10.74 10.6856C11.5034 10.9644 12.0388 11.147 12.3461 11.2336C12.6535 11.3201 13.1789 11.4306 13.9225 11.5653C14.6661 11.6999 15.2263 11.7864 15.603 11.8248C15.9797 11.8633 16.2375 11.8854 16.3763 11.8912L16.5845 11.8969L16.5786 11.8537L16.5696 11.8104L16.5102 11.4499C16.4705 11.2095 16.4507 10.873 16.4507 10.4404C16.4507 10.0078 16.4854 9.60882 16.5548 9.24348C16.6242 8.87815 16.7283 8.50802 16.8671 8.13307C17.0059 7.75813 17.1417 7.4572 17.2746 7.23033C17.4094 7.00536 17.5859 6.74867 17.804 6.46025C18.0221 6.17183 18.3047 5.87381 18.6517 5.56615C18.9987 5.2585 19.3952 4.9845 19.8414 4.74416C20.2875 4.50382 20.699 4.32114 21.0757 4.19617C21.4525 4.07119 21.7698 3.98946 22.0275 3.95101C22.2853 3.91256 22.4142 3.89044 22.4142 3.88467Z" fill="black" stroke="#D8ECF8" stroke-width="0.360523"/>
</g>
<defs>
<clipPath id="clip0_793_3374">
<rect width="33" height="32" fill="white" transform="translate(0.367188 0.873047)"/>
</clipPath>
</defs>
</svg>
