<svg width="35" height="33" viewBox="0 0 35 33" fill="none" xmlns="http://www.w3.org/2000/svg">
<g style="mix-blend-mode:luminosity" clip-path="url(#clip0_793_3364)">
<path d="M23.0153 16.5437C19.8979 14.9758 16.913 13.5343 13.8618 12.0293V21.0326C17.0726 19.3899 20.4568 17.8855 23.0286 16.5437H23.0153Z" fill="#D8ECF8"/>
<path d="M23.0153 16.5437C19.8979 14.9758 13.8618 12.0293 13.8618 12.0293L21.9095 17.1202C21.9095 17.1202 20.4436 17.8855 23.0153 16.5437Z" fill="#E8E0E0"/>
<path d="M14.4484 28.0811C7.97328 27.9689 5.7617 27.8679 4.40233 27.6043C3.48263 27.4292 2.68341 27.0403 2.0974 26.4763C1.64448 26.0495 1.2843 25.3982 1.00485 24.4946C0.765151 23.7418 0.671793 23.1154 0.538695 21.5855C0.334947 18.1326 0.286376 15.3096 0.538695 12.1553C0.746858 10.4134 0.847786 8.34556 2.23049 7.13918C2.88337 6.57458 3.64285 6.21124 4.49569 6.06104C5.82793 5.82297 11.5039 5.63477 17.3797 5.63477C23.2424 5.63477 28.9309 5.82297 30.2644 6.06104C31.3298 6.24924 32.329 6.81324 32.9157 7.54052C34.1772 9.40827 34.1993 11.7308 34.3274 13.5475C34.3804 14.4131 34.3804 19.3283 34.3274 20.1939C34.128 23.065 33.9678 24.0808 33.5149 25.134C33.2348 25.7989 32.9958 26.1498 32.582 26.5387C31.933 27.1371 31.1056 27.5351 30.2102 27.6797C24.6068 28.0763 19.8487 28.1624 14.4484 28.0811ZM23.0292 16.5444C19.9118 14.9765 16.9268 13.5226 13.8757 12.0175V21.0215C17.0864 19.3787 20.4713 17.8737 23.0424 16.532L23.0292 16.5444Z" fill="black"/>
</g>
<defs>
<clipPath id="clip0_793_3364">
<rect width="34" height="32" fill="white" transform="translate(0.367188 0.873047)"/>
</clipPath>
</defs>
</svg>
